<mxfile host="Electron" agent="Mozilla/5.0 (Windows NT 10.0; Win64; x64) AppleWebKit/537.36 (KHTML, like Gecko) draw.io/26.0.16 Chrome/132.0.6834.196 Electron/34.2.0 Safari/537.36" version="26.0.16">
  <diagram name="Page-1" id="uP070k3uisyVPjMpVkwX">
    <mxGraphModel dx="1840" dy="1073" grid="1" gridSize="10" guides="1" tooltips="1" connect="1" arrows="1" fold="1" page="1" pageScale="1" pageWidth="1169" pageHeight="827" math="0" shadow="0">
      <root>
        <mxCell id="0" />
        <mxCell id="1" parent="0" />
        <mxCell id="Z_9xBYdDylWqjb8Pn6Dy-2" value="" style="shape=image;verticalLabelPosition=bottom;labelBackgroundColor=default;verticalAlign=top;aspect=fixed;imageAspect=0;image=data:image/png,R0lGODdhmwCbAHcAACH+GlNvZnR3YXJlOiBNaWNyb3NvZnQgT2ZmaWNlACwAAAAAmwCbAIfOzs4AAAD/eyHO1t7Oztbe1t7FzsUIEAjO1s73cxC9xdZCQkIxKTGttb2t5s4pIRlSUmPm5qXm70Kt5qWt70Lm7xCt7xCtvXPmEM7mEIStEM6tEIRaGb0QGb1zc2t7lJQQxRkQe1oQe94QexkQe5xac2PelHvWtZxaSoyla4RaSr0QSr0xQjpanGPmlM7mQs7Oc1LmQoStQs6tQoStlM7OcxlaGe8QGe9aGZQQGZTma86lc1Kta86lcxlaGWsQGWtae5yltaV7c5St5u+lnKXmEO/mEKWtEO+tEKV7Gb0xGb17GRAIShBaGRDWQlKcQlLWQhmcQhnWEFKcEFLWEBmcEBmUlJzO3t57795771ox794x71p775x77xkx75wx7xnea6V7xd57xVoxxd4xxVp7xZx7xRkxxZwxxRkQnFoQnN4QnBkQnJwxe1oxe94xexkxe5zvtXNaSkLvvealveYxEEJaSu8QSu8QSpQQSmsIGTF7nN57Sox7nCGla6V7Sr0xSr17ShAxCBBaShAxSgjW5nPWvUKc5nOcvULWvRCcvRCllITmlO8ISkLmQu97nGPOlFLmQqWtQu+tQqWtlO/OlBl7Ge8xGe97GZR7GUIxGZTma++llFKta++llBl7GWsxGWtanJxaGULm7+YxnFoxnN4xnBkxnJz3QlK9QlL3Qhm9Qhn3EFK9EFL3EBm9EBlae85aexB7Su97SkIxSu8xSpTv5sV7SmMxSmv3czExSin35nP3vUK95nO9vUL3vRC9vRDvlKXvlBDvvaXvc1pae+9aezFa7+9a72sQ7+8Q72ta761a7ykQ760Q7ynva4Raxe9axWsQxe8QxWtaxa1axSkQxa1anM5anBB7e857exDOlKVa785a70oQ784Q70pa74xa7wgQ74wQ7wjOa4Raxc5axUoQxc4QxUpaxYxaxQgQxYzvlDrFvcXWtXO1taXmvcXvlFpanO9anDF7e+97ezHOve8IACm9ve/Ovb3vayHO1u/OtdYQAAD/ayHOzr0I/wABCBxIsKDBgwgTKlzIsKHDhxAjDjSgAEC7ihctYtyosWPGjxxBegxJcqRJkShLpjypsiXLlyINAMAoUIFMmTNv1tSZEwBOmz53Bu35kyfQokOPCkXKdKlTok+VQp0qtapRme0IWCRAcetHAAS+hqU51iJYsWjJpjVbtt1ZtXDZrnXb9q3cuHTn2s2L9yzXmVmzGuDKT6YCtz1tFgYsVLFhxEAdM05sYPHhxpUfY7YM2XDmyZE/X6bMebNm0o//XgYqsKvrihW7Bp7pM/bhsFy5xm6b2zXvwb4/9t4tHDhxjMN9/tatvDjzwc6DIzfe+nbtrT0La7+52PJN3HShE/8gcKVAgX0FroyHbjNsT/Lny7sHWngs9Ozs79PPP19m/Yv6+cefW/vZ1x8AnM0nGGgCCfZaR67xAxhuso13RTtECFECBBCUIEQQ7ewz3lZdjdfOBxx6IEQ76kFYEYkcdQWjiw0yl5GMgsX4Yo40znjjizJ6pVVGYBlGGHC9eVfkZPucuEAAUEYZ5QEQWDHiZWFB0E8AW0a5QBD77KSge2ISOFuZEyKW05hqtmdmWIM1199iZ6XJWGhmeWSjjiaBRYAHekgpqKAMWNHiPlYcMKiUQhRQo4yyiQcpRpICSSmFllpUaU0IUsRjZde1AxyPoR7JFXSe/ZdbXgO9SEADDyz/KquXIS4yq5QeXJFmWTOpSmBmbPKqgK85/YdfZzX9CtpYq9oZWVa5AfmcbbW5ldUVQsx6wAMPKLroAVYMuq23UhKh1XWoTvsobNU1Z9aDM07HrltBBpZcnDdKKKdyPs32pr0A/wXAPiUM2k+V0BLAzzsfPHlrP1YMRgARsUb5AAGOsamfYGSOBiBtR0kIIIWl6VRRYcreZu1hAXoGmE1ZoZvpg5kpUIAHg3rQTnoDaUWAeQ04PKgeO/usXsVQEqFrhNfx6ilz1yUr541lMc2eg+ySyNy5sUn4dMycijebyuCtySIRgj7QgIg/iUrmeYkOusg+nu3cgJQQmEiZUIyB/2fA2Bz/qhpOHRtGW7HurhYYzImBrTh21CH24OJaCcrCzw3+ra5ABbRDbgAH6GpWbPswECUDYXqF3MoDUT2dYIWtLnu1ofpU39OQaoXvkTtmqlxqBBYroMD7QCAlA3q3h2Vgf1t0IbkMdG42AAUYD+UDreK0t0apiaYashQme2SnjUut+Go9ranZm+1qLnNHFknZD4sNQk4tnGEhGqWhQlJUgNAsEFGDVgceV31qdgpIIMYSyEAFMvAKCYSgAha4QAVAEGMYnKADK1hBDTIQgxMSTcBwUoCCRckDYRJV49yDMoyRsAEesFL5tAI9EJFHYS5rD1bc5J4DGQAeJwiiEP+HSMQiGvGISExiEAmSkRfJzF7kekDqiOTE13CFeVnhmbV6QwATEsoDBlDPv5BDIyJlRQHuSIAaBZAANrqxjXCM4xvnuEY40tGOeLxjAsSHEwCpSmJBwFXn2jY6Zc1kcH8J3CHRpi0hiHFJe5NUf/ZhggTkQgACYAcmM4lJTXZSAJfk5CdH6UlRirKUpTQlO/bYLiLJZiM3k1IDxkOTCtlOU4tT3XVeVMJbQWkB68kl7HBHrYvEYZOeTOUolxlKUyLzmZvEZDNT6ckEYMwtdLrMYognND2AJSiKMZ8BBgMb7QGlbO1hpC+R58LC0QY8ZAIAPuKQAGV+spnO9CQ+Ndn/zH6CUpSh5Ocmc8HKUGVKOAVggZcK8LeZMSd2qhtPAarmHmhZYQElsEIDgkAECHwuABBw1I9mQzPbnKCN/9TnM/0JTWqSMprQjGYqtYKnEAqFAKb7ZZPesjGh0OlCVvhAA9RjH8aUxzwSDZP19reqHt4HWPZSAD3xeUqYJtOZ/6SqTDmJymVqkpX20pRunIO0kPZrSFBzG9UIsNQALCBwuruM+wayD5xFyZtxHcmelKMAE8TUqv+E6T1XykmtDvSwgcXkkp5FpmbtQ6G/1BVszDS6z0hMaFOKGfpqAic17QOzhrKXJBfEmHnWk7ACjeYlU/tXmK42pS2VKSvJFrkI/11BaBdrTZFo+rvJYktWC0jdK0cXtfhFyazDJWbMKHKFSkpTsJ/UpEtfG12uQneZMbVmm37lK67EMkpnXFzzaMu5nC6KVZ1pFmISGiVBAOd2HQsPYkwr3era87mCva99E1vYe7ISUl5jl2z0F6VGRQ2+IgHAR2X5RI3wSFR1zexe42JSlOJXtf29qjKpa1iAbjWaevsYa4bZoChCECsrBI5ArmDeQc2ybAIjmUwK8AFZ4vAvcFLf6AgwVWbC9rqDdWl/84ndr3JqgLp85f+kZAWRdu0mKjtMLxcVvY6UxLZ2hRKLvkbOJMPGry/Nr3X168xpIha//bSmTIoqJmDNOP+Qd/1mYt4ZngKES1ZWoFtQkJWudoxiqQeYjWoqKzV50tOe9SWzQFmryg/Xt6qKFevLZoS70uGNoaJl3upudYAgdI43wnEVuQJYrQIieZcnfa5+OXxdgQb0zFhd5j84NZqp0fksgioB20IYvsdK6QEelRLReLsmoezszlAqgUgXWxQ4iewK8agjG+3oxjdSG6XYrqOFr0pV6rYRHk6kV5TddSMDRBhv1DNOjkKUZdABYBSe+/WIXgmwfdxNSg9eHagepIB8xOEE/zZBHIYh8BMU/N9xMMEw3BFwhAMc4MN4eMKhq1JlsiMfseEu32r6os+mLc8jYkwB4Ly/JhXg3lH/ulxFsweACyENpHr+I8j0E5QMEmAfEcQHxnCOQXxMUOdX0LnONUgRAug8HocVMn7BXfPI7UqYZilAi6HEgA+AzU8vh8Ao/ETg46buUuNpN+gQ8yP41UyXuQSOii8isJvQy3YTzFG0serSVQrgBNRSWaFr+pmWI6CtUzKXTar3684FYaN+FjsKBRcizEKpydn8zBV1zJrKUzZrkQHZr1RM362aeZMJOIHO79O+VppaNpwTO9Uv1HUtkxxKWgf8B9JjorAMqsnoauUENecvffvlM1v8CpJyqYATeP6voYzDEE6dMT+SSH2ckcmFHI+8zn0OhS9P2ijkICgrEAFEumLx/12JQDdCrgYrNPVMf665t3Li7/I/AUB995l0TMajSfSKp29eE7Oy264y6hEEWgI6QfAzLRZABbBgIDd1UKIHHjBRQfMAHkA9p4YjmIJNozUf/UMnwwQk/zFBc9daFocxdtEVt5EZxgJ9NMcaP9MONkRjglI0yPZLAsEV2XdcP6MeEzVeXmFTWJJDgvMdQLgmbkIZBJBq1GVd0ERFpNc6xUQTZQcprjQe5IFyj8dQYNEAVrCF5nIur7JgUDJ77XNQeVVqGGgqFyFMydF/NkJT+QBd3ZZJ/hB6KYR+MqJDt7NYdVI2GXFFVFgZWTdR1pIeSDV544E0HrBUyMN7FSUZUf8GKuXDcSKETpphGQTAbVXlbfenQpNFJmk3bg2VVzhSdO1QArESKHeFAOhCL9xREa8SJSUwCqOQUxdDgr7xTdKCZIYzNfAUNcHhNBuRaq2VXySYJ7mnQ+70M2yTMAFDAPmAioPiaWsGVQImECgXXO1QMXqQSPCEPzdUVIDTfuoHMJKoG/DwYUEmSnhHXMtzLmWXMDAEAQ+gB4LAAgcEFgwIJYtnZdghbjGDNN1yXE7WNBBAjw+wAB5gLi1iNWREYv5HjhG1Spf0akB2f8/xKennFyxCAFYAWYKyAFdgLARAcgdDLrhHGyrGWGs2g1LyDjiGGOf2RSGSMgJyJ4ZDGOz/SDgcc1JdpWpDNhmaRVle0RX7EAT5uHqhEpNWMAooF1LN8zW4oYt/Iij9QAQMBVF/QzCz8gBNRiFYY3qiQi3oJxL9ho4ddndruCO6M2jUky23IgRlMzBZRgRMCYsFwC5Kchh4ODAdxQAMUAJr4zK0UQDv4Et5Q1Pw9DGWsXekVXlIB1jpmEma1xO/0n+u4kW/hpAf0j47o04gJQgF5ihBUSFtAj85iFTw8xGDAUOJmI8M8E0muC49WCpQSRHGh12xhkkngJOSBCqxQVeAB1IvFgRWwCLhsRjiJy41MjILojLTOE5ipULEJR4AQAPg1w6qx07WUj5msx+HAxQhskpd/2Vm0pUA8UB03ZkTOmkAMPhrbuEBLWYlsRkYH3UADcBQFlghXRE7Z/R/JGhGuNEA5HIAOkMAjgcBS8NCcTJcnQKFQ5JAJxVK9Addu0lAbHh2cdclOhU3hOIz+RdGpdgtVDJU4eiISHEg53cgWpkzo+CWUfIBTfIswqNblZcTdCF/MaVShWWeE/Q74kgQBOCRbjUKmHk8KdSJWZFCmNMurQFRuQQhXnM7D6YV3zUo0dNuByBnU/o1tXNIFOFc6IibJ0A3aWhqEPmK7bWig/IABTgUpHWjrdMphvQeKoSiN0mFPdQOQno8o4BZDyijZjM4JSMhmOiTyGSehiiYSlKDbf/FUYJyACvCIughH/IhIoRIhWU3O2XUO/UzHhxVgIRRHhslBFPnAQQgb+RDm9ZBKhchVW1Ekak0kbqpQULyjsyiYBZTANDoVp1TAgvwq7/KAsA6rMBqJRkpGumCgidKIFwBQA5SNOYhdthZLifGGIu5foJDAEnIX0nIDnUyc3x0OAXgmVsoJQvwZ74kKwwgNl2zS+8TPH2IUx1qi8oRkyBlAIJkdp4CIRSCG8W3bYQlWyZgI/8XbtIyCu1mAG01lemqrr3RGMv5nclKPXsKJSrHPStmXgcgrxb7kr2yW/nBazpKd6b0Dy9SU4Z0Geh6PQRALhAAAA17K1bCEWZBNbz/h5L1YaCzElzL+TMuGgDtoIgm8pvjNG6TYZthpoTRdH96knbMUx99ejot+6Iz6JdWe7VY22ILIIhFckZFoSQfY68BMHVm5X6vFwRZdgBFxx7vNHyDhg+P6VpwOKtkh0jBU07vBkCnuj9pOzDmUR6AS4jlMYteEiYMKloEhBFiG3uCgkI1gqZJ46LeJCQ1GyNYCQABm2GnVCS2YZn/JyddJwRR624uGmiqqGI4hhPJGQAsgJ/ZxHhoQj01Zq4TNbov+mkzllNZ2pQhmUN9RqdHeFphClMJYALLc7Lh0Z2EYwUQsAgjkoiJNyWc+z4lYl48y6BnZ0YVcQUsGT25EaTd/8dQJ+gBHjCcEPCAYBkt/hmWl+gPhmpd1HUCYoQvlnKhUUk957Fm5yGX+NYxtVpeKSeIL5kqhDQwrxcA2HMFmTFRU0d+SHIe52IeSrqdMpoyWfGGyNdq88FmoxEaHAidRJJ6cYYqWGkbq7u1yVUfteOKDaChAYBX1BEWn2OfnQOFxugTbssxOOKK/9poGiZNxUuvYkMb7GOC5ER2UfezHDNiZSN1XrIe8JWiCxIW2QctH+MWTTLDxgmEO1RUjKUs9RGrQKaObmKihTYZsukaV9C3qyqW22u9hkuz+mkd2Xef3BE1J5c2mGoqalkZFbWGp3IYF7Zo/JVJ88ZbpFmCXv8MGdsZk4FmIoREIU4cWWwxKvHlJ3uKe+cnMuM0rvN6fuEaGkVliQowDMK7aqJ0nlczxHjyMX4RNbyUtnEFjLZzwgwFJ7dBLcqhs1IihkK4NRfRngv1OyhTatSoi5YRgj+8rQkwDHHHNcRMcxEFPFjBnkq8cn74K5PMuncZPO/HGMXTuKIZZchiEQgrKCHlfuG0PbWWeYzWav+Ed9/jYHfCjk7YGiS4vVnmTWsrLwNxwsJVGGxLV2IHAVPki5fRhyFSpLr2KIFMInSin/xQfIT1Woi2Hj9IbMFxVipmJ1jcbpoVIMVsy4Jjefx7afMMY2umQuYBeOi7yYSGpDmBAJ3/N4yPdp4ZzZzsaiR95FA707eNyC9ry7G8OsQC7TMs2boOHZZEvBH4w15MJjoY6S/PUR8KELcTqlVxgA/VAaARwspq5SzWnFl0OmlZ5JEsIFk5hBsHzE7QuRpDkj7EMRjbnDTtxBe+Sz7tcVWjRJGhtI61liA02UPN4osxOWw90jRw3IMVEs4WUx5gcTuXwnudi6dXEIg90l0RUpbD25MCQBCuESQW6LRf7B72OsVUTS/bvLVoshhVqrZWIAh6YCjOeU3h01hWwADgMrXJpsBNxYmwe04RmlhJuE82yiZ30pxNqMO78dolmHczYcuaE9pOtAAHwADt0A74hs+W0hau/6jd4NUOug1MEJk7T9qq9ARpOWp/Aeafoj1W5+Iayc09BVC6zQkwebLaJ5aYfnghAzODM4tFOUYUE9PLIlI0fKYgcq09cbtVni0A54mivSdoQhmVCzoka3xXwdMu92O9AzmfZGRnUuJpTbp77Lc4V0CuotkcyPFkvKNLmXtmlxR6Cjwdz4HIuixiZjIajoyBWSQf7sGeHhlcKx3kdPIX3FsuB9I3HV3gTAVO07hyopxeb0h/sNpJoRd34sPItaqBejgRFeHcJZIhHxBDQ3vZC8VvBuU8M6g0o/igTQQWKv41HEEcaFUhPYxoQAYP8DLH7/p/i/EvYw1eWpHhx/NNUP/tVkP7u+BJPQCuFS20WZ36esaqw3Qy37SFMcfk4MfHTybbg3rHQ8r6Hn2OMVWK2OAtKOYyGIv9KE5aFhw54rMMZSbh5I+3NCUsadRhUATwmPbUYd6665FTNcWEho0oEz3+TbsKJaCq39FJ6r0h4vvTzTshMmWS4kyWfnGpOEHOPGChABYHWxbdSba9OMP0kn+hKu9DE87tirHtLQRquESNwvk8QGkX61GiNJzyKfoiMXPOI/7Mj132N642xkt7Lw9qhnwyTnG5IL8VJeypjNV6HhO1D4RrsdQ+p+D5MzMIJpZtISCfVJSOQaCSXsqi4BcMz5BGUPGAD6mNjAuCJEX/Xhby8tPHwwIMIKwMsADCqvM5r9sCCZacOhgzeJBWi/M4//M/n/Tx6SiTA9F9xlsUnbRAFge7lzVeJky7McCTcSExOysfkH55GR6e+vXpuurcZTgy6n5qlQ8nAERuD/dvH/dx/w8nwJziZBfTA5Quvq9XUKRmX2XT/cdsCy03aPaPfTi142Z+yI8zYUEe5EESRBEa5I61RLN6kjsPW4RnQXiIP7ZjY4SuPHgNsOyfb5/H7jUulCa7h9o40dFLwvAXLpjL44TmtENkd4JO6orjCgHE+vvDCgGzp8D7NkKgdgX54KvB/6u+D/zDWqDEhhJlOFJNTSPEZIZnQR2e0jvB/7eW07jgmgIWo0Dx6FH+5E/x5hHTY/97ZmH+6GEe8E/+o+D+EDx5cv07Y7PSRNxUG9Ms7aw5AKHAAD8A7RQAQKigHYGEBgAofAiAgMGCBAxAnGjxIEKOHT0iNBByI0UDGReWNEBx4UeQAByyZElypcqJCixOBMDvIsKTB1UefEmS4MWTOjfuLHjUJ8OeBV8KxPnQIcR2KV3C5Dg1p9WGUqXqtCi1XcGWAh9W5en06tSnY82yxWkWotyFJ8OejSg1I9yKboNGnVtyrMSqRvvejAi06uKUjVW6LOlTsEmNSSsq9pl3YMi9RsfWPWhRJ9imJ0HWZbjzJ8+JgoGSBjqypv/LzKorPwyrU69Bh24XErAJ9aDNqjVb45U7GaXus6lx+q0J17RZv14Vto6Lmi3YzV2HP9Ur2LpD8VAHQ+RIcunMjbQH13UJtr1BxNoNqx9MdPbSkpaLIlXsJopcAo422jTKLzb/nputr9cq2uw65eb7Dqe98MpOopB0o8sl3gizzi/udDMpPO8GHA9Et5oji6oSAdtsLxhv6s2rFtnKC7nNULRsJx8tGlA/BVe6iKEelyKQQB99Go4nyQgi0kXQDKxNwYiWbMpA/YhKasqUZnMNwiBldA29yXwLT7u+utJpxbqmQvO688g77sIOU8SwuBjR3JOw7BqMCLHdGDILr4T/xsrQvEIT6hGsw/CrbDWkdiLTMANRo4jJiOCbjb30IlsQvJ0UjFG81QZUzzL3UnttOaSMou7E8URryFGHwoquTR0PjQvHro5LjiP0BFoos43m+sxY+OgS8NY5/UTUt7DknLU61pAsjalIKyOAgH26BbeAAq6gMVKlwEW3tTeBmxJdcuPyELEvCez2igLqBUm2MCVLt95+0QVpW7vGolQwHIcVEU4CCgCgAQ8gYIEBiVlYoAQr2vkWIuZQC4KIjokAmdCbMAoKZJCtIMI+OLu77mOUQW6gW+h4A4yABkzGGecGGghi53YW+lZNZKPK9DADlQQKgCsA8ICBAJ6GOuqn/yEI4l6RtCTAaamFYDhIOQkgQuoAiLgipSYTo7cdsQNgoABTKSTrCivWpjuAA/RgwIN2yNUvyeVwRatDZAnbh4gH6l67BHDtu0LrqA9Y6bCpCAhCbCsKDOtNvPbxgO6Yter10AI+QLx0CLoFUc5ChZos4Iqc2mfu0tdewG0rs14bAtsvvSlsqatO1kCc+js89wIwiw8piRaZHXEGlvYaIe4YDQw06ZqnG4J9oFXa8d+1lZZysYkArq1e+RGf7gMIa88sICWSHfu1GWAIyNDxQsl+oGbr1nupDwAg4qywu5Lgbm0P2N6PKuK7qJFNVT+6yD4ggLgPMGxBRSNA/OQnNv+uLUlMqXOLbmiGqMqJjQEfaEBOGmaF4knteWhqXN08sI9oQSV9DbTQl9CEkH4g7gGEegpK4qbBpz2gBCWAAAQWoEQGHEB9/aFJf3w0vdAMbB8lEFsJxGXBbt2LBWuL3EBiWLcs0YeBUAtCt7YELwKQrnQxu+BrruDGqHlgFHMYxRbFxTS6VTBKFSlRsIrzoQIs4H/3Ykzc2tHDrV3hQ2OkGwsQ+bobQo188DKPQwrgP+Ot61kEYJ7UtBeSkFyFAKM4I9R0Zx4b/QhTNjmTAaHGgO3hxjYSzKIFf8NJqTnQNqkcmyPt15NulTBqC2jh09Y3slX9hogB0N1WKlOSfRj/0oVdk82ypGW+qWxSbFVjjWkQYIWILWCJEPiAaBwCSfWpESyVfBr5tNKcseDyd0IQ2ww/k8OJyE1sutuOeEYnth9y0zlK6tSqlGbNx5HvXX0DgLj2kUcLCo+XUpuh8IBJNvi8pD8AcOLj9vEOExJQUwYYqCgZhhJNFeCZDyAXWlQDmh2yEicpNaEHYmYvplzFI9rx5uPWFjMLGdOSQEROO1yay31wMo3QEtBSRRlTgdiqAPiUmh4IFZF3SlEpRyJQAxhJtwdAwAox+5ZTPnMlnbATmhO85oE2KsyBueQKX/yduOioSrdBqiR7ndpKWVWRAuD1mH0dnrL+NBh11rNz/81jQAnSSK7d6MWtEADA2j5wBYLAc2zlopnNxlrEAgwmpFH7jXhu+sxofgUhV+Bc4mg4LcaS50Gq2Z9Vgoo9BghBIhCijP/kMIrHPu63YBsfXUeigAIUF2odjChcoyYE6A1pjlkchbsKEgSG9nKlX/2atahjHIkQwLDYO4AV9qGwkux2at9K5ntLYtR4yuxXBIhvAIi6EPoG4AE2yoxUHycxAkvstCUtD3wYJcSvuZIzBSjBaJuXUaz5r3YCjlrVkPu9TZ3Fn1KrHWckkt80tsYwbdwg3Z5qGiWJsCbT0SZu6tmOEuhhgx443j4vy7BqmpAAV9jo8KLSY6lt9iwoxf/qMWcLFU0+M8UZFdwfP2oaBcaoIHu0AgTy67mtlsTCoxDM2uw4VzAxRcL9eJ2MxYbmq9AEsCmuIFm4k83EZIoi2REkQsQ1kYcdWGwhToh7A7AARwKAuGI7AD/6K0/a4lSVo/jWvcY1CulCDceZjKiTm7eABpRWQ/SESnzI4rrgpcckkingPhgWBC3TbUo7jo9boam2XioXIfg1IQTkoMQlLpGTCIQQWEL5Pz0AEIB6EATe5KDTezlpLeCTisI+tDqb2Mva09LJSyK6vUpD7XIccSuhA9XfADi3vl5ZSANSvLbLweXDUYtmtP4BAATY61u9yZ+d77IVK/3HJ0Swggf/PLAAFlBYNdqOKCcziij/RZM89iwdR/cC8XVDbQHbGwpz3wyBUdwaXB/R90yoJB0QemUia9bQeY4c0Tdr0SzhznFU/Ly2S4oHpBUX20l6g+HAwmcxYnGWd87EGv8ca8G47iVw3reSgzQ3n7XcW8MFOxBH003iBqk6zsu9veugWKVU2lSBUiUpIykkfzanCgAo/rS2JYQ7gyHydEvbXgvn2CuCHh9S8Y5zreaH59B0W1qwEzhRv0dYg9nUSVVeEifPcLCh2ccj1vbUfjYczPEqiboRx9Fba/53O3vHznrWgNCLXsIBGCClWm7S5BUIrLjNl12EmJjeGMnGf+60qu1V/1osEhSp4SYUaSLae6sDEcJik+S9GCLpLkqE0n+Oaab/KbPQUSeItGJyGFVHloFcqgCSp1tkS3CLErDg9E/rIGqkfpX9TWTmaNQWAWbux7Ss9TMFAGYACLa3jX9XckYZvAbRDrQrj4CSiKbSOv/SkJsQNHEbr3rStM8SiL/rh2hJESa7gvwqgdkqgGFTpfVSp2kpj/thFv+AEP6IlNK6vXWDHEdiEliLEJ8qJKuDnrjjq6t5nVdyOqkRhKVhvH/qGnNxNlWJImaaFq+ADYfIttLastI5gM85ju4BsUIrFIygtbwjDHY7npILlpOzHHBhLQuqqgLsCgDbob7xkuUSHv8CIL7mwazSyoj9ia8F6LgIIRKMMbenSb3jOyR8+ypPuYLuYrul8Tp4cxuWIpApeZOhIJJ3skAmy5BEfAkaahrnoRpEIrkCgJgC84DyAZy8IIAFKDCJoTwIGMW8oUJeOY9oAbJTZICxwL9T9IClQZhWEsE6a6UhART9yBJvcRsi+ACBEwIPsIKLga3vSizI+LEruDYH6RECYcZofBen+LFxsTaryYxL+cNllEYPKYloLIB6E7zicMYoOoojpIxn2SZ6GrXyKgBVG5dx6QiEObV2rL0gUkWyWKvK8qj34ZCxIBEd2rd9lDHuywrsCIwylBOroBYtMZaj0Y79qQquOA3/fRy1ScmI0zCbZtqKLEmPePmPqrgOK8GSAuHFjySJNtMU+lgRemqQkuCHr7KKQErE6ltF3DiyFQkWKREcwBHByOgO3iiKC7yQm2wOOkGUlUG36Bi8K6GROQGct8CL1CoNsLKLB8q2LpuJEMSagemU4WC6fMmLVAk2pGwSN2Ef/+ASJJFIZnqbpDCxBTFBGsHF8AAM5LgRdiSOXQmvXams5zjKFlkwHYmOGwEWV0FHlokTn0sO0mCwtsiLwSG19RiSo7GNS7FMykBExEQVIGnLGHQKz3COAbGUoklDxkSoW9lMzdwfCcEf+0FKBClMuwRI5VCwBksUOHHJaasRueAV/5KzKd0UQdjcCtq8xaR6sT8xOaF5xATTi8l0Rg8qFsvUlKMQPpkEHwEMkC0pzdgYGC6BS+kEk/vojPxpMd4RSYWSztuKQ+uRJrRTx44sz7yswhhjskPRENI4TpIpzrn4LffZx7oyj1uMsvDgEAHhHmqpPm2blJNSioh0SC3RT4wsFdHUirFLRm1svR1xUDC5LU0py8wcu9drDw+SS7MYDa3oPoNISsKszQVlkGmrjkDKN9parCMMjKj4CvOpDhLhzd10H5ZJy1dqzguBkClS0fqhCVHzoO7bk36jESjRRUipyQjtxxPUvotUQ+W5jtdxJQmpDaa4nc4Mk6HrEN9wlSnxuE6tkBCbjLYjlD3AsLM9SU4ZPRQhTcgdvU1pi4pmiQ4B1ZPdKJSAAAA7;" vertex="1" parent="1">
          <mxGeometry x="1070" y="336" width="164" height="164" as="geometry" />
        </mxCell>
        <mxCell id="Z_9xBYdDylWqjb8Pn6Dy-3" value="" style="shape=image;verticalLabelPosition=bottom;labelBackgroundColor=default;verticalAlign=top;aspect=fixed;imageAspect=0;image=data:image/png,iVBORw0KGgoAAAANSUhEUgAAAoAAAAK/CAYAAAD54XxbAAAABGdBTUEAALGPC/xhBQAAACBjSFJNAAB6JgAAgIQAAPoAAACA6AAAdTAAAOpgAAA6mAAAF3CculE8AAAABmJLR0QA/wD/AP+gvaeTAAAAB3RJTUUH6AcSBQQbljG+SAAAgABJREFUeNrtnXmcHVWZ/p+37u3u7CyyO4CiKCRsEkQRUFAB2dwTRVxHBwTFDRSX8Ue7oKyi4qjoODM6LjPEZRQFQZYAWUCJAhIQ2WTLQkAgZOvue+v9/ZG+sbpSy6mqU3Vreb6fYUxu1630Pbfq1Lfec55TAkIIAXDY8HXT2pM6Wztdd4Yj7vSOYoYoZjiObum6Ml0EM0QwXRXTBBh0BVOhmCTqTlY4UyAYgrpTARkc3+VkAJM2/lF7/zcdQDv8t9D1UGzwviLAWhcYBaACPAUoXMgG2bhtV4DVqngGgvUCXaOQp1V0vQLrRPVJUVnvOvqk4+qTowPdJ1tjWz85f/jwDfzGCSFNRtgEhNST1577y+kbupOeDQfbOcBO6uoOCnmWAM8SuNsqZBuFPAvQZwF4FoChnqth4h8217RNf1CzX2Z8u+itNXADDfubhu9Hw3fQYz2gTwJ4UoEnBfKkAo8DukIgj7murmoBj42prnBaA6u2Xbp21bx5c7s8qgghFEBCSN84+kuXb9uV1i4OZBcV7ALocwTyT6ruDoDsAGAnAFOCJUij3Uj7JH8BGyWXP5/+aeyniPgo6u0pFYpVIlipLh6CyKNw9VGFPuS0sEwgj2xYJw8vPO91z/DoJIRQAAkhqThs+LpJQ5P0eUD3+VB9vuPg+ap4rgK7CPAcAJM39xw1cJ1s8jdxEwMBrID8BQtgfFtq0H6A1QI8qKoPCOR+gT6givtF3Ac2rHHvX3zR3PU8ugkhFEBCGs4xF1yzq9tx9xDRvQB5oSqeD8Hzofinf5yfGiMisVbUH/n7x7y/jPIXvl3/5C+1cK+A6P1QuRcqf3EUf4XT/ctjLfeepcNzR3lGEEIogITUiNeeffX2Yy3ZX8XdS4A9BTJLoXtiYygiRETykb/Ad5jO+yup/JnN+zORv4xtnr7a2oHibxD9iwr+4kDuhos7MLD61vnD72FghRBCASSk7Bz75Ru36sqGWY4js13V2aIyG4KZUZJhLCKbyUiB8hf+i6aQv39sF/2pKyR/idvcqNraAfSvCiwRwRJH3SUYWHsLpZAQQgEkpI8cef6V2w24Ay91BbMFur+qzoZgx2hPKFL+Jv6lkvIX05YGid/0bV7OausIBL8X1d+66vz2xi+98U+AKM9GQggFkJCcOPpLN2yLgbGXAjhYFK8GsH/vPKrIHLQw07Agfyjjci9NEO5VAOa7oleLti678UtvWs4zlRBCASQko/BJu/NyET0MisMVmBl83qjBtZ3yV/rlXqonf/69dRV6gwA/cDtDP+OyNIQQCiAhhhx/3jX7uyKvV+C1gO6DjavAwVBFqhhAQPQmTV/upbLCvU6h/6eQH+50j17FhawJIRRAQjzMufTS1voHtz3UVff1EHk9gF2jhKWU8jfRIKL3WvHlXupYbf3HJrlVW1eo6o+ctvzbDV+c+wDPekIIBZA0kqO/fvlQa2ToSBfyBgGOB7ANAwgVk78SCncFqq1dQH4mjl5449lzf8+egBAKICGN4PivXDvL7eo7APlnANvGahMDCBnl7x/bxbRM5eWvgsK9BKJf3/Ee50ccHiaEAkhI7XjtuQumd9pj7xTV9wPYiwGEkspfSYS7gdXWu0XxxRsn3/VjDA+77DEIoQASUmmOufDqFwhap0HlnYA7I/7CyAACl3tpbrVVIX+CizMXnjf3d+w9CKEAElI98Tvvuv0cRz+mkLcBaDGAYKRqTPyWVv42bldgtfXqLvQTi8854U/sTQihABJSeo47f/5BKvoFAK9KJiIp5C/atmJEJOTN9Q8glFz+ihHuilRbXQA/dFvOpxefPfdR9i6EUAAJKR3HXnT9nui6nwPw5s2PaQYQapH4ZbW1X8K9WoD/t2DyXy7m/EBCKICElII3fOnqZ40OtM6GyL8A6oQJi5H8xUgGAwjp56Cx2tpv+TNr8+hqq1wr0vmXBeeceD97HkIogIT0heHhYeeWaa84SYEvAniWqYiUXf4C/rWIt3O5l37JX3mEu/DpDesg+Ned7mt9ncvGEEIBJKRQjj7vmue1ndZ/uNCXZ7swMoDQ9MQvq62phfsmEfdEVgMJqTYOm4BUheMvuPbUluPcVk/5Q3b5S/ITLvdiKH+wI38GrZhV/pIcBxnkDwBe6rqtJYec+ePj2SsRUl1YASSl5+iv3zSjNbb+O1C8pXqPHGMAgdXW2gq3Arh45KnVZyz5zslj7KkIoQASYo3Xnn/DPup0f66K5zGAUEX5M2tzLvdSDeEO/Ciq10I7Jyy64J2PsccipDpwCJiUluMuvP4Y1+kuSCt/RjJWMflL+7ESz0FDsQEE09+pKvKX6KNVRP5CtxG8Eq32Hw/+xA9fyl6LEAogIdnk7yvXvR/QX0Ex3egiVOiQWEr5S7JN6QMIKGG1NYP8wa789U+485O/SOFWPFsh1xz88R8dw96LEAogIak4/sLrzoDKN6HaMrow1nq5Fwvyl0R8yh9AqF+1VatYbQ1CpijkVwef8aP3shcjhAJISCKOvWD+pxVyPlTFSP7iFc3o2pdG/tLaW3kDCIYbsdpaoPyZfsTSzG1tqch3X/aJH5/O3oyQcsMQCCkNx194/ckK/TYDCDHyZyAZjQkgcHFtlKLCHXCMq+DrN02556N8hBwh5YQVQFIS+bv2TQr9NwYQsstfoo9WEflLtA2rrcXKX8g2ovjQQWt3/zp7N0LKSYtNQPrNcRdeuy/g/BrQIQYQGEDg4trhPy1qeoPFauuBOx/8RueRRT+fz56OEAogIZs46iuLtm7BvQbQ7coXQICh/DGA0P8AAlhttSjc6eQvDHnFP73szc88suhni9njEVIeOARM+oeqDOjofwPYrQlDYknkrzyJX1QpgGAm3KYfrOLVVpRobqtAz3/ZGT9+Ozs9QsoDK4Ckbxy/xeGnAvhIw4bEkrw9ufz1M4CQSf5QjPwlFm6L8ldwtVXNPoFBmyNbm29EAH3dPx30pjseWfzzu9j7EdJ/mAImfeHYi27cTdzu7VCdaix/lXverKnl8XmzTPwmbPPqPspwnYoeetP57/gje0FC+guHgEl/7jzc7tcAW/Jn8oOKLvfSL/mLVzTDNqf81araikzyBwBToPKLl53xg+3YCxJCASQN4/gLrns9oMcxgMAAQv4BhH4Lt+FGFay2Iv30hl1cyKWHDV/XZm9ICAWQNIQ5l17aUsGXGUBgAKG66yuy2pq92iqv2LDm0WH2iIRQAElDWP/wdv8MxR4MIETslQEE47f2Z31Fy/LX1Gqr4lMvOf2/j2CvSEh/YAiEFMbsS24Z2HHNmnuhugsDCHHyxwBC8cJd5DN+cxLu6lVbV4yhtfeSC9/2OHtIQoqFFUBSGDs9s+atRvIXr2iGVRHKHwMIDZK/BOdUiaqtO7TR5ePiCKEAkjqj0I/VcEhsnQKrBLgfwMMAngy/AjKAUIIAQjrh5uLayOtpNgKccNAZP3wDe0hCioVDwKQQXnvetQd3HVmQTf5SXBjtDok9qtBrxMUN0nKWOu7I3b/51HFP+jeafcktA8964onnOSJ7uq6+WASvBPQAjC+8nm0OWg4BhMqtr9igamsJhLuIaqsAy91R2ePmi9++mr0lIcXAGD4phG5L3hN7kSrnkNgTgP7YVXz/qk8dtcTksy45+YAxAH8Z/+8XAPCqL139rLZ0TlDVdwFyQDr5M2zsWsuf6dfKamuVqq0K7CiDOgzgY+wtCSkGVgBJ7hx5/pVTB2RwOYDpmS+MxQ2JParA+YMbRr572fDx62y2x1Ff+u2hCnwWwBEMICSVv2KWe0nU5qy2wlK1tdMVfdEtF7zzDvaahOQPK4CkgINs4NVW5A9Z5Q8m8jei0HNHNgx8ef7w4RvyaI8rP/2aGwEcecTZV7zKgXxToS+ovPyZWUKEcGeQP1D+8hPujPKX5Ceq7ZbiAgCvYa9JSP4wBEJyRxwca0X+ch4SE8gS13X3u/KTR56Vl/x5+d1njr7Gme7uA8U5kYUTBhCQVwAhs3CjT4trZxLuMi6uvelPRx14xg9eyV6TEAogqTqqAnWONb2YFbXcS8BPv4Upowdf9emj/lJk81zxoWNGrvrXoz+lguMAPBFQFTFsZ8ONuNyLPflLKdxWqq2ZhDuD/CW5RUlZbRUXXwaU05MIyRmeZCRXjr3g2tmA3JK8KlLYkJgK8IkrPnnEBf1uq1d/+de7OW7rKgWel0z+DCtRXFzbwCOrmvit3eLax978lXdezh6UkPxgBZDk7oDJ5c/kB8mrFAEXRlcF7y2D/AHA1Z867n6ocziAv+aS+M0sInaqrdWWP5Q08ZtS/pJsU2i1VT7NrpMQCiCp9iF2VHL5K2ZITASnX3nmEf9Zpta66l+Perjl4ChAl1uVPwvCzeVeqiHc+VdbLchfbCvqwS8+/b9ezv6TEAogqSCzL7llAND9kxUhCpsPddEVZx7x1TK2228/dfTfIHoMgLVx7VRk4tfAjizKX18CCAUJd+meZlPKamtLWx9hL0oIBZBUkO2ffmYWgEmbuv7SBBD096u22urMMrfd7z5z7K2i8uHQyygDCJnlrz/LvZgdu6y2Aqru8S857Yf/xJ6UEAogqRgimJ1K/vINIKyGdt8y/rSOUnPVZ4/+ngL/m07+1Lzamlm4udwLq61JGt74jq3ttjv/wp6UEAogqRgqOKB0AQTF8G8/dfTfqtOGYx8G8FSyCygDCGVY7sVUEvMT7gzyB7vyl1a4BfIeDA/zOkUIBZBUCenN/yvNkJgu3TDSvrhKbXjNZ163EqrD3g/DAEJG+UsiPnks95JJ/jIId1WqrRObc+cXP/mcQ9ibEkIBJBVhzqWXtgDsU6ohMcXn5g8f3qlaW7a3kG9D9VFj+WMAIcZpqrzcSwbhNr/bMlPYooTbcU5kj0oIBZBUhA33b/VsaC8Akk3+LA2J/XX68576eRXb8ooPHTMiwIUMIJjrRnb5Y7XVmvxlXFxboG+cM+fSFntVQiiApAK4juyaugJhX/4gwDfmzZ3brWp7jnanfBehy8KUMYAQ/1Yu95JNuNPJX1mFO/Kn2zy0y4aD2KsSQgEkFUAdeU62C6PV+VCd0a5cWuX2nD98+BoAv0wvN0UHEDLOQTP9YDkGELLJn9lHKL7amr9w51FtVbd7HHtVQiiApBrsml7+LA+JCa665jOvXln9s1V/HPj5GhJAMHWeTPKnVVzuJf6tRSZ+kxw/5tVWOZpdKiEUQFIBRDdWAMswJCaQ39WhTSeP6XUARlPLHwMIGeXPdHcVq7YmSvz2rdq694Ef+P6z2LMSQgEk5WfXsgyJiej8OjToZcPHrwPwh6jGYQDBvwmXe6lJtVVkEFwOhhAKICk9gh0jOvPkZphI/iaw7sB1i26vTbuqLGYAwab8gcu92BTuPKutrh7KjpUQCiApOa5iq6Tyl9OQ2D3Dw8NufcS6+9d4+TN1BAYQuNxLTJuXqNqqwP7sWQmhAJKyewqwRZKKQI5DYvfU6oQV525bAQSji7BRm2eQP9iTv6THD5d7MWhzq/KHbNVWwb7sWQmhAJISM2f40kEAU0sxJKbyWK0at+M+ZnSFrWUAwWCTki73Usdqa67CHfzq1rM//INd2MMSQgEkJWVky623KsuQmEKfqZX/tfFMRMsYiU91AwhqT/4KXu6ljtXWRG1uqdradtw92MMSQgEkZZWUbm/4F30fEhPohjq1rdvprI3VJgYQMsqf6e5YbS262qrQ3djDEkIBJKW1FGcrkwtjGvlLPCSmGKpT0w4NTJ6cTv4YQKjdci9JFKs+1VYKICEUQFJWxHWnlGdITKbXqW07Y93pDCCkkT/Ub7kXU7usUbVVgeewhyWEAkhKigJtY/nLeUhMobV6eoC2dZvkF1AGEKqw3Et64S5jtTUn4XaxLXtYQiiApKS44gyklz+kl7+AeoEIdq9Z475gszZgAMGe/PVxuZf0wp1R/pL8xPb6ismrrRRAQiiApKy0NKgC2LchsRdAVerStqJ4QWr5YwAhg/yZ/o62nmbDamuI6W7DHpYQCiApKSoYMLwe5SJ/Pu2Z/urzrq7P0hHivoQBhASilXIOmpXlXjIJdwb5g13560+1NfgHApnKHpYQCiApq6OIOxB6WexDAMFR97A6tOvRX798CMBBJm3JAEK2xG+aY5PVVpvyF7ad1irVTwgFkNSNtrGdGV8YMwyJKY6oQ6OOPe0eCmByIudiACGx/OWX+E0pf0m2qX+1dQDDw7xuEUIBJKXERctADxLIX/xbo2oPAhx92PB1W1a9WVX1hPjrPwMIxSZ+taTrK1qQvyRCWmC19bC/7TrITpYQCiApo6iISMmGxCYNDY7MqXKbHvSVSycDeBMDCBblz0riN7n8pbU3VluTHAiEEAog6Y8Epuiz8w0g4INVTgNPXjP5XVDPI/YCPigDCMUmflltRX/XVySEUABJuXBTXFkLCCDsc9SXrjymiu0559JLWw5wejHyxwCCaeI34W1QRvljtVWpf4RQAElFKNuQmOBzwxWcQP7kX6a8VxXPTy9/SC9/SbapYADBVFjyE+4M8ge78lfm9RUpf4RQAEkN5a/AIbHZi4deelKVmvGo4d9urapnJ/yoke3JAEJoyxj9e7kKd1WqrVq2aishhAJIKmWFRQ+JqeLsI869aqeqtFhXxi5AyNMPil1fkQGEQhK/ptvYrrZaF24UWG0lhFAAScXlL/6tFobEtpau/njOpZe2yt5ir/78r+Yq8B6b8scAQlr5q3m1VetTbSWEUABJ5eSvqCExfcXqv874fJlb7FXD/zdTVb6bVKLykT8GEPr9NJvEbd7QxbUJIRRAUmYdLMGQmIp++qgv/vaDZWyfI4Z/uROkdTmAGekujP2rtiKl/FUmgNCvp9kkFW7r8lfGaishhAJIyqx76eUv5yExFf3qEV+84oQytdZhw7/ZoSvOlQB2TSd/GYTbQrXV1HkyyZ9WcbmXjMLNaishhAJIqip/ae0txwBCSwQ/OvLsKz5ahtY68gu/em5L3BsE2Cu9/DGAYLa7opd7ySjcph+s4tVWUP4IoQCS+slfSQMIAuArR3zp8ouP/vrlQ/1qrVd/7tdHdV35PYDdE3xUe/LHAEJK4S5A/hpUbU3z7HBCCAWQlIauRfkraEhM5YOdZ+TG13zhihcW2VJHf/3yoVd9/ldnK/RylGK5l9yFO4X8gcu92BTuGlVbCSEUQFJiKhNAUH1xV/S2I75w+ecP+sqlk/Nul1d/4devHn2qeztUPh12LlYygKC25Y/LvRSb+OVyL4Q0gTabgBQvf6UeEhuC4LPT1k07+cgv/OZbra585YrhY1ZbFb8vXnaIujhTVY9jAMGi/DVxuZckP6lRtZUQQgEkdZC/JNsUF0DYTkXO6rTxoSPPvvx/XMUPrv7M0TdDJNWV6FVn/3J7uM5boXiXuniRiQEwgFDGAALXV+x3tZUQQgEkdZG/cgcQtlLVU0Rxyqu/ePlK+cLl1ylwA9C9Sx33rms+87qV/jcc9JVLJ89YM/kFXTgvVNUDIfpKdGVfAA4DCAnkrwIBhD49zSYf4a5stZUQQgEkZVZCwwtjslJBwUNi2yv0rQDeCjgQ18Grv/AbF8DTgK6G6mRApmMNJnd7bxRg/P+BAQSb8me6u4ot92L8NJschBtVrLYSQiiApDx0Pc6TSP4qGUBwAN0KwFa+D80AQqo2r9lyL0kUy/b0hqZWWwkhRjAFTPpDn4bEklzkGUAwaHOr8of6LfdiapestlL+CKEAktqaXhr545BYwgsjAwjFBxCqWm1FhauthBAKIKmW/CVRLA6JJZQ/U7dkAKH49RUzyl+Sn6hNsypjtZUQQgEk1ZM/DomluDAygJBbtTWTcLPaWppqKyGEAkiq4YQMIJjKH9LLXxLFKnW1FYbyV4I5aI2qtprey+VcbSWEUABJVeTP9CLPAAIDCOFt3l/5Y7XVtM3TnHiUP0IogKSW8schMQYQchLuTPKH9PKXRLFYbU0h3IQQCiCpp/zBrvwxgGB0fTZvc+vyZ9jmrLamPUtSyl+Camtm4c5QbSWEUABJTeSPAYSc5I/VVlZbUdLpDZQ/QiiApAEeyCExBhBQvwBCnaqtfRRuyh8hFEBSL+tLeLWwIH9JxKdOQ2IMIKT+XuzJX8WrrRV7mg0hhAJISu2BHBIrfkisXtVWU2HJT7gzyF+SWxTb1VbUt9pKCKEAklLLn+kPGUCwFUDQGlZb80n8NqDaqlWstma5YSOEUABJSeSPAQQGEMBqq61qq3XhRkXXVySEUABJ6RXQdBsGEKIujAwglCaA0M9qaxOfZpNqqJ0QQgEkJfZCBhAYQDBt8/IFEFhtTSJ/thK/lD9CKICkVvLHAEKyazwDCPbkj9XWLMKds/yZCjchhAJIqiB/sCN/ScSnqUNiDCAUK9ystlr5XhIJNyGEAkiqIn8cEitkSIwBhBTyZ2sOmolwV7faisKrrVRAQiiApL7yl+QnHBJjACGRcBcgf4mF26L8FVxt1WQnfaJTlvJHCAWQNE3+OCSWg/wVLdyGG9W22mpRuFltpfwRQgEkNTPBVPLHAILR9dmacLPaalm4WW01fjPljxAKIKmF89V/SCyNADOAkEX+ShJAYLU1F+FOU20lhFAASRlwk8ofh8QYQDD9CCUJIOQi3Ky2KuWPEAogqRccEstR/hhASCHcyNbmFuVPExw/rLYSQiiApDLKxyGxhPKXZBsGEFLIX4XXVwSrrYQQCiApLV2D6zQDCAwgmItPaQIIpX6aTXOqrYQQCiApMQwgpPiADCCklL/+BRBYbU3Y5nlUWwkhFEBSdiNkAIEBhCTCnflLS9DmZay2gtVWyh8hFEBSMddLeCHhkJi51tqSvzoGEPq6vqJ1+TM/F7ILdwWrrYQQCiApD90Ud/IcEjOUPwYQcpK/iq+vmFn+KlhtJYRQAEmJYQDB+M0MIBjpQULhziB/SW5RbE9vYLWV8kcIBZDUyAIzyh8YQIh7mdXW6Dez2prypCpZtZUQkpk2m4DYpuXgb6oyDwAgbvxlxU3ikRJzQRjfmWz+Ewm6pLhRexKDa6Qb9Q9Fv9n1v00MLoxu9K8uhvLnhjRSyFVeTORA4lpGgptDdH8onsdqazbhtlJtzSTcGeQvwy0KISQdwiYghPSTQz71P9+E4hSur5jT9IZMFe7+VluD2nyLdQOT5//XezbwzCEkGxwCJoT0HS73gpJOb0gpf0m2sfgoQ0IIBZAQUnkTjP5BHZd7afbTbEzkjxZICAWQENJYK2zsci+Ve5pNMdVWQggFkBBSH89D7Zd7KTjxW8fFtQkhFEBCSCPlr8LLvRS8vmKaL6IS1VZCCAWQEFIxDJcBKkcAof/LvZhKon+bMi/3AsofIRRAQgipWgAhn8W1K/I0m5yWeyGEUAAJIQ2Wv7T2xuVekshfBuE23cZitZUQQgEkhNRc/rjcS1r543IvhBAKICGkFvIX/1Yu9xIgZLkv91KwcBNCKICEkCbJX8Y5aKYqUfHlXlD4ci/5CzfljxAKICGk7jpY8gBC2Zd7UbNPYNDm5ZA/WiAhFEBCSP10L538JdnG9nIvSX6nyi73UtVqKyGEAkgIqZYKVmW5F+VyL+WsthJCKICEkDoooYH8mb696MSv4Ua1Xe7FonBT/gihABJCaqp6VQggcLmX8q6vSAhJRJtNkB9v+NLVzxppt3ZWcXcWyGRVd0tVtAUyXYFJAp0M6FRABg26/3jc0L8Ybeem+IxuLp20G/jLaNiHcLP+e749a9p2MGlzN8F3GPfb2qpEuYavusk/gmuiOHqIqiT+LGnmoHG5lxQfsArV1qRn/MrT3wjFUfW7i5I1cNwxqHQh+DtcfQKCv0PwOJz237DNectFWE4lFEArHH/+lc/t6sD+4riztOvsAtGdAewMYNcRYArgQhTQ8SuhyMZO7R+XO4nuEPNYBFc2/0vaO3TJoypiNCQmAZ8n9LKYe1VEjKsiEv3Vis0Lo+0AghgFECTwWAv/h4LlL585aGm8iMu9GHyyyiV+9UBATqrdBUkUUG/f6PlztwusPH1EV+AhAHcB8mcobker+0fZ7qJ7eTWnAJJweZFjvnLN7uK29lfo/qLYXwX7d6FbQRTqysaTz+Idel87adt36BwSQ7FDYjULICRRLNuJXy73Umi1laGPXBkCsPvG//S1EACuA11x+kpAFwHODWi5l8u2X/krm4oC2GiOO+/63eF0XqUqh+OC6w5XONv2ulwV8046za0un4CQRf44JFa7AIKpXfYtgNDg5V76Vm0lFtkekDcA+gZ05SJdcfq9AC4D5H9lhwtuZvNQAGvP8PCws2TaK17WhR7vKF6n6L4QoXOTuCYXh8SKFm5WW1ltTSLcSN/mGeUv/2oryZnnA/gooB/VFaffA9Ufo9v+d/mn8x5h01AAa8XxX7l2lqvyjj+ovANwd5KAfpprcqWUPw6JZZa/RNdEVlvBaqs94eZyLwTQ3SE4C+3OZ3TlR/8PLr4hO150PduFAlhZXvvVq7fvjrXeDcH7XBfP3/iqyzW5OCQGBhBMf0cGEKpQbU0v3FzuhehEX1B5M4A367KPLoKDc7D9Rb9mqpgCWBmOueCalwuc07odvA6CgbJ00hwSM2jzTPKH9PKXRLEYQEgh3BnkL8ktiu3pDRWptmoeKwkkui2k/FVc/DY/mAQvg+JXWPHRm3SlnC7bf2UR24wCWEoOG76uPXUq3gzgdAAHlLGTTid/Je2kOSRmR/6SHCustmY+JitTbc0k3E1b7oVYkb/w7/KlcN0FuvyjP4U6H5edLnyQ7Vcdav0kkOHhYefYC+fPmToNd0LwE0ha+UvRSTOAkLjH55BYeuFmtdWCcFuttsKwXylauDP0K7DbrzD0UUbx04TfpQIbFwidA+neqcs/fKbqnBbbkgLYR/FT5/gL5r9jybRX/BWql2LjukcZ7tA5JGZd/jgkZkn+zIUlu3Cz2pp1ekOaGxNWW0kx8hfWv6ipLE4BcA5W7LhIH/nYC9imFMDCOe7Ca191y/T5tyj0By7wvLTHff/u0Dkklti6GEBIvDNWW9MKt+FGhQp3yn4lyTZc7qVZ8qdR50Tc63IgWt1bddmHPsy2LTe1mQN49HnXPK/dbn9N1T2WQ2IMIDCAYNrmrLb251GGtuSv6DCZhX4l0V0OKVT8Ys8HQylUTAbkq7rswy8B1r9PdvrOOrY3BdA6sy+5ZWDHZ9aeCtGzVXUqAwhFd9IMIDCAYFv+WG1ltZUULn/xc/3S7OcEYNJMXfHBN8gO33iA7V4uKj0EfMz5175kxzVrboPoVwFMZSfdh046D+HOJH+mN7QMIDCAYCqJxQo3q60kX/HLSf40dD/7wnVu1hUffgnbnwKYmdmX3DJw3IXXDTuOsxDAnnY7aQ6JcUgsiflbkL8k4sMAQuaP1b9qa5HPDudyL8T0mEgU9Ah+Pfb81G3hutfqig8cx++BApia111ww8yd1qxZAshZAFr2O+nE1tXMTprVVjCAgPTyl2SbClZbTfuf/IQ7Q78Cu/0KQx8llb9MQQ+/CxrJ4hS4zi902Qffxu+DApiY4y68/p1dcX+vwN7JOukcAwgcEstduFltrYZw1yuAULOn2XC5lwaLn4YcOEmqflGdeSKJbAP4gS4/7d38bvpPJUIghw1fN2n6NHxboe+qzx06h8Q4JGbah1djekO+8sdqa7HPDrdUbU10oBP78pekb9Kc97PpZy2ofk+XfbAjO33jh/ye+kfpK4DHfeWaZ0+bLteryLsK6aT7dYfez06aAYQSD4mx2spqa0b562e1laGPPolf4UEPg/2o948OFP+ly059I78vCmAgr73o2oOhrSUADkzdSXNNLkt36Awg9KXaqqy2ZhXuJDds9a62llS4iWX5Czuucw96INlBqC2o/FAf/eDB/N4ogBM4/oLrXu+6zu8AbF/FO/T0nTSHxFhtTSLcYADBpnCjztXW/IWb8lcy+Ss+6BH8uvr7yE1/mQzoz/TRU3fm90cBBAAce8H801TkZxsPjrzu0MvaSZfwDp1DYnbkL4n4MICQ+YakGdXWjMLN5V5qIn6lCnpE9PWB228P4Je67KQp/C4bLoDHXzj/8yL4evDvxgACh8TSfy/p5Y/V1noHEBocJjP9YFzupcTyF+R3GeboTfhrRolU038bL4LbvoTfZ4MF8NgLr/uiAp+13UkzgJCyk2a1Fay2ZpS/0gcQWG01F27KX7nEL8egB9LuJ3bIN/wzCN6uyz7wIX63TRNAVTnuwusvFshn8uik01QpOCRW1WprRuFmtdXK91Id4TbcqLbVVovCTfkrUP7C+o/SBT0S7se9QJd94OX8jhskgMd95fpzAP0gO+msd+gMIFR3SIwBhMIDCKy2ovDpDcS+/JU/6GH+OykG4Lrf11X/PJ3fdQME8NgL538WwCfYSZflDp1DYsUPiTU0gJDkKGW1NaFwZ5S/JD+h/BUkfpUOesRL5D9+/ByMDF3A77zmAnjchdd/QIDPN7OTZgCBAYQkwo2GP82mutVW1LDamvyugGSTvyBnqlzQI0Gfpf+iD59yNL/7mgrgcRdefwygXy1LJ80AAlhtjXuZAYTc5a+O1VY1+wTpvKrvYTKSr/jVLOgR1K8Fn/QC0X/XB0/ZisdBzQTw+Itu2B/Q/0Xos4i5JheHxNJ/L9URbsONGEBIqzIphRsNr7baFG6SXv7C+umqBz00pF/b7HfdCS29iMdCjQTwtecu2Amu+2sA09hJp/xgDCAklD8GEBhAqFm1NcnZ27cwGbEmf3UKekQffP7X36WPnHQ4j4kaCODsS24ZcNud/1Fgx0Z00hwSs1Y9YgAhi/yx2lq7aqtpx8XlXiomfo0JeiT4DHKR6pwWj4+KC+BOa9Z8DcChjemkTbfhkFgK+eP6iomtq3YBhByEO3O/wmeHk7TyF+RMtQ56mErkvnh06/fyGKmwAB53wfUnKnBKlTtpDokZtHkm+UNf5a8c6ysygFDOp9nkW22tVZiMJBS/xgY9ElxP9Qt630lb8HipoAAee9GNu0H0m1XvpNPJX0k7aVZb7chfkt+J1dbMx2Rlqq2ZhLvC1VaSUP7CroeNCXrEv77xBNkOg/g0j5mKCeBhw9e1pdv9IYAZpeukm7omF6utYLXV9PCpagCBzw4vvNpKsslfc4Mepv3hh/Whk57HY6dCAjh9uvw/CA5K30lzSMzqmlystoLVVnvCjRo+zaa/8sflXuovfgx6xHcSgefmEOB+lsdQRQTwuAuv3RfAJ23fobOTzlAVAautWYXbXOrAAEJcm1flaTaZ+hWk71eSbMPlXiogf0HOxKDHxPMy4jOIvF0fPnl3HkslF8DDhq9rA63vKTBg+w6dQ2Ip5Y/V1szyxwBCMu8v7dNsKlhtVS73UmHxY9Aj/mBVk8JMC3A/zmOq5AI4bbp8HNDZhd2hc0gso/yZ7o7VVgYQkp8LrLam+IBc7qUm8hd2rDLo8Y/rU6J/+9267L278tgqqQC+7sLrdwbwmap20vUKIIDVVgYQwGqrXeFmtZWkkj8GPQwvTpGfYQBdYRWwrALYhX4NwNT8OmkGEJIOiVmVP1ZbLchfggBCZuFmtbWcT7Phci/1FT8GPeKPczXurwJef58+9M878VgrmQAe85XrXgPgDfl20gmtiwGExDvjkFha4TbcqFDhTil/SbZhtTWFcGfoV2C3X2How6b8BTkTgx4Tz9mMIgwMQZzTeLyVSADnXHppy1G5IF0nzQACAwhJhDuj/CX5SSnXV2QAoZzV1gzCzeVeKi5+DHrEdwppqn4h1VTV9+kD757EY68kArj+4e3+GcAsW3fo5ncged2hc0gshXUVIH8Vr7ZaEe7MX1oO8sdqa7FPs7FUbU10oJNEssOgh+c8zCjCm3a/6fVt4LTm8PgrgQDO+cqiyQA+W0gn3a879CSKxSGxFMKdQf6SXNYYQEgo3BnlL8lP+DSb4qutDH3YlT8GPYyu74k/W5BQC07lMVgCAVzvjp4GYOdUnTQDCJbu0BlAYADBtvyx2lpsmIzLvVRH/Bj0iD+2MwU9TIT6pfrg+2bzeOyjAB55/pVTITi9anfoteukGUCwI9wFVFvN77bzEu4M8pfkFsV6AIHVVi73Ugb5SyQpZgLW6KBHhjmU4p7CY7KPAjjQmvR+ANvZv0NnJ80hsXoGEEo3vaEq1VatYrU1o3BzuZcSiV9dgx5hVb8Uv5ONqt+mE8noM5ygD7x7Sx6ffRDAw4avmySqH8vnDp1DYtblj0NiloTbcCMGEAoWbtQvTGb6wbjcS87yl0lSwl+PrPoZilNuVb++Bz1M9jMFjjOXx2gfBHD6dOddAHbK2kkzgJCyk2a1Fay2ZpS/0gcQWG01F27KXyHyZz3ogXQS2YSgh8m/Le6JPE6LFkBVUeiHbXTSaaoUDCCw2spqa8bqkW3hZrXVzveSl3BT/hKKH4Me8Qdk7kEPg/aWQ/Vv73suj9kCBfCYi+YfBWDP8nbSKeUvVSfNAEI/q61IKX8MIFgWbuvyx2orE7/9kr+kkmIgLwx6JOynjYVa4HRO4HFboAA6kA+xk+7HHTqHxIofEmMAgdXWjDcmTPxWRPwY9Ig/lgsPeoS/3vurytt5/BYkgMeff/1zoTiKAYQ+3KEzgFBS4QYDCDaFG8VVW+v97HDKX6aOlUEPX1/Yl6AH4hfL1j31b+98EY/jAgTQddz3AuoU2UkzgABWW+NeZgDBnvw1qNpa72eHk1Tyx6CHUR9XWNDDpJ93WgyD5C2Ahw1f1xbg3RwS45BY7YfEGECwJ9ystqKcYbKmix+DHvEnfhmCHv6DO+jfcN/EYzpnAZw2Q46G4tkcEst2+80AQrHCzWpr6BmVrs1ZbTV+c3mfHd50+UsqKQbywqBHwr7ZZjUVz9GH3703j+0cBVBdvJ1DYiadtEX5a2K1NUkdidXWhMKdUf6S/KSp1dbSPzuc5CIpqYWNQY/Q15O0axev58GckwAeef6VUwV6bG06adNtGEBIIX9FDokxgNCY9RUz9yt8djjJS1IY9Ji4e9tBD4PPIPo6HtA5CeAQBl6nwNSydtIMIBi0eSb5Q1/ljwGEhNf4Rj3NJt9qa63CZCQnSUE6iWTQAxarqfvro+/ZmQd3DgLoOjK3zJ10OvkraSfNAII94Wa1FeUMILDaWni1teI8Mv0ZG59UGPQIOMirEPSI/2yCbvd46p1lATx++LIpgBzBTjp5J80AQqj2pGtzVluN31zeAAKrrYVXW2vAvRefNpp5J10dSi5sDHpEvl5c0CP6d9r4Rw4D2xbA7tSpR0B1CjvpnO/QGUAAq632hJvVVtM253IvFWAUkOwfVjCUSVJSCxuDHqGv26ymKl6uD8+ZTMWzKIDiyPHspPPupDkkxgCCTeFu0NNsMvUrSN+vIHu/wuVekgigFYbSSwqDHhN334egR6RQA4BOgjt0CBXPlgCqChTHsJPOs5PmkBgDCLaFO6P8JfmJ7ekNrLamPUtqiwJrrOxIZDC9pMCCpDDoYXaspxHqTe10BBUvmrbphsecP39fONiRnXRenTSHxBpVbc0k3Ky2stqKRiZ+BXjCjknqFuUMetgQv6jj1VLVD/3aT5J2lVdT8aIxrgA6LX1lmTrpegUQwABCKautMJS/ooU7g/wluUUpbbXV9F6O1db6oY/b2Y+7TXDrMugR+Xq5gh5xn2E/vec921LzLAggVA5P1kkzgJB0SMyq/LHaakH+lNVWW/Jntdpa5NNsuNxLqRD5u6UdbWt2l8egx8STo0RBj/jtBe3RV1LzMgrgYcPXtRXyctt36AwggENicW3OAIKd7yWiLVltTXb4cLmXPuLiIUt72iZaUhj0mLj7UgY94v9t4TBwFEZzAKfNcPdX15nBAILlTpoBBDCAELDnqjzNpl/V1szCzeVeqoo6+mDmfdxz2hCAGf2rTsXsy0a1DjarfkjfHoW2a+Drr6LmhWNUAVTXOdS8s+KQGAMIpsbBaiurrf0Q7pT9SpJtuNxLLog6D2TeydTB5wIq/ZOUmCFfo+1jpK0eT/TIKn8A9Ll671v5WLgsAgjIyxhAsNlJc0iMAQTbwp1R/pL8hE+zKWm1tf50W7gvu0WO7ba5gzDoYdb3li7ogdgqaMs5mGdOJgF0X8YAAofEWG01F+401aPGVlsrFybjci99YsxdudXd2Xcju5l9Bwx6pJLIUiyb42kPFS4IHULsHMDjzrt+d0V3h37dodeuk+aQmB3hLqDaan6nnpdwZ5C/JLco1gMIrLZyuZdcuHvpvLnZnwQi2A1u3LdZxqpf0kJBwWv7WRc/S+0qcihPnWBiK4Buyz2YAQRb8scAghX5SyI+pVtfsQHVVq1itTWjcHO5l9xRyB1WduRir74/0cNG1S/3J3ok+Gx5PtEjyWcLTAq7e+nDc7bmGZRCAMXVQ7LeoXNIDAwgxLU5q612vpeItuTTbHIUbtMPxuVeUiPAzZZUch97kpJCwDIv74KCgh6Gn638cygddAdeyjMohQACODjrHToDCBwSYwAhYM9VqbZqVautGYTbQrU10ZO7KH8G3527KPM+Hjt1BwDbpxKw0gz5MuixWX8S167KYeAgIucAHn/Bddu4qi/MUj3ikBgDCAwgZKwesdqaUv4yCLf53VZC+WPiNyXrO08869bMe+kM7DuxfftVnUqxLxuLOtvaT9WejywugyABRFYAXdGXAZB8O+mU8tfPTprLvTCAkFH+WG3NItw5y1/pq63NQ4DFVgIgwOxySAqf6BG9vUX523gRfrE+8O5JPJMSCKCoHMROOu0dehmXe8kg3AwgWLsxqVUAodbV1pIKdwNR0Sst7elQBj1M9hN1wpZgsWxN/BmGoBtezDMpgQBC9UAOiaWtihhuxCGxgoUbDCDYFG4UV22t47PDKX9mSFcyC6DqnBagBxUmKVmErXdMlCHoUZvFsoVBEFMBHB4edtwJ5XLT6z+HxDgkBnvyxwACyhlAKL7aWsdnhyc5fhrM8j9dcvLt2fey434AtoiVnUIlJezcKlHQI3VbFBz0iHvd0QN5Kk0kNARy87RD9hD1niwMIFiXvyYGEHIRbsONaltttSjcrLainNMbmouI/AwQG430CrNqAoMe2eWvbEINQPESnk0+Jw496dzWgf3rpMtzh84AQlLvL3hIjNVWFDu9oWbV1iRnb9/CZE03QJ1naT/HFCspDHpEb1+g/G1kZ33orTvxhDIQQDh6QGk6aQYQrFWPGEDIIn8MINSu2lr6Z4c3GwVWPP+xrRdm3s9jp06D4hAGPQzkL4sIJxJq60GPzdvD/6OucBjYSAAVL2EAwab8me6OAQQGEIoWblZbSxsmazgC/HDevLndzDvqtI8AdMi6pGQRtjBJSSpgDHoEXI9DPwMFME4Aj/765UOA7l3dTtqS/DGAAAYQYo+8hMKNbG1uUf4SjUCy2gou99IHAXTxn3Z21D2uf5KCpJJi/jqDHsmEWimAsQKIsckvAjDETjr9r55J/hhAsCDcYADBpnCD1daswp3kho0AECz+0yXvvzPrbnTp8CBUXp9NUrQ4SUmyH2SUyFIEPbTIOZQHqg47PLkiBFC63dl5yV+t1uTikBgYQEB6+UuiWKV+mg2rrXanN5CN/odvW9nRlo+/Boqts0kKGPTwv17OoEfcZ5iOh5buwbMrQgAhzosYQLAofxwSsyTchhsxgJBWZVIKN1htpfzZ1r9lo6u2/h9LO3tLJklh0COm3yxZ0CPud3LBYeBIAVTdrxKdtGkvzCGxhPJXceHOLH/pqq3phbu8T7NhtdWCcFP+UqDfsPHsX33s1GkAXsugB5oU9Ij5t+VFPL82stlC0IcNX9cG3Fl96aRzDSBwSCyT/CWpI9keEqtItbWOT7OxKn+sthIzVo+Nti+xsqeOvBXQaflLSpI7KE1x8PUz6GFD/Gy2R+Zh9P14ioUI4NSp2EMVk/rSSZtuwyGxFPLHAEIK6ypA/lhtZbWVTGg70a8t/d77/m5lZy5OgmQVv75Iir391O2JHtnbYz9ViAjvzAKGgLv72eqkGUAwuDBmkj/T/oIBBD7NxlQSWW3lci99ZXVnZOCrVkTykdP2heDF2SWFQY/o7fspf6nmUM7Ag3Oew1MtQABdlX1tddLp5K+knTQDCHbkL8mxwmpr5mOS1VaDT8blXkqDABdaq/457imJ5IJBD9Qm6BEn1B0OAwcKoED2S25nHBLjkJh94Wa11YJwW622wlD+WG2lAabi0e7UKRfa2JGueP92ULzTWFKyCFtekmK8HwY94m++fa/L5oWuJtIOaK39DPWgGZ00h8TAAELAnhtZbVXzamtm4eZyL01DVD91+wXvXGtlZ277g4BOZtAj4X7qE/SI3o+4+/GM8wngURfdsCPGxrZhJ51ES7ncC6utpm1e3mpr+YQ7Zb+SZBsu91Ii+8PiP22/8kc2dqXLTpoC9Q//xolfCSWFQY+M7RH5b1AA4RsCltHOzKI7aQYQjPQgoXBnkL8kdaTSVltNr/+stvJpNrDTryS6yyE+OoBzKoaHXUt1jX8BsE0ySWHQI3r7fsqfrTmUE/7tXfTBt21FAfT+Rdw9OCRmKn+mu+OQWPHVVjPhTvPlNrbaWrmn2XC5l6qgohfc+s2TbrWyrxVnTIXik6FywaAHGhP0iP4MAndsHwqgt0VE9uCQGGo7JMYAQh7CnUH+ktyisNqaULgz9ivIoV8hAchdU4bWf97a7tx1pwHYIVBSsghbYZJiIC8MeiTsH0Ned909m372tSce37pH4ztp0wsjAwhpVSal/DGAYE3+WG0Fl3spBR2IvGvxRR9bb2Nnet9JW0BxRjZJSdL3NDHoUas5lHtQACc2yx6N7qQZQACrrab9S1UDCFVeXzFDv5Lkg3G5l6L4f7d+86Q/WNvb5PbHoXgWgx5Fy19Jgx7xrze+ArhpCPi15y6YDuDZZeykOSRmQ7gzyl+SnzCAUNIAQs2eZpPrs8Mpf3miimt2f3zr86ztb8UHnwvF6fkHPVIMTTLoYSB/uQQ94tq18RXATQI42tqwBwDhkFhW+eOQmHX5YwDBknAbblSV6Q3md1sJ5Y+J3zwR4GFnYPCEefPmdq3ttOteCOik/IMeCeSFQY/N26PYoEf46xuvZzvr0jnTKIAAnK7swSGxZL8+AwhlEO785I/V1izCnbP89bPaytBHFkYE7tw/XfzPq2ztUB95/ysBfQODHlnkz7wPzj/oochpyNfXrhAMjb2QArixE929Vp10ZQMIGYS7KtVWrWK1NaNws9pq74aRid+qogq874/fOvUmazu857QhiHzDTtWvRJKSWtiSDPkmrfql+J1ULc7FzPj9BLWrtho9D9AbAtktv06aQ2IcEksi3ChhACGjcJt+sIpXW+v4NBvKnyVZA75w27fe/0OrO53c+VeofzJ/1YMemqL/YNAjlVCL2+h5gJ51AOU5+XXSJbxD55CYPflTBhDKGUBo6NNsuNxLGfXv+7d96+Rhq3t8+IN7A/hEqmrQpvOjjEEPJPsMDHqkkz8AUKEAjrfEblW9Q0/cSTOAAFZbMwq36TastqaQvyKrrTaFmwQjv9py+5XvA8RaI6oOtyHdfwcwaF9SEsgLgx6bt0e5gh7R20vY1Ldm0AaAw4avmwR0dyjsDj3JZY0BhITCnVH+kvyE1VZWWxMJdwHy17cwGQlpxau3XD/0lvnDwx2ru31k5WchODC5NKGAodq8xS+t/CW5uWvMYtnPbfLZ6QDA4ODocwBIvzvp/O/QGUBgtTVj9agSwg3jcyG7cJex2mpRuCl/6dUP+O3kSetfO/+/3rPB6n4fff/BEHyGQQ8w6JG9XafrXW94VlPP0TYAtJz2c4Mak0NiyYQl+YWRAQQGEGzLH6uthU9vIEH8Zqv1Q2+e/63325W/+07aAio/BLSVXC5sSUrG/TDoUS6hHsBzADzRxJPUAQAVfS6HxFJURTLJn2nfwgBCpQIISW5RWG1NKNwZ5Q+2+xUS0orfb3XlDdYrfwrBkPPvgD4nUZWIQY8C5a+EQY/YtpDdmnqmtgFAxN0VKvXtpDkkZk+4WW1Faac3gNXWQoWbBDXd52/71vuHbQY+NrHs/R8H8GY7kpKkw8w4R8+GpEQc6/mIn832yKnql3o/m7Xrc5p6vjoAIHB2qkonzSGxUO1J1+astuYuf+V4mg2rrXanNxBf220A5N23fev9Z+Uhf/rIqYdDcbZZtQl8okcm+avcEz3SfT+9P4o2VgDbG88V3TG3TpoBhBS/PKutrLbalD/T3bHaSvlLxaPqyJtu+7eTb85FLpe//znouv+LCQ8uqF0atUDxS9MeZZtDabNd3cYmgXvrAG6fWydt2gszgJBQ/ooU7vpUW9MLd3nXV6xNtTXJ2cvlXsqB4Heu6v635yV/T5w2A138CsC2RnJRqjRqxvltuVX9bCyWnULarM6hTPn9BK516H8IRvMEcEcGEEIVLXlVJLX8mfYJRQ+JWZa/PlZb67i+olX562e11dQuudxLGehA9HO3brfiNbd/+5THcpG/W04awPqxnwPYO52kMOiRSYTrFPQI7F82vbBrU0/i9uxLbhnQJ5/c2mrlpK+dNIfEGECwLX8Vn96QWf5YbSUTWCou3v2nS065Ja9/QBWCR53vAHhVeklJcvwx6JGtPUof9Ih6zxS95+gZsvsVq5t2IjvPWvXEDthsEWgGEDgkZlO4WW21Or2B1VZwuZe+0BHg3DXt0dl/uuT9t+T6Lz1y8rkA3s2gR17y17CgR9xncCbt0MQTut0ekO1dkwOPAYSU8lfnITFWWxtVbc0k3FzupeJc56p+6PZvn3JH3v+QPvr+s6D4OIMeWcQvTXvUOegRs73b2RHAXxsngB1xdnA2fWEMIHBIDKy2ppS/clRbYSh/RQt3hn4FdvsVhj4S8ZCqfvy2b59yaRH/mD7y/o9CMcwnemSRv4Y+0SO+I456ffsmntyO03W3KXcnbVn+OCRmQf7Aamvcy32rtqp5tTWzcHO5lxrzuAKfnDxp3R6Fyd+jJ58B6IUMepRB/moX9Ih+XWXHJp7kbTjOjNAvj0NiKe2MAQRWW5sg3CnlL8k2XO6lWAQrxZWvjjqdbyz95gfWFPXP6sOnnAl1z0kuKUnOcwY9srVHpYMe0a+L28gKYFuBLYQBBDCAYCqJrLb2a7kXNTgXipO/ij47nPIXxj2qeuFW6yd93/YzfGMObcGyk78Mdc8staSkFr9+yh/nUBp/P02tAIq6W2YouzCAkEr+WG1NYV0FyB+rray2NoouoNcBznd2f3yrn8+bN7db5D+uOtzGsuXfhOJfKClpxC9NezQ46BHVroKmVgB1ukSsAtOoIbFM8md6jjCAwACCqSQWK9ystjYCBXSxQP5nbKx16R3//i8rAeDWon+JJ06bgUeX/xTAEfnJBYMe8ULdh3btX9AjvF21oQIokC0q10nXeEiMAQTb8sdqq6lwp7nr4nIvlTC+DQLcAMHlIp3/+9O/ffDBvv4+y07aBetHLgNkH7P+I6GAVarq10/5s1X1K2O7Jq6mbtFIAZzwwTkkltLNGEBgAMGgzQuotibo8HIS7gzyB7v9SoNDHyMA/qCiC6QrN+r0KdffdsE715ZCRpedcihcdx42W3aDQY/04mezPWoc9Ihu1y2bLYAMIERfFhlAKK1w1yuAULP1FbncS96i96AC9zvAnSr6Z1ec29c5I0vvvfhDI2X7ZfWRk0+C634DwEApJcWG+BUufwx6GEtkdHs0tgI4nQEEe9WjxgYQ+ijc+cqfcbW1A+AJgTyuoo+LYhWAv7sbf/6MqnbM2txko417NXyA46bNw/6xCbuRsG3/8QPXTfCPiP+PEvM7uvF7ldhfduNP1K16/7zOBUYE4gJ4GsAaVfcJbTmrpOuuvG2HlcsxPFz6D6lPnDYD60a/DeAESgqDHuVo181eaOttR06Vfa9aiwbR3uxujAEEcEiseOGuSrVVgOUK3AbF7Qq5T6Rzf7fbvn/qFjs9NH/48A4IIf84bx46+QCsH/kJRJ6fj1ww6BEv1H1o1zIGPeK2H5q0BYCGCaBiMHlVxIL8JREfBhAyf6yyr6+Y2OxRSLV1LQQ3qcqNorjJ7citN33tbSt5WSck5mzVOS08stXHIfg8IAPx/XSDgx42qn6cQ5lBqMd/5nS3ALCsWQI4XgFkAMFU/kzPGQYQKlhtdVXwe6j+uuXimg1r1i5Z8p2Tx3g5JySB/D186vOxrPs9CF5OScm76gcGPWy1q7iNmwfYBjDIAEKSmzkGEGoWQBgB5HJA/689MHDFjV+eu4qXcEJSiJ8Ot/HI8tMh3c9BMVRKSWHQo7ztmn/QI+Z1p3kCqMAgAwiVDyBYEm7DjaqyvmL4Ni6AxQDmjbryoyUXvu1xXr4JySB/D//LK/Do8osh2DsfSan1GnRg0KMMQu1Ob5wAAjqQ5OLJAELUucPlXspdbdUVqvJ9R/GtRRee+CAIIdnE76EP7gRn9BxA3g5/LJtBjxwkpc5Bj34vli2DDRRADMQYRILCiiX5q2QAwfRYZ7W12GorAMENovL1kafX/Ipz+gixIH5PnDYD68Y+Bhk7A5CpZpLCoEc+8sc5lJm+n157CBopgG1T+SvPHDSUMICQMfFr+sEqXm1FcdVWV4FfOuKet/C8t9/ESzYhFsRv6ZxBbLHNu7F+9POQoOenUlLSS0oFgh6a4TOUvprazApgd4IE5hFAUAYQ7CZ+LcpfwdVWNfsEZn1f8FtdAD8R6X5h0XnvuJuXbEIsiN+Kd0zF2JT3QXAG4P5TPSWFQY9yC3XONxjqNlIAO5sEkAGE6D1XYbmXJL9TzaqtAlztduUTi79ywp94ySbEgvhtfIrHe9CVT0J0h8IvypWTFAY9im1Xm3MopbECyACCTfnr53Ivjay2yk0i3Y9yqJcQS+K37JTZcN2TsL5zIkSmhvYrDHoULCkMethv100hwYYOATOAkOKXr3Li13CjkldbBVih0LMWTf3rv1fhmaiElFr6HvjIlmhvmAMHJ8HVAzaGet2UF9MGSgqDHn0W6qzt0cgKoI79I73PAEKfHjmWWrgbWm3tqujXu+t0+OaL376al25C0krfuydhYOg4iLwNuuEYAENGF35KSkpJYdCj2HZNcKxqE1PAKt2Yy7uRG6aSv/oFEIy11ob8JfluEstfaautci/Efe/ic0+8gZdvQlJI34r3b4euHAvVYwEcCWC6cQWMQY/+SkpsYYFBj/THavMGkdoKdCSueRhAMOjQDOWvn+srotLV1g5Ez9li3ZZfvOLiY0Z4GSfEUPg2BjkOgeO8HIrD0cEBgDr9kRQGPawLtVUxL2O7FjSHUqTTOAEUYKzYxC+Xe7GW+G1ItVUhD4irJy664MTFvJwTEnFWrThjKjrr9wG6+wGyH6AHYH1nX4jTSh2SYNCjPJKSR7s2KugR8bqgeQII6NoEipdR/sDlXuJeZrV1ovqJzHPEPXnBeSc+ycs7abTcLR0exPTHt4F0t4HT3g7S2Q6QXaDYDZDnAbobuut2gagDyKbH4BR3MW2ApDDo0WehzvFGxZXGPSWqDWB19HXaZCySy71oil+E1dbINt8A4NSF557wn6W+KOtwG6uefg60vRvQfS4UuwKyPYBtAGwD0UlQ2ZL6UppvLOLlvCXFYI6RdxPRGQBaAIYATAFWbSpVAF1Ag+SOktJ/SWHQo9h2tXWj4jaxAog1aeXPeAQyqfxxuRcL8ocqV1sfUeibFp934u9LJnsOVq6ZCXEPheJFgPMirHxmL8CZtPHKLQFvEjpX6eWvqPlTEt+RCCXFqvhVVlIY9Cjs3O3tp5FDwIrVkATf22bHIZd7KWK5l2RSh0pUW4N/bZ3fbrfn3vjluatKoQzLTt8VgmMhOAornzkEwNb/kDoFqbD8lfJiWgdJYdAjN0kp5EalH+1agjmU0sQhYAfPTGgXBhCM31rkci+J2rwi1dbN2lzwX6NPPXPS4u+c3NcTUR/9xAvhdN8GwRsA7E15qpn41V5SGPRg0INBj8THvNvAIWBVWb35F8MAApd7Mf0d0w2j62am6X5+0bknDvdNEx785FYY6rwL4r4D2t2f4lRT+StEUpo4f6pGksI5lA29UXFGGyeAGA+B2A8goF7LvSRRrFIv9wJD+StMuMdU5X2Lzz/xB31RhGWnz4aDU4GxEwBM5py9mopf5SSlgPlTlJQchBoMelT3RuWZxgmgiK7RXOTPXFiM5a+fy70Yr5Rv+HLfqq1qXm3NLNyx8jcqkBMWnf/WnxeuCI+dfghcnAngOApTE+SP86fqJSkMejTmRqWoOZQtebpxAugCTwgDCMb2Vs7lXlDSxG/k+bdOxX3jonNPvLJQPVh++tFw8AW4mE1ZaoD8MehR8EW5SpLCoEe5b1SKnkPZxApgV1ZC3Phute4BhEov91KkcGevtiqwtuXguAXnnDi/MDVYecZBUHwZ0FcwvNsA8au9pDDowaAHgx5W+wBF8yqAcPBYbFGr3gEENGa5FyvCnflLG3VE5iw4562FyJ+u+siO6LTOherbEbwQG6mb/DHokfFi2gBJ4RxK3qj46TZwCBhdPAbHkvxVL4CQoA+v83IvZuerhWrrmCP65gXnnnBF7lqgc1p4bJePoIuzIJhOUWqA+FVOUhj0KLekMOjRqBuVsfFAbJMEcKg7unLEaSdVmZTyV6oAQswBZCh/tVjuxUy401yUPW3uqsqJC8474bLc1eCxjz4fj8l/QHEoRalJ8sf5U2Z9LYMe/RfqOtyo1GoOZQf7XLWuaT2pc9nw8esArAk+rmobQMgkNXEnYJmXe0l2EtsTblX52OLz3zovVy1QiC4/4+NwnT9DhfLXFPlTCxcQ9Z5/GrJ9zOtaBUlJ8NlUyyMpmvIz9F5XC+2qNqupmu37KfWNSsLPZuvGLdt+Vos0b3Z4r/T3GIBp6eSvWgEEszuzwH8t6duTyV8SIa3Y+oqicsmi89/6tVy1YPlp2+Kxwe9D9GhKUkPEL9Udf5UqKQx6cGiSQY/0x3yidn28ib1qTwBXAtgt6UW+ggGEHOSPy71ECrfilzv9zflAvvL3scMh8hMotqcoNUT+GPSgpHAOJW9U7PUBy5ssgCsmtmctAwgJ5M/0eK7zci+wUW1dOji19fZ58+Z2c1ODlaefBMU3AAxQlBogfpQUSkohQg0GPUpxo1JYH7CssQIo0IdcSJ0DCAnlj8u9pBVuz8+eceHMmT88d00uarB0eBDbPHMJFO+mKDVJ/hj0iL+YVklSGPSoplAXcYNRaB+worECqJAH6xxAMP0d0yz3kvzE929SvvUVLVRbVeC8+6bz3npXLmrw2KnT0F0zD4rXUJQaIn+cP5WTpPCJHuWWFC6WXVAf0NwKoCt4ULSeAQSzu4D0y70kmg6RVv60WtVWUT134fkn5PJ8X131iZ3Q7V4B0X0oSg0Qv1QX0ypJCoMenEPJG5W+36iINLcC6HS6D6rjpO6fM8lfPxO/ptvYXu4lye9UuWqrLHlqauusXPRg2Zm7oNu5BsDzKUsNkD/On6KkcA4lb1QKCXu5za0AdtuT/ua4ozH9c+UCCDEHZ6j2JH17cvmrabVVgbUOnBOXDs8dtS9/p+8Kp3MtvGl1Uk/xo6SUSFLqPIcSDHqU4kalBH2A4zQyBewAwDWffvUT8C0GnVr+ShFASCJ/pm8vOvFruFGZqq2KDy08b+7d9uXvzF3g6A2Uv6bIX10WylV7C+VmvaCWZbHsUklKxmOsFDcqQYuQc7HsxO3aauYcQO+474NRjVTf5V7yT/w2YLkXALhm8flv/U/rirD8tG3hdK4EZBcKU83lr5RP9MjwNAw+0QN8ooeJpCj4RI9+9gG6Sp539dMUwJAOqHrLvZieM8n+PS73EvrTtW137F8AsfooHX3yI1tCBn8HYA8KU53EL4mkJLg4Flr1SyIpKS7whVT9KCmpvh/rkpLy++GNiqU+QO5ram/c3tQEgvtUk8qfqdwUvdxLPonfNFJX5uVeYKvaKjjzhgve+YBVTdCTBrCydSmAfSlNdZK/JDdQnD+V+DOUol05h7Lc7drUoEfoxebexguguno3RBLKH5d7iR36LfFyL0bfb3yb/37x5Lu/Zf3IXDHjaxA9gtJUU/GjpORzMbV6Ua6SpDDoUe4blRL3AQJWABWtuwVuAgGr83IvsCN/SX6nalZbXcfFhzA87FrVhRWnfxjQUyhOdZY/Skr8xbRKksInepT7RqUxT/RIvi9XWAF0RO5Wz5fS7OVe1I781X1xbdH/WnDB2262K38feymA8yhONZU/LpSbk6TwiR7llhQ+0aO0fYB0GyuAm0IgV33myEeg7hpj+eNyLxbkD9Wttoqu7rbwaau6sPLD2wPyUwCDlKeqix+DHkZywaCHgaQw6JH6GGPQI/5YbYECCBEF5J7KBRBKtNxLMqlDJaqtYduIiwtv/tLbVlpTBoXAbX8fwLMpUFWXP1sXUw25mGa4wBdeSclZUlAVSdF4uehLNZU3KvW5UUnVBzwlL5z/OAVwowXenV3+Cg0gZJM/2JW/RKGPiiz3EiLcj3c2uF+1eiSuPP2DEBxFgaqy+NV1oVyLkqL9kpQ6L5aNPi+WzRuVQvoAzaUPuL3JvXbbJwl3Z6tscbmX0i/3kkm4N6WmvnzzxW9fbU0dln1kTwDnUqKqLH/hNzmZL8p9lxRw/lTszSaDHpxDWcE+QLXRAuhM/K70L0lOstIt95JEsUq93AsM5a9o4QYALBucPPJNa+qgww4c57sAJlOkaiJ/fKJHAkmp+PwpPtHDdxHgEz3K2wcE/BuC25rce0+oAKLVuhOum03++rnci6ldln65Fy1vtVXwtfnD79lg7QhcsfoUiBxMkaqB+KW6469SJaXOC+WWsV25WHa527UGiXRXGy2AEyqAT22z7V0ARuMard8BhPjvvYzLvSCfxG8m+TM9dzfJ3+oRtC+xphCPf/TZEPkSZaoG8sf5U4aVFAY9ipcUBj2MpK2+QY+w7bvYMGMpBXCcJScfMKbAXVEdYQkCCObfe1r5S/ITTWZWsQPXZa62qnxryblz7T00u+OcC2AGhapK4segRz4XUwY9Yr8fBj1KcKNSyaBH2DF5jxxw2ToKoAcBbit1ACH2fOJyLzlVWzs61rrYmkos+/j+AE6gVFVJ/kBJSXUxLUpSYEFSEsyfykVSUH5J6euNSp3nUBbcBzR8/h/gnwMIQAW3iaKsAYR08ge78tef5V7M3C23aqvgl4svmvuovVuP7tcBcShWFZU/zp8KkBRbF1NUpF0rkkblHErDY7UP7drPRLpKoxPAgQLodN3bVCRdNSA3+eNyL6bCneZiblJtFYW9uX/LzzgWUAY/qih+qS7KVZIUBj0Y9CjpjYoNoeaNiherjzGthQC6A2O3SmcwovlszkFLKX9JtuFyLymEezPuWzjlr9dYO+pE/x/lqoLy19eLKSWl5BfTCkkKb1TKfaNSSB/QRWvs903v5Tcbgrvm0298AsCy/OXPznIv2pTlXlCU/AVU/4DvYXjYtaIVKz72WgAHUrDKLH4MehhdTBn0mPg7MegRvJ9Cb1QY9DDsA/4seyx8hgIYVKDBxrVxuNyLf5M+LvfSv2qrdh35ib1DTj5JySqz/IGSkupiWpSkwK6kMOiR37HKoEd5+wCRhezvQwQQ6txaqgBCMgetxnIvsa/mJ9yJqq0uFt90zgl/s6IXy09/MYCDeNpVRP74RA+jmzY+0aMEkqI2JYVP9Kh9H6DuYvb5AXMAN/qf3hJ4EHO5F3vy18f1Fc07ZkBFfmzvdkM+bh7xJn0TP4DzpzK3R63nTxUg1Ci2XRn0aFYf0KUAhgpgp+v8vuW4ieSvzMu9IKX89S/xm5/8JRRut4PWz6xoxmMf3wGu+3qeciWXPwY9crqYVklSGPQo942KxhYh+n6jUu4+YKXss+B+9v8hQ8Dzh495BMDyvj1yLK38JU78WpQ/reJyL7FvveUP589dYeVIc91/BjDAU64s4seFco3kgvOnNm/XtJ/BZrs2OugRdg3iYtmb3WAEt+siXgMiBBAABPoHkwpT7nPQjO98kspf0YlfmCd+C6u2xgr3b6zohkIA/DNPt7LIX56SwvlT2SUFdiWldkGPEs2h5I1KBW9UZD6vAzECCOAPxs6Vl/z1c7kXzX+5F00hwEVWWxXdX1s5ypaffiiA5/F0K6H8WZcUg8pL6jv+oiQl5Wcoq6RkEeFASUnx2Qqp+vFGpT43Kjn2Aa7+jteCOAFU+UO/AwjJ5a/oxK/hRoUu92Kt2rrqpvPf/icrR1kLb+Gp1m/xs7EGXVGSkuIC3yhJUZRzXpqNNeiibk5rcqNio+qX+41KbfuAR2XvG+7iNSFGAFva/gNCD7EKLveituWvZsu9+IVbcSMgmSO7qnNaULyJp1o/5c/WHb+N+VN1kJRGLJTbpwBNAyQlyzFW2I1KbfuAq3hNMBDAK4df83cA96esHhnIn+lxweVeiq22bvrTjVaOsBX/dAiA7Xmq9UP8GPSIP/Y5f4qSwqBH9fqAtDcqcjWvDQYCON5ef4hQkbwDCOByL6aSaH99RVfFjgA6zjE8zfohf3lKCudPZZcU2JUUBj3AoAdvVGI+gwLOtbw+mAqg4KZk8odi5K9By72o2ScwaHMkafN1k6fvdJslFzmap1mf5Y9Bj+DKQZ0kJYsIM+jBG5W+3KgU3QfIbTJrvp1lzWpCO9IO1VnoiotyLvcCQ/njci8phPu2+cOHdzKryOMffTY62IunWZ/ED2k6/aIkJc9O32Z78Ike2YQaxbYrn+jBPiD0Z0z/JhLAMUy5tYU1axSYlqv82U78crkX4zcHVVsFuNXK0dVxXr5xd6Rw+eMTPXK6mFZJUvhEj3JLCp/oUWi7qnsFrxUTiRwCnj98eEdFf59U/pJ3qAZ74XIvuQh3cBVR7Az/Cg7hKZa3+DHoYSQXnD+1ebum/Qw225VBj4DrCIMem11Xs/cBf8eqATvz2psigAAgKguTyl/WAEIm+etn4jez/KVb7iW9cGuIt+F2S35yME+xPOUvT0nh/KnskgK7ksKgBxj04I1Kuj5ALpPD52ee1lQ32nEbuJCFkuDLs77cC+zKX6LQR0WWe7G9vuKI4p7MevLwRycDnP9XmPzVaf6UNUmxdTFFRdqVcyjL3a5Jj9U+tGtd+wB1f8XrRgoBnKTO4hG4XQCtdPKXT+LX+BhIK38NWe4lYLtnllz4tsczH1ktzNr8mCHWxS/VRZmSUg5JYdCj0pLCOZTV6AME69GdeiWvH5sTOwR8xfAxqwHcEXtpshRAMDkgU4c+uNyLidbeZ+fIau3L0ytn+eMTPQLOWz7RYzO54BM9Uh6rfKJHLfoAld/Jvlet5TUkhQBuFGgsjPpSbAYQEr09ifwZCKm5/JnurvTLvQRsKw9YEpZZPL1siR+DHkZ3/Jw/RUkx2U+hkoLy36j0tQ9A/n0Ah3+zCaALWZjAelDd5V7QqOVeAt+u7jJLx9bzeHrZkL88JYVBj+ySAruSwqAHGPTgjYrFPsCFM/AbXkuCaZtsNNDu3tjpOCgigNDf5V7MK4TG8lfi5V4Cf+TgCUvH1nN4elmWP07yNrxbY9Aj0/fDoEeBx2of2rVJfYBigezFp3+EYVQBvOpfX/8woH+1J39c7qUMy72E/CKPWTq2nsvTK634NWD+VGMeO1bnOZQ5S0oZHj2Y+xxKZR+QZx8g8r+8pmQUwHGuMb5pTiN/sCt//VnuxczdyrLcS9CJrEDmBLA+cdoMANN5eqWRv6SSYtD5MujRR0mBBUlh0KNvkpLlGCvsRoV9QOD2gi507Ge8rlgQQBW5Jlr+uNyLaegjjQgUVW2Fi9WZj6pOexueWknFj0EPK3f8pvvh/KkaSQqDHuXuA9CfPkBxjex980peX8Jpm26o2r1G4HRVg9Z2yzBUGXGAlmO5F1iVP3uJ3wzyF/ImBSCK0cxHlYtt+ARgJP/SbHb6RucB508VezGFvfbItV05hzKf9ujDfmrzfOQUfYBy+DcO4wrg/OE3POUCfzRv/FDtSfr2ZPKXRHwyJH7TCHC5lnsJ3sYVZyT7UeVsxVOrj/LH+VMhF9MyTp63UU2t8xzKfksKE+mZ+gD0ow8AAIxC8QteYywJIAAIcHV+8lf8ci+mkhj9VpuJ35Tyl2SbmGqr09JRC8fVZJ5acd8P50/VR1IY9OCNCoMe5bhR2cSVss+CJ3mtsSqAcnUy+TN1lP4s91LmxG/a5V4yV1s7zljmo8qVQZ5aCb4ETvLOKCkMemSXFN6opP5+GPQoyY3KBFnh8K9tAXx62fIbIXiyMcu9qA35S5f4zVf+NHGzJTuqXApg0ZKSurNm0CP0dQY9SiQpDHqUuw9AH/uAzViLFvj0D9sCuOQ7J4+J4jeZ5A925a9/id/85K//i2tnxDUPFzVH/sIupnyiR/TFtChJgV1J4RM98hNq3qjU9EYlTR8QuOn/yR4Ln+F1x7IAjh+wP88kf/1c7kWruNyL6blrq9o6yrOiCPnj/KnN91MnSclyEWTQo4I3KgoGPYrsAyL73B/wupOTAK5/ZvS3EKxNJT4VXO7F/ICfuE1pEr+mH8y4LYm5+HH+VH0khUGPct+ocA5l3/qA/gU9gliGu559Da8/OQng4ovmrgfw2+DjqX7LvWjiAzLnxK+FaqtaOc9IooO90fOnGPSgpOQtKbBwo8KgR/lvVGIQ/EjmzuvyGpSTAI7z8/Tyx+VeMiV+TbexWG0lScSP86fs3/Fz/pTxxZRBjwySgvLfqGQ5xirdBxjiOj/kdcicVJP1R9fJZYOTdAOASbFfGZd7sSd/fai2kiTyl0OnH7ufoiQlz+qUzfYoW3Wqn+3KJ3rk0x79eqJHU/sAY26VvW+8ndcic1JVABee97pnAL3yH18Zl3spdrmXYoSb9Fn+GPQIOa85fyp9JYVBD6PXSxn06GMfAJQs6BEIwx9FCOBGWv9ZZAChzMu9oPDlXgoUbhLzvTPoEfvZOH8q48WUQQ+jz8Y5lDW6UUnMKEY5/FuYAKoz/TeALo93ouwBhLIv96JmnyBG/kzP5WLWVyQpbmo4fyqjpHCh3HJLChfL5o1KCYIewfxU9r9xFa9LBQng/OHDOyr470Q3AYaSmEBlUsif6e4qttyLxfUVSVwDMuhh/46fQQ/ji2nfJAW8Uan9jUoFgh6Bu5Tv8tpUoAACQFv0e4gs8RWZ+K3Zci/ILn8MfeQhf0kvppw/VWlJqez8Kd6oVPNGpal9QCb+ir0WXM/rU8ECeM3wG/+qwOLE8pfkJ01d7sXULnOpthJjSWHQo0BJ4fyp/ISakpLq+2HQI2MfYKVr/q4IL1+FCyAACPAfieXPOPHL5V4KX1+RNFNSMl1MwflTmS+mDHoYfTYGPWp0o2KFUbh89FvfBBDO2P8CeNKm/CXKKHC5FxRebW2U/JVJUjh/Kr+LackkRRn04I0Kgx4GffTPZN9Fj/Fa1ScBnD88d40A3zYSnzwSv+ByL1mFO/+btCqKH+dP5SMpoKSkupgWJSngjUrtb1QqGvQINBj5Oq9XfRRAAHA6ztcA3RD59ZsOQ3K5l0KXe0nW5k2Rv6QXU86fqrSkMOjBG5VCb1QY9LCCYLHMXHgTr1l9FsBrvvS6lVD9UWb5SyI+XO4l4+em/Jl/Nwx6FCcpnD+Vn1BTUlJ9Pwx6ZOwDcjPAi3jNKoEAbpTx9vkKuPkv9wIu92JhuRfKXwMlJdPFFJw/lfliyqCH0Wdj0KNGNyq58SAea/+C166SCOB1X3zd3QAuT1qOSi5/5hVCY/lr7HIvlD8GPUwvppw/ZV1SGPTgjQqDHmm77W/I4fM7vH6VRAABQF0937zDT3HzUIHlXtLaW+HLvTQ+8cv5U/lJCigpqS6mRUkK7N6oKG9UGPQolDXoDPw79a1kAnjD2W+6AZCrTeUv0TBkRZZ7SZ/4zSh/SX5C+UtxMeX8qfpICoMe+Qk1b1QY9MgZ0e/Ji+Y/RX0rmQBu3KGeAYVrdAmuwnIvCbbhci8Vlj8GPQqUFM6fyk+oKSmpvh8GPTL2AYWxAWO+kUZSHgG87gtvvA3ApcUu9wJD+Ss68ZtB/mBX/hj6YNDD6LNx/lTGiymDHkafjUGPGt2oFIjId2S/xY9S3UoqgBsPk86nAYymUJmU8qfmy72gKPnjci/lkr8ySQqDHvldTBn0CH2dQQ/eqFi/USmUDRjrnkdtK7kA3vDFuQ+o4jvhTmO+3IupJEa/1WbiN6X8Jdmmb8u91E0QGfTIT1JASUl1MS1KUmD3RoVBDzDo0WdY/auGAAKAut3PA7I6vfyVP/GbdrkXLeVyLxs7gLFayV/SiynnT9VHUhj0yE+oK3yjomDQI3Mf0BdGWP2rkADe+OW5q6B6dqrjqSKJ33zlr+DlXmpV/GPQo/+SwvlT+Qk1JSXV98M+IGMf0EdELmH1r0ICCAAysPVXAPyxP8u9mMkNl3sxbfOqiB+DHrGfjfOnDCUl4ffDoEfBksI+oLgblb7yFNrtL1DXKiaA84cP74jrvBeKTvHLvZglftNUk6wnfvu53Eut5K9MksKgR34XUwY9Ql9n0IN9gPUblb7zeXnh/MepaxUTQACY/6U33CqqFxtdwFMu92J+skzcpjSJX9MPZn25lzrIH4Me+UkKKCmpLqZFSQrsSkrtgh7sA7L1AaXgPgzN+CZVraICCABrBof+FcD92eUvYeI3k/yhGPlLnPi1KH9aB/lLejHl/Kn4O34GPcwkJeMxVjZJyXKMcQ5lBfuAKtz+y0dl9ytGqGoVFsAlw8evc8T5QJLreGb5y7zcS4bEr+k2tpd7SfI71VX+OH/KUFISfDYGPSoqKZxDWe4+AGDQI5JrZa8Fl1HTKi6AADD/i2/8LRT/Fnxx4XIvVuRPmyB/nD9l1Ikz6FECScl5DqVmOMZ4o1L+G5XC+4BSMQrX/QgVrSYCCABTn5lyukCWpJK/yi33Yvr2ohO/VT5cSzw02RdJQfklJYsIZ5YUzqHkjQrDXmYiXDJEvyT7LP4zFa1GAnjFxceMtMR5C4Cn7SZ+E1pXIcu95J/4bc5yL5zkXU1J4WLZpbtRYdCDfUD5uQ14+svUs5oJIABc+8U33Kfivi9+GNLuci9GAZNY+TO9ZiWrIpZnuZcydhKc5J1eUvod9Ej5/TDoAQY92Ac0J+gxgQ5cea/MWjpKPauhAALAjV+c+1NV+UZ2uanYci9q+MH6stxLheSPQQ9DSUnw2Rj0qKikMOhR6RsVBj38fEn2WbCEalZjAQSAaWumnAHowiQHNJd7SSl/Kaut/RU/Bj1iO3EGPUogKQx68EaFQQ9L3A556mxqWQME8IqLjxkZ6uJYALdnkr9KLfcCQ/nrw3IvpZI/W5ICC5LCoEd+F1MGPXijUoUbFQY9CmANxDmBQ78NEUAAuPrcuU93RI8B5OGog70+y72oHfmzutxLWdaE4STvakoKgx6lu1Fh0IN9QLVQiL5HZt14J5WsQQIIAIvPnvuo28LRgD4Zed4mkj8u95Jlce3+yF/SiyklJf6On0EPM0nJeIyVTVKyHGMMetTsRqUS/neezFr0U+pYAwUQABZ+4c1LoXgDFBuMDumGLfeS+ByvVOKXQY9skpLgszHoUVFJYdCj0jcqDHpEcR1WDf4rVazBAggAN3557vWqeBuAsRBFM5K/Oi73kij0oTmsr5ib+DHoEduJM+hRAklh0IM3Kgx65MBD6Opb5fD5HapYwwUQABacM/cXAn09MLESWO/lXgw2yWO5l77Lny1JgQVJYdAjv4spgx68UanCjQqDHoUiWAXtvkb2XfQYNYwCuIkbvvyWy13omwCsM1eTnJd7SaJYiZd7UXvylzLxW1xXwkne1ZQUBj1Kd6PCoAf7gMrKnzwNcV4je990FxWMArgZC7/8lsvFweGAroo/7rXQxG+1l3vpZ+iDk7zTSwqDHtklJeMxVjZJyXKMMehRsxuVSrEOwHEy88Y/Ur8ogKHcePbc32tLDgX0ftvLvaS1t3Iu94JMid/ki2tblD8GPQwlJcFnY9CjopLCoEelb1QY9DBhFHDfKLMWLKB6UQBjWfjFuXd3NzgvBnB18GlRdOI3o/wl+YkmG8eOHbjui/wx6GHUiTPoUQJJYdCDNyoMeuTIM3DkWNlr8ZXULgqgMYsvmvv39qTtjhbFV5OfGFzuJfHi2mM25c+WpMCCpDDokd/FlEEP3qhU4UaFQY8+8Xe4epTMXHA1lYsCmJj5w4d3bjz3LR8V1dcL8ITdxG8G+YNd+ev7ci959jec5F1ySWHQo3Q3Kgx6sA+oPndC9UDZZ9Fi6hYFMBM3nvvWX0rLfZEC8+3IH5d7MVtiJ4v4gZO8M9/xM+hhJikZj7GySUqWY4xBj5rdqFSSK7Bhw8tk70X3UbUogFa44ewTHl54zlteKcDJUDxjXHxKdaLVfbmXAuSPQQ9DSUnw2Rj0qKikMOhR6RsVBj1M6UDlc5i18Dg5YMnT1CwKoGVEF5zz1u9op7s3RH4VdeKlXe5Fa7/cS86dDedP9UFSDC4sDHr0UVLAG5Uq36gU3gdUEb0H4h4sey8YFoFLxaIA5saiC098cOE5b3mdivsqKO7gci/hnbcadY65dw4pLqacP2VVUrKIcGZJYdCDNyoMepiJcOXoQOTr6E57kcxa/HuqFQWwOBE8523Xbnjq6f0hOEWAR8K9qgHLvcS+WgH5s34xrbCkKBj0MLqYFiUpvFGJvlFh0CNbH1BJFsBxXiKzFnxY9r1qLbWKAlg4S75z8tjCc074dnvyht2h+lHVf4hgMvmr+HIvWjb5o6SY3fHXfP6UNUnJeIyVTVKs36gw6MGgR2HcC9E5stfCQ/lkDwpgKZg//J4NC89721efntJ6nqq8S4DbTQSstMu9oOjlXsYsfhsMepjth0GP+kgKgx6VvlFh0MOE+yFyMlYN7CmzFv2UGlVd2nX9YEuH544C+AGAHxzyyR/Ndl3nJEDfBmBaYvnr53IvWuRyL7Y6JzfhxaMoScmzOgV7Q5N9q06VsV1tzfXrZ7vaalOL7QGbcygzHGON7wMqgwL4HRznW7hjh8tk7rwu9YkCWAkWnHPiEgAnH/yJ752hMvl1UMwBcBSAofgTOvgELk/iF+aJ3xj509z7jzw7fUpKuS+mRchFjvvhjUo5j9XK3qhUhvsA/Qmc9g9k5g33UJkogJVl4XnvfQbADwH88CWn/XCGM0mOEuBIbPxvl0TX6bTyp/kv95L8Gb9Vl7+KS4qNi2nsfqokKZpi/kKJJaV2NyoZj7HG9wGlRiH4IyC/Bbq/YqKXAlhLbr747asBzBv/Dy/5+I92d4CDsPG/l0IxE8Cg/0Su33IvecpfEyVFLbZH2S6mBcgFhyYzHKu8USl/H1A6RgG5FdBFEFkEd+wG2evmlVQjCmCzhPD8E+8BcA82zhvE7JMuGWhPn7q748gsVbwAwK4AdgawC6DbArI1gJZ9+St2uRfj635W+eP8KUpK7MFYFUmp8xzKOtyolLEP6BsugCcBeQzQhwE8BMiDEPcv6OodeGLoXjl8focGQAEkHpZ85+QxAHeO/xfIS0774QxpjW3dlUEHGJvsOAOTQncohulamfA/4YyFvhWGexjfhe9dI2N3W29MSko5L6bladdz0JWfbn7Mjlk+ECXB62OW/7mU/7Zk/B3GCv7Mebe3ZN1IfD9O8ZnHMv+COdIdBVproY7CdZ6UF81/ildzQgHMgfFh5NVsiaLEr0qVFM6fMm4P1Yfk+f+7hCcMIYRQAAnlj0GPxgY9CCGEUABJ1Q3Q8PUqSQqDHpQ/QgihABLio4vguTAMeqQSsEbMoSSEEEIBJDWEQY/E++FCuYQQQiiApBniVyVJYdAjW3tQ/gghhAJIKH9cKNdgP2VsV5tP9CCEEEIBJJQ/Bj1yaFOb7cEhX0IIoQASYiIcDHqAT/Tw4vL0IIQQCiCh/DHokX4//WxXW2JOCCGEAkhqKH41kBQGPewLNSGEEAogqav8MegRv59+yl8RQQ/KHyGEUABJYzyQQQ80POhB8SOEEAogofgx6JGT/NVhDiUhhBAKIKkWE54Ex6AHgx6g/BFCCAWQNAcGPRj0SNquhBBCKICkokwoAeYgfjlLCoMehkJtqT1Ep+iDb9sq2TH2dD1Olaf5iyZm7wVPibB8TAgFkFQEBj3si5/N9ujjHErFBeiMXpCsXYcqINQG7TFUlRuVofK0698OmwzM38A+lRAKIKmk+FVMUkw/H4MeJRLqMrZrE29UiugDCCEUQFIB+aOkxO+nSpKSJujRQEnJfQ5l0mO+JjcqhBAKIGmS/DHoEd+mlJRGzKHs67FK+SOEAkiIiRAy6EFJKY1Q80alsjcqhBAKIKmj/HH+VKFywTmUvFGp0o0KIYQCSCoif5SUkl5MwaAHb1RybtMi+gBCCAWQlEv8KCkx+6mSpDDokc8NBudQZusDCCEUQFJaB+y/pHD+FCWFcyjTt2lZ25UQQgEkJZc/zp/i0CSDHrxR4SMDCaEAkqaaICUlTTtxDmWfhboONyp1n0NJCKEAkgbJHyXF6LMx6FECSeEcSsofIRRAUntcS51+lSSFQY9qCnURNxicQ5nPjQohhAJIKgDnTzVbUrhYdrmFuko3KoQQCiCptvwx6FGSiymDHrxRybNNbfYBhBAKIKmu+HGh3HzkgnMoSyIpDHrk0wcQQiiApEHyx/lTRhdHBj1KICkMelD+CKEAEmLY6VdJUhj0KLekMOhRvxsVQggFkNRQ/jh/ql6SwqBHuYW6SjcqhBAKIKm4+zHoUY6LKYMe9tuVQY98bjAIIRRAUmXzY9AjD7lg0KMkksKgRz43KoQQCiCpLm4XEOmDpHD+VLmFug6SwqAH5Y8QCiAhCWDQg5KSZ5v26QaDNyoW2oMQQgEkzRa/yIsHJaUcksKgR7mFuko3KoQQCiCh/DHoYeFiyqCH/XZl0COfGwxCCAWQUP44f6pgSWHQo9w3Kgx6EEIogKTuQsj5U+WUFAY9eKNC+SOEAkiIdflj0IOSwqBHg25UCCEUQNJs8Yu8eFBSyiEpDHqUW6irdKNCCKEAEsofgx4WLqYMethvVwY98rnBIIRQAAnh/KmCJYVBj3xuMBj0oPgRQgEkxFD+OH+qlJLCoAdvVCh/hFAACbEvfmW8mFJSyi3UadqDQY9y3KgQQiiAhDDokZNccA5lvFD3oV0Z9CCEUAAJ6QIQSkrqiymDHvbblUGPfG5UCCEUQEIi4fwp+5LCoEc+NxhlDXroQ4DcDeBBCJ6Ci7UQdQBMg2ILCHaDYg8AO7DqRwihAJJqiF8lJYVBj2LbtXFzKJdB9ecQXINO53rZZ8GTRmfcn1+1PaTzSoi+CsAbAGxN+SOEUABJ+eSPQY8qSwoY9LDari6gv4TiO5i57e9E5nWTnnWy9zUrAfwEwE/0nqM/gA1rj4WjpwJ4Vfb2IIRQAAkppfwx6BG/n362K4MeEe+5FIrPy6z5S22dhbL7FSMAfg7g53rXKw6C2/0cIEew6kcIoQCS/gkhgx4VkJSU3w/nUCZp13sh8gHZ89qr8jwDZc/rFwM4Uu845HgA3wCwC+WPkObisAlI4fKnJrKj0a+r/6KsCfbjkYu+DPlqiKSk+Ax9kb+Y31VTfJ9B7ZFV/hQpq7IaIuYZvp/wdv1vrJu2b97yN0EE91pwGYbG9gYwL/4zEELqCiuApDjxK1xSIl5n0CNiP/1s18bMoRyB6ntl1vwf9ePMlN1vXq2Kt+COg38PwbksBhDSPHjSk2Lkb0LVL0klJazq129JSfkZNhPIkkhK6mqqp+qXtV3V5pBvxu8nX/lbC5HX9kv+NkmgQGXvhRcA8nYAY+yzCKEAEpKTC9q8mNqQlBQCVsjQZBJJUZSzmprw+7FVTVULQm31RkUD5M85osgh31gR3GvBTyA6B4IuOytCKICEWJS/3OZPZZSUhAKmGefoTWgPW5KSUiKNqn4x/0bucyhtVFNLNYdyDCpzZM9rFpftNJVZi34JxfvZYRFCASQku/illh0GPfooKWbtXaegR+qqX8J2VZwhs669oqynrOy18N8BXMTOixAKICEWLDBvSQElJclnq9UcyozHWGahTnSj8hvMvO7i0p+yGzacCcVN7LsIoQASkgIXDHp4BJJBD7tCHdmupQl6eF9/HNJ6l0j511qRA5aMoS3vAjDCfowQCiAhFmDQI72kMOhh3q6GQp1v0MP/b39K9rzmiaqcqbLngr9CcCH7LEIogIRkFD8GPbJJSkqJZNADJZhD+Sfsedh/VO60Xb/hbAAr2H8RQgEkJKX8wYKkMOiRs6QEv845lNlvVBRfEhl2q3bmygFL1gHyVfZhhFAACbEofykvppQUMOiR4ncqLujhf/0ezDzs55U9hdv6TQBPsS8jhAJISEYhZNAjH0lBFknZXKgZ9LAj1IL/qGL1b9Ovv8fCZwCZx76LEAogIYaup675xZRBDwY9kraroVAXG/Twv+bC7fy48uey6H+X7ndat8oFIYQCSEp50RgpVlISChiDHr72AIMeqY/VsN8Vt8isBQ9V/lyeuXABBKtK9Bu5MmvpKDtZQiiApIy4GGXQowqSwjmUud2oQK6rxb2cQKGYX55fiOsTEkIBJGVmg72LKSUldD9ZJYVBD+R2o6J6fX1OZymPACoFkBBbtNkExH4n7Ty58WkgZZGUjOKHKPErSlLyFD+b7dGH/ZSxXTvy5/qUCdw74EpZfpun2cESQgEkpb1gOI9hUw4kb/ErQi7y3k8/5c+WUPehXQsTv8Ttuhb7zH+0Pjd0g38Fxsry26wCIcTOpZpNQKwzOvJ4cZLCoIextDHogVzmUG6eSH+wCs/9NUVmzV8BwfqS/DqPs4MlhAJIynrB2P1HqwF9JvEFnkGP/CQli7D12oNBD9MbldW1O6m1NJ9pJXtYQiiApNzcn+gCT0kBgx55CnWhifRnang+rynH3aU+wK6VEAogKTf3Vk9S+EQP60Id2a4VeaJHqhuVuqElWXxZ7mXXSogdGAIhOfXTuCe2ksagRw6SAgY9UrWp1XadVsMTejoFkBAKICEm/LE/kpLwAl8nSbFRrct92ZwEn620y+bEfoYZNTyfyyCALgbH7mLXSggFkJSa7pLNZxhQUvovKRGfrSzVVM3wGcrRrruoQuqSBNY/Hrot4E4twa9yr+x+c/0CNoT0Cc4BJPmwy48fAOTv/7g4MugRup++yx+DHoE3GOnbdTruPnjH2pzLg3hBOX4R+SM7VkIogKTkiEAh7o0MeoS8zqAHqh/0iHh9DLPqczJrOT6L4Bb2rIRQAEk1rhzXhSyUW7ykxFb9kkhKRonMreqXUFJsLZatNhfLTimRNhbLtnajAkCcQ2tzGqu+ohy/iHsN+1RC7ME5gCQ/OnrtxFsMBj3St0Wa9uAcSvviZ9oeeniNzuTDSvA7PI6Zi25np0qIPVgBJPmx24/uAPC34iTFxhM96jw0CT7RI5P8JaqmvlT//JLtq34K658PPgDATiX4Va4TgQtCCAWQlB8RKFR/nmposm+SAguSwqBHbLtmEeHNfr1SzqFsAwNvrf4VQt9ejs4Ev2SPSggFkFSqhKC/SCYpsCApDHoYSkry/VipptZ5DqVn56LvrvSp+8Bhk6BSBokdxejAb9iZEkIBJFVitxcuAvBAIZLCoIehpPQ76JHy+ylb0CP+M+yndxx0VGXP3XVj7wJQhmHsa+RF859iZ0oIBZBUCJFhF9D/KkRSUBVJyXUNOgNJSfDZNOMcPaDgOZRJqqkFJNJFPlXF81ZvmT0AxSdK0on8kD0pIRRAUkXczn8BQRO4GfQIlJS0nyGtpDDoYdbeiW9UAKi8Qu889PWVO2cnD50GYLcS/CZPYkr75+xECaEAkgoiz5v3EIBfbXYxZdAjg6TAgqQw6GH0uqZZjsh7A+R+VW+ZPaUq56veeeiOUDmrHL8MfijPnb+BvSghFEBSVVxc+A9JgQVJYdAjm6Qw6GH0eqq1DjdjV0waOr8S8qcQuO63Acwohf6h+y12noRQAEmFkef9ZAFUb2LQoyhJYdAjkwgnvlGJPQNO1Tte9qbSn6h3vuyjAF5bkt/m17L3TXex9ySEAkgqf7Tp5zNLCoMehpKS4LMx6LF5e2QZ8g2XwP/QpS/br6ynp95x0FFQOadE/cUF7DQJyQ9hE5BCLzL3v3UBgIPzf+yYRrxUlceORYULbLVHv4bRy9iueYnfBJaj1X2Z7HnT30p1Xt556P5w3fkAppfkV7pO9lr4SvaYhOR4j8UmIMXecshnGPTIKikMekx4vQxBD3N2RLc1X287+IXlkb+DXwrX/V2J5A9w8Gl2loRQAEmd/O+5P7ke0J+aSQqDHtkkhUEPo9ftBD2SsCtauEGXHnRg3+Xvzy87Fi6uBrB1aToJ1f+TmQtvYm9JCAWQ1A3X+RiAtaEXWQY9DCWFQY9MImw96JGI7aDOAr3jkDP741gQveOQMyHyKwBTS9Q7jKDtnAlCSO5wDiDpz03+/W/5DKBfDL5Wl6Tql1os4uTClqQkeF0zztErRbsmFT/b7ZEbv4K2Pih73/BwIefe0kNnQt1vAzi0hD3DF2WvRZ9lD0kIBZDUVQBvOWkAWz95MyAvSn9RZtDDrD0Y9Egv1IWxBiJnozPlYtn3qrW5nHN3HfgsdAc/AehHAQyUsFu4Hxs27C0HLFnHHpIQCiCpswQ+MGc/qPweioHyVf2qJCka8XLVq6ka8eMiqqCF98irAFyEjn5P9l30mJXzbOkhu0D1FAAfQJmCHhNxofIq2XvBfPaMhFAASRMk8L65ZwJ6DiUlraTkvWxOiuHVylT9SiZ/ExkD8FuozENLrpaZNy5PdF7dfshuaOHVUH0LgMNQ9vneIl+XWQs+zB6REAogaYoA6rCD+5deAeBISkpSQSnj8i5J2rSs7VrKrvouiP4Zir9A9AEonoHjPI2uChzZEqpbQLEbBC+E4EVQPLdCH24pNmw4kEO/hFAASdMk8P4Ttod2lgB4NoMeGfbDoIeF9iAFsxbiHCizbryTTUFIsXAZGNL/u5DdfrISrns8oGuDL9ZllBS1sLwL7Kztl3p5l6C1DjM+Fq7waqqtZXNIn/gA5Y8QCiBpsgTu/rM/AToXQDf0wm/jiR4KPtGDT/Qg5eAi2Wvh99kMhFAASdMl8Hk/uxyCT9qXlKBNKv5Ej01VPz7RI1qoKX8lPduvxKqBT7AdCOnjWcgmIGVD733jdyHyvs0lBSWUlIT7YdCjJO1K+sifMNQ5THa/eTWbgpD+wQogKR9PbXMqgF8X99gxjZeLvqztl+T5yAmqeIXOoUxSTU1RieSQb9W4D9o5mvJHSP9hBZCUEl06ZxBDOg9wX5u/pES8zid6lLRdKX4VvNo8iq68XPZZcD8bg5D+wwogKee1Yta8UTy19ZsB+fnmF3gGPYqTPwY9iBUeBNzDKH+ElOmejJASozqnhXu7P4DgbY17oocN8Yvdj+G++EQPkv4qczc6nVfLvjc/wsYgpDywAkjKfe2QeV088vd3Ae7/9k9SbKRRE85vs1X1K2QOpYG05TrkS/krMbfD7byC8kdIGe/NCKkAqhDc+8azIHqWXfGLkwtbkpLg9UY+0cPmHEpSkqvLErQHXiMvnP84G4MQCiAh2UTwvjf8M1S/BWCw2pJS4uVdStOunOtX4SvLL9DCu2SPhc+wMQihABJiRwLvfePBUPfnALarnqQkrfoVLH+VnUNJynJ6AnoeZi36tAhcNgchFEBC7F5l/vqm3SDdywCdma/42ZQUBj3SCzXlrwI8A5V3yd4LfsGmIIQCSEh+EnjP0TOAwW8BeFs5JKXBT/ToyxxKUqIryd3ouq+XfRb/hY1BCAWQkIJE8PXvAPTfAJ0eKS8MeqSUPwY9SNRVRP8b60dOkwOWPM3GIIQCSEixEnjX65+DtvtDAAeXR1IY9LAv1KREPAXBB2XWwh+xKQipHlwHkNTjTmbP//sbHll9GIDPAejalxQbT/RIuY6ebfnjEz1I9jPuSnTcvSh/hFT4LGYTkLqh9xx3EFS+DWAfc7Fg0MP4dQY9mswaiJyOmQu+K8Ivi5Aqwwogqd9dze6/XoxHn5kNyEcArImXFD7Rw1ja+ESPJt9a/RqO7iWzFnyH8kdIDa6VbAJS60vW3cc9GyJfB/SNdiQlwesMelhoD1KCs+geiPMhmbXgt2wLQiiAhFTsEnb8XKieD2AXBj2Klj/O9asoa6D4PEY2fFUOWDLG5iCEAkhINSXwgcMmYWzKaYB8CsBW2SSFT/TI1h6UvxJfFbpw5Qfodj8r+y1+lA1CCAWQkHqI4IPHboURnAngwwAmMehhIn8MejTh1AD0N9DWZ2TvG29ncxBCASSknle7+4/ZFWP4AoATMSEQxSd65CN/FL/yXgnkN4D7rzJr0a1sDEIogIQ0QwT/8poXAs6ZELwd0IFEssOgh4X2IP069AG5Ctr9vOy9eBGbgxAKICHNvBouPWYHDOhH4OI0CKZEyguDHpu/zqpfVRgD8H+Ani97LfoDm4MQCiAhBIDee+R26LY+DLinArLl5hsw6GHWHpS/cvX28jQUl6DT/TrDHYQQCiAhYfqy9LBpGJh0IhSnAtiHQY+A1xn0qEI3fxcUl2DS2H/K7jevZnsQQiiAhJjK4F1HzobjnAR13wHI5FTixKAHKY4RAL+CI9/Bnguu4ZM7CCEUQEKyiOCfX7U9BlrvA+Q9gD7PWMAY9CDFcCeA70LcH8isxX9ncxBCKICE2JbBu46cDcE7AZwAYNvcxK808seqX0lZBpGfApiHmQsWstpHCKEAElKECN5z9BA63SMh+g4ArwMwaE3+GPQgwTwF0cugzjysal8hh8/vsEkIIRRAQvolg0uP2hqOHg9xXw/FUQAml0v+GPSoMI8B+BVUfgnnyatk1tJRNgkhhAJISNlk8OGDJmPN9FcD7nEAXg9gOwY9SMIe+gFALoPgMqxsz2eljxBCASSkSjJ4y+wBTN765XDcowE9CpC90ssfgx41Zh0gN0Lcq+C6V8jeN93FJiGEUAAJqYsQ3nvkduh0XgHgeCiOBbA1gx6N5X6I/BqCyzC5vUCeO38Dm4QQQgEkpO4yqHNauGvVi6HOayDuKwE5EMBQNvFLIX+s+hXV6z4Kxe8AuQpd9xrZd9FjbBRCCAWQkKYL4S2zBzB1xj5QfTUgrwb0EACTzOWPVb+ScT9EFwLOAkAXYubCO7lUCyGEAkgIiRbCBw6bhA3yEkAPg+JgAAcCugWDHqWkA+BWAAuguBGuLmCFjxBCASSEZBdChYM7D90DaB0I4KWAvgTQvQC0E4kch3xtcB8ES6C6BIJbgMHfy6z5a9gshBAKICEkfym87cipGNgwG4oXA7ov4OwDuHuityi1X/BY9csoe60lGG0tkRfNf4rNQgihABJCyiOFt8wewNCUPeFgHwD7ALofFHsD2IHyF95sAB4C5C8AlgJ6F9S9E52hOyl7hBAKICGkuoZzz0tmYP3A7nBkd8DdHYIXQLE7gN0BbN2QZlgJyIOAPgjgPkDuguqdcAb+wiFcQggFkBDSLDlcetDWAHaFtv4JwM4QfTYU43/GTgB2gYY93q40vdoqKFZBdBUUywB5EIoH4eBBuN2/4Rn5m7xs8Xp+24QQCiAhhJhK4j0vmYGObI2x9rMgujWArYHx/xVnayi2gug0qA4AMg3O+P8q2gCmA5v+dz2AsEWPFYKnoFgHyDpAV0NlDUTXAboGKqsBWQsHqwB3Bbq6Cq05l9JDAAAg1UlEQVShVVi67SqZO6/Lb4kQQgghhBBCCCGEEEIIIYQQQgghhBBCCCGEEEIIIYQQQgghhBBCCCGEEEIIIYQQQgghhBBCCCGEEEIIIYQQQgghhBBCCCGEEEIIIYQQQgghhBBCCCGEEEIIIYQQQgghhBBCCCGEEEIIIYQQQgghhBBCCCGEEEIIIYQQQgghhBBCCCGEEEIIIYQQQgghhBBCCCGEEEIIIYQQQgghhBBCCCGEEEIIIYQQQgghhBBCCCGEEEIIIYQQQgghhBBCCCGEEEIIIYQQQgghhBBCCCGEEEIIIYQQQgghhBBCCCGEEEIIIYQQQgghhBBCCCGEEEIIIYQQQgghhBBCCCGEEEIIIYQQQgghhBBCCCGEEEIIIYQQQgghpP4Im4AQkrVfUNXQn33uc5+z2s+cddZZof+YSKp/SvmVE0LY0RNCanlO9yQtqZAtXbo0VT8xZ86cXD/ovHnzUr1v1qxZiYSvJ5wxckmJJIRQAAkh+Z2jpiIXJm5eMbvzzjsL6QOWLVu26d+ZPXt2ovcuWbJk05932mmnQkRr5syZGieacSIZI44URkIIBZCQpp97cVIXJHM9kUsjccuWLZMkIrZ8+fJa9BU77rijsXgtWbIklXD25DFIHMOkMUIWKYqEEAogIXWTO7/YJZW6OJEzEbett946cT/w97//vRJ9x9Zbb60pPlvse6JEMok4hslikChSEgkhFEBCSih5cYKXRO523HFHSSJ0M2fOxIoVKyRPaXv66adl5513ruSX9fDDD2OLLbbIJEpxMrnDDjvonXfemUgYly9fHvs7BUlimCBSDgkhFEBCLJ8jppIXJ3hBchcmdmHVuSQyZypuq1evNtrnjjvumGj7fjFjxgwdb9tE29sUyTBpDKsyBolinCTOnDlTU8ghxZAQXtwIIXGil0TygoZlgwQvi9zNmDFDkkrcjjvuaCxta9euDd1u2223rdQXu2rVqtCfTZ061UiEZsyYoVEiGSaPq1evjt1/Ekn0C2LccHOcHFIMCeFFjxCKXkLR81fy/JIXNiwbJXhh1bogcYsTOr/EmYjbmjVrIvuEbbbZxlgU+4lf7B5//PHI7adNmxYrPn6RjJLHMGEMEsW4qmKQIAYNN/vlMKpySDEkhFAACWUvRvbiRC+okhcleUHVO7/IRcmdV7rCpC5I5LzyZiJu69atS9U/bNiwYcL7tthiC6tf6tNPPz3h75MmTUolJ1OmTIl9n1fygiQyTBy9shgmikGSGCSIUVXEIDn0Vw5NxZBSSAgFkJDKH8/Dw8OJZc8/dBsnekkkz1Tw4uTOL3Y9qYsSuiiR68laFknzC18e0mcqg1mE0Lu/qH1EiWNP9vyyGCSKcZJoIohJ5DBKDMOGkuOkcHh4WCmEhFAACenL8RtV3TOt7KWVvTjRmzp1aqjkmQpemNyFid2GDRvERMBM5C9I7iKkN/F7bNCTtdWrVyd+T1oJ9G4btl2YKE6dOlWTCGKQHK5du1bTiGESKTSpFMZUCSmEhFAACclP+Eyqe1HDuGlkL4voeSUvrIKXVu7CpC5KymbMmJFa2qZPn1648JnI3TPPPJP6vVEi6Zc9E1lMIolBFUS/HKYVwzRSaDJ8TCEkhAJISG7HZ9iQronwRVX3bMieqegFVfL8ohcleEnkbnBw0OjcNhG4kZGRxP2E9z3Tpk2zelCsWbNm05+HhoYSS0Xce5II5OjoqGaVxCBBDKoe+iuHpmKYVQqTVgmjhJBDxoRQAAmJPCbDqnx5CJ8/eesVPluyZyp6QZLnF7S4il2U1EXJ3MjIiMTJWpwMTp06tS8Hzdq1azNJ35o1ayK3CftZnCwGVRS9shclhyZiaEMKvUIYlkgOE8IsFUJWBwmhABJiVfryFr4o2UsiemklL0zwguQsSur820fJ2+joaGhfMWXKlMTvscHg4GCgNKxbty7xe4IkMkz6wmQx6LUoQTSRwzRiGCWFRQohZZAQCiAhVqQvLKXrX28vSPrChnSDhC+suhdX2Usje1GiNzAwECt5QYJnInZ+OfNKXJy4jY6OSpj0mZBUDKOkLY5169bFvt/7c788Br03ThSDBDFIDsfGxtREDNNIYVSlMKhKaCqEQUPGXhn0rk8YlzKmDBJCASSUPiPp81b54qTPW+XzCp9/+ZWoCl9cdW9oaEiSyF7YvDy/6AVV8qK28QueV7B6ohYmXVEyl0TUgvbRjwpgVPXPVCyjpLH3uvff8W/rFUS/+AVJn8k24+2pSaRwZGTEqEoYVyH0L0fTE8Kg6iBlkBAKICGR4pdmeDdO+kyqfEmEzy99ccJnUtmLk72wn6eVvHa7LUnELE4YvfuYPHlyqoNhbGwsUb8zMDCQ6sK/fv164+pf0mHjTqejSeUwiRiaSGFYpdBECE0rhEFCaFodNJFB02FiiiAhFEBSYemLE780c/rCKn1ppS9uSDeJ8Pnn6qWRPb/omUhemLxFyV2U0HmFLWybvKt9poQJ3/r162OFMkwY4yTR/54wOYwTwyRSGDS3MIkQRg0ZZ5XBuMqg6ZxBVgUJoQCSBopfXJAjqNpXpPRlFb40smciemGS2Gq1JEzs/FJnKnOTJ09OLX6dTsfofe12O9UFfnBwUL3Sl0Qae+8LEsVutxsrd6ZimFQKo4QwqEIYNGRchAwmmTPYk0GKICEUQFJT8Zs1a1boMK/tap8N6fMO90ZJX9SQrqnwBVXm4mQvrJrnFz2/5MUJW5AoeqVtaGgoldRFvS8JIyMjqWRxZGQk8udBYhckZmFy6H9/WNUwSgr970kihHHVQ2910Ct7/nmCaWUwj6pg0PDw0qVLlSJICAWQVED8oip+puIXVO3zhjlMq322Kn1BYtf7cy+Rm0X4TGQvregFVe164uaXNK/QeX8WNYdv0qRJRgeN6TxA0/l/GzZsMNqHVyD9Qtj7mf/1qGpiT9JMxNBECk2EMGguoT95HFUdDJLBJJVB06qgNzxiOlfQRARZESSEAkhKcvx4n9Jhc6g3qfh51+ebPHlyYLXPH+QIm9PnT+zakL4kwhdV2TORvTDR84pckOD5xcwvdHHi5t3n4OBgrgff6OioUfUvSMz8wtj7eZggBlUQw8QwSgqDKoVJhNCkOphEBk2HicMCJOvXr9c8RTDN0LDnaSOUQEIogCTvqp9N8Qsa6jURv6hhXhPxS1Lt879uW/qSCp93+zDRM5G8IMHrdDoSJHP+IV9/BTFp2jcpfqnzDw8HSeHo6Gjg6959xclhlBiGzRE0EUJbMmgyTJy2KhgmgkFVQRMRjBoaNk0OMzVMCAWQlLjql3S4N+kcvywVP3+1zxvmMK325SF9NoTPK2FRoueXPJPqYJD0BYmhrYqgt+IXJ3pBcwXjqnxBchgmhgMDA2pDCPOSQdOqYFCauFcVtFkRjJsjmNewMKuBhFAAiaXjxTTkEbeOn8lwb1SqN+kcP5OKXxHil1b64oQvSNJ6whcle3HVwbAh4zBZjJPBtBLol7+oIV+/1AW97hfEsCpflBT6hTBIAOOEMI0MFiGCJhXBJHME06aGk1YDY0IilEBCKIAkzXESJH825/rlUfXLMtSbRfzylL64Cp/3tbDKnv+9QaLnl8SoiqFN2bMlhWHDvV65ixLDsCqff79hQuh/rw0ZDFpKJqsIJh0a9ieH+1ENNBkSZkCEEAogqZD8ZZnrZ1L1Mw139F4vm/j5K3Vx0hcnfFGy5/9Z2GtRUhgmkKZyGDTsm2RuX5DkBb0WJoVxQhgng0GVwTyrgklF0HSOYNywsPfvNuYGUgIJyZ8Wm4CYCKB4es6yyN+6deukJzVDQ0PinePWk78NGzaIR1qMqn69ymKQ/E2ZMgWqKt1uV3ri5zhOpPy1Wq1N24yNjcnQ0JAMDAxgdHR0037823n+LK7rysDAgKiquK4rruvKpEmT4P17p9ORdrstIrJpu957REQGBgak3W6j3W4DwIRtRURc15XR0VGn93q323VERIaGhsSLqk54rdvtOqra2/+E13r/een9zHEc8W4T9l+n0xFVlVarBe/v4P2v1Wpt+h7827fbbXFdd8L7g17rfde9v/d+pqoyODiIdruNXjuN7wNjY2MTtu0di67riuM4MjQ0hNHR0c3e4ziOtNttjLcBHMfptUdP9KTb7cqkSZPgOI6MjIxIq9Wa8Ofez8fGxja9p7eN4zjiui663a44jiOTJk3Chg0bpNVqYXBwEGNjY+h2u9Jut9FqtWT9+vXSbrc3vdY7/lzXnXBT0u120el0pNPpyLRp07B27dpN20+aNAntdlu63S7GxsZkbGxMBgYGMDY2JltuuSXWrVuH0dFRGRwcxNSpU7Fu3TqMjY3J4OAgRkZGZJtttsGaNWswMjIiQ0NDGBoaEq98r1+/ftMN0+TJk2X9+vVYs2aNTJ8+HQAwffp0WbNmDTyVRjnssMMwf/582W677QAA119/vcyfP589OiHjOGwCEid/QYEPP8uWLcs87JtU/jyVi8Cgh8myLiMjI5su/gMDAxOGfKdOnbqZ/IVV/byVwXa7LV7581f9vNv3tult1+l0Jvx5aGgIjuOIt+LXarU2/b3T6YjjODI4OLjpvd73jF9MN23X+693Ife/3vtvcHAQg4OD8L7muq4zadKkCX/37s91Xcf7Wu+/oaEhGRoaklar5fT+bErQe/377/273s/i/T0mTZok/t/L/9lM2qb3ffSqqT3Ja7Va0qt+9rbrfd+tVku8Vdree3rb9N7rPw68x9XkyZMnJMF724yOjkq73RbvOpG948o/B9V77PaO695xP23atNDzwVeZlKhzzH8u9s7RtWvXyjbbbDPhXPZO6QjrB7zzgv19SK9v8YbLvH2QF2+f5enLOPpFKIBsAhIlf72qhLcjDar+zZ49G/4OOU7+vHjn/AVdIPzDvt4LUZD8hV24gi5sQdVA/7IuWYZ8x8bGpN1uS9DafH7x68lB789e8Ruv+ESKX6/6EiR+UWLj3ZdXosLE0S9UQVLXarWcVqvlBIlhu912TP4LEr3efoNk0b992Of1y6tX3uJk0C+CvfaOEsHe9+epAm+qpnnf679p6B1jkydPRrvd3iT+flHsSaD3mIySwJ4I+sNOUedF0LkUJIH+v/sl0HuOe89pfx8QJ4H+G85eH9TjzjvvlDlz5mwmgZ4+jRJIGg2HgEmkAHqHfletWrXZa8DEod/eHb63+rd+/frAKoF36Ld38eldEHoC1tvflClTNsmPt/rnvWiknfM3MjKyae5a77Xe323IX9xcv6B5fmNjY+K67ib58/7dP8fPu/3Q0BDa7TZ6Q8KtVmtTtcn/Wu/P/r97/+wdZnacfzjXwMAAvMO7ABy//AUN/XqGbY0qgN1ud7Ph3t7PesPl3qFh79/9v2O320VvOHZgYGDTsK3/z61Wa1N7en/mOA78r/WGh3tDveNDrOI4zqb99N7X+346nc6m38O7vWeIGN4hYeAfQ7wDAwPwDgl7h43DhoR7Q7m9bXrDwePH56ah38HBQSQdDm6325g0adJmw8HdbneT7A4MDPTkccJQ8Pi5vGkouHej5x0KHj8nJ3RM/qFgYGOCf/x/NxsK7s055FAwIawAEkO8F6AevTvqINJW/7zDP1mqf3Gv9y4S/mpHXNLXi/8ZvYF3VQHP000if168VT+v/HmrR555kIHbBEmjN4Thr/7539urfI0LNEQkdOjYX3nzytr4vmVwcLA379CJ+m9ckGRwcHDT+3uEVSL91bue7Pk/R+/93mpd7889Wem1Q+/v3rb0trG37b3VPf/7vNVA3w3RhP1EVQJNjjWTY9Y7HOw99nvngv8c8Z47ac/BsCpgVF+QtAoYRFCfFdS3EUIBJCRgaCRs7l8QM2fOjN0mqKP34320Ww9v9c8/1Ov/+4wZM2IvSkHDXl6CHssWV/3zXux71Yq4i7ZfEnry59/GK25R8hf2viD5C9qm97+9n/cqa35RCpKqgYEBDAwMwCtsPZnzDuX25G5wcHDTcLH3Ne/QcU8avULZ+3fCZNX7e3mr1t7h2SBR837mMAkM+rmpBHq/W7/cmxwr3jmB/mMyaCg4apsggs4J/7njP7eizkXvORt1bqfpI0z6mpg+jMPAhAJISL8JqvKZElaJSIp37l8a4mTRT9CTNGwQtnZfkm28otirosW9r7ddbwixl0TtiZq3GtjtdjdVAnti1/tz7309ieyJZe99vX17/82g38src97PELeQddK2sknUMZH0+CrimLdxDmY59wkhFEDSYPyPqioT3ic39JOop2fkRavV0t68tHa7rWNjY2i1Wt6FjaE+Op3OZu/v/e7+99e57UyPpbIcX2U+BwkhFEBSAL1HNkXhffyTpxKR6wUk6ALlXfx2vBKRu+x5twl60kQSCQl6vq1/ceKwfbfbbfUufOx/n+u63oWBN/3M+3rvz+12W3uC15O0nsy1Wi11XVdd190keY7juI7juL3X/f/1ft7bvvd6q9XSnjT25LD3u8X9fj0R9W/j/+z+P4d9B972834H3sWbkwhk0OLTRcid/5j3nxNFyF3QuR/UR6TpawghFEBijgKAN+zrXVE/DO/K/D28K/gDwMMPP2z8S/SeHNB7kgAw8SkDTz/99ITte3/vXax6j7Dq4X3WadBFLui1devWTbgI+5+sELSNV856KUUv3tf8YjAyMhL6NAmvkLTbbfULh/cJE0Ey13ttdHQUfvHzi5BXpno/Hxsbg6pqu93eJGTeP/f+3m63VVV1bGys9/4J4tftdt3R0VEdHR3dJHr+/3o/73a7E0RwdHRUXddV7+8S9Dt4/9z7XXrt4pfWOPnrbRMkjabfhV/Yvd+tP+Xq/d7Cjp8gyQx7Ooj/Ne/fTc8H77njPbe8TwYJOhf956z/qSAm+PsMf58S1vf48fZhfCIIIRRAEsNZZ501oYOcN28eZs6cOeG1JUuWbPa+HXbYIbBj3WKLLTSgAjHhtd6yDXEVAn9VIqhKYbKN/7FXvYqI9wLa+7NX9MIk0PvIrp4E+gXRu03vz94KUJgE9uTGKx7e7XviESRz/te8AuMVRO+f/YLlFUFvZS6qiteTMC+96l9P9Pz/9d7vf1+73Y6tHnorjT3x8wuqV+r8f/aKoF8Qg9rWK3+978Mr0L0/R8lfb5ug48J7vIU9Hi5M/rx/jno0XNi5YPM8CzqH/ee6vy8I6zPC+hh/X9R7JFxUn0YIBZCQgCpg2B20l5122kn9d+LeoZmwKqB3iKf3595FondhiKsC+h9MH1QF9F6MwqqAvQtf77UoCfQ/b9WWBHrlzS+BGzZsmHDh90tab3u/hITJnF/2vH8P+i+o0uatxPXoVey823Q6HbfT6Wz2elj1L0jwHMdxe/vxv97tdieIYq/yaPL7e3/ea4cgKQySRq9899rdv533GOh9j175835/echf71jN8lxg7zkzadIkjav+ec/JqOpf0DOB/f1BVPWv18d4q3/evsig76IIkkbD5BWJPT5UFZ/73OcEiH4aSG9BaO+aXL0FoaPWA+wt9+Bd1Hnt2rXiXSOst2xE7zm948Il44I04ekfQQtCz5gxY0JKMWhBaO/rYWsCepd88T9pwXPRS70otPfP3uVF/EvDBK0N2PuzdzmS3vu9+/MvSxK0BIx/KRlvmta/TVhC1r8P2/iHuXsEDeF6xdm/D/97wub5+efomQy998TP+/ekVT9g4rCvd5u85c/7epj8eW+wvH/3yt/69evVK389AfRWBXvVP6/8+at/PQH8+9//vtlN5/LlyzWs+tcTwLPOOks5/EsIBZAUIIEzZ87EihUrcpfA8QuXJJHA6dOnb/p7kAT2Xo+SQK8I+qXOu13QM4GziGCYDPpFzUQG/RLnl7cwKQxbczBo2zBRTEKQ7AVJXpgcBm0bFphJIn1+sfQP9doSv6iqn/c9/gp1kPyFSV7v9UmTJqlJ5c8rf2GVvzTyN94nUP4IoQASVgInSqD36SBhEuj9u1f8TB8PF/eEkCyPiEsigv6nhZhUBcOqdn6JNBHCMLELWzPQVAjTVv3CZND78yDRC3pfnPCFyVtQNdGk2ucXx6TiF1X1MxE/r+StWbNm05/DhHC8bSZUAf2yFyZ/U6dO1aDQB+WPEAogoQRivJIgO++88wQJ3HHHHTf9uSd6PREMkkCvCKYZEg6rBtoSQf92o6Ojm+SvJ2STJ0+OfdxXnAyGCWFYVc9fIfS+ZiKGRVT+slQC40QvSPa8r0VVC00rfXHS15O0XuK3t1/vvNGsFb8w8cta9Qsb8g2Sv6A5f8uXL4dX/vzDvt45f5Q/QiiApGIS6BXBngRGVQO9j4CyNSQcJoL+amAeImirKmgqg36hC6sQJpFCvxgGiV3c0zXyIKjKFyaK/uVWkshelPAF7cNU+tJW+/IUP2/VL0z8bFX9vPIXVvXzyp838EH5I4QCSPosgV4RnDVr1oRjatmyZTJ79uwJEhg1LzBpNbBMItiTtt6zVr3VPv9rpjLYqwwGvddfMfQKYVSF0CuFJmLoFzrvvxH0TNogWcwLv9T5xcy/jclcQe97vbIXVuELEj5vRS9I+Pz/jqn0BS1J5F+Hsh/iN/65Auf6Ja36eeVvhx12UH/ad8mSJZulfZcuXape8aP8EUIBJBWvBpqKYNywsKkI+oeGxy/UkYnhJFVBrwzGVQaTCqF/+zgpDBI4rxiGCV7cvL6o6l9aMQwTvSCp81cEo56gEiV6YdVBv+yZVPiihC9Jpc+02jf+3cUme3uyFzfUGyV+aYd7WfUjhAJIaloNTDo30IYImlQETeYIxlUFk8hgVBUwbJjYRAh7ghYlhEHvCRLDIDkME0C/JEZVAosm6AkZfrkLqxAGDRkHyWOQ7PmFz/97xAlflPSZVvqipC+q2hclfv6/26j4mYqfV/5MxA8AhoeHleJHCAWQlEQE/cPCeYhgTwbjEsNpqoJ5yGCY4EUJYRopjBLDKDkMq9b5q3v+bfolgn7hinq8Wpz4RUmeX9TSyl6aKl9R0pe02tcTP+8cv7zEb7xf4XAvIRRA0jQRDJojOH5hmiCCwObDw4B5VTCJDIZJXxoh9Atb1JBxlBSGieF4GxjJYZQkhklhUXP/wmQuTOhM5S5M8oIkM2zYN072/JU8/zN7kwhf3M+SSJ9Jtc8rfv5q3/jvG/g0j7A5fhQ/QiiApEEiaDpH0BsWCZLBLFXBKBkcv6gaVQaD5gxGVQejZNFUCsclR3wX+UAxDPtZkNR5q3deSTQVxTDClrdJQ1C4Iun7vX/37ito+Dhqbl+c6I3LsUa9N0j2kghfUJUvaE5fmPT51/OLk76e+GWt9gWFO4LEL2yol+JHCAWQVOT4Gh4eNhLBoNTw+MUjVARtyGDUMHGS6mCQEPqlzy9+3mSxiRT25C5IqvxiGCVvUYLYe90vglHSGCSOReGXwiCZ82/vlzUTwQuSvCDR620XFuwIk72wxG6YDPqFzyt9Sat83uFdW9LnF7+gal9Qqtdgjh/FjxAKIKnSsZa1KmhTBoHg8EiUDI5flDf7N5MKob9K6Be/KGn0SmGQGEZJXZAgRm3v36/JtmlEMonohYlbGP7hV9Nt4wQvTBZNRC9I5vw/D6ruJRW+8eMmtMoXNaev9/M8pG/8nGa1jxAKIGniMWdaFbQtg+MXtgnb+quDSYQwrkJoKoVR0pdkmyhBNJHEKFFMIo39xkQUw8QuTO6C9uuVPBPRM90mSvbChC/oNRPh60mfV/jGP9tmc/psSl+U+LHaRwgFkNT8+EtSFTSVwSAh9AZIooQwqDoYJYRBUhhXJfRLYVIxDJND/3By0LZ+QYwSOm/lL630+YMsWfAHKNLKoMn8vSDB84vb+HER+HrQa6aiZyJ7499rqOyZCF9vmzjhiwty2JI+VvsIoQCSBh+LQZXBMCH0zhmMEsKg6qCpEIZJYdQcwiApDKoUZhVDIHg4OUwQoyQx6j1h0mgikUVgKoX+al2UrEXJXdh7woZts4peXGXPL3t+4QuSvaTC55e+MOGLm9Pnlz5W+gihABKy2XFpqzoYlyiOE8KwOYRZpTBKDMN+llQQoyQxTvz8Pw8Tx7T7TUuYlIWxZs0ao/dF/TxO7kwEL0ryon6WRvb8wuedw5dG+LzJXb/0ZajyUfoIoQASEn2c+mUwixCOX9wih4zHL5ITXouSQq8Yhg0fh4lhmBwGDSX7RTBOEHuSGPazNMJYpOzlJYUmQueXOL/chQle0Ou+toqVvDjR88qev7IXJXvjnyNS9sbPB/WdS6mEL0D6KHyEUAAJsSeEccPFfiH0S6FJlXD8Ah9aKRy/GG/2PhMxTCqHPaELqx7GiaKJEJpUF6tGUJUuTupMxa63Xdg2JpKXRPTGj63N5K/357DKnl/4oqp7QUO6fuHzSx+FjxAKICF9E0KvFIYJYVIpjBLDqGrh+L8TWjEMksMkghgliaaiGCaGpu/rtyjGiZlf5JK8J07swuTOVPC8khckev6Knl/0xo+3WNGLk73x4z9wP6zwEUIBJKQyx3WaKmGcFI5fVI2kcFwcJlQMTeXQRBDDJNH/3qTC6Je6JPJYZkyreFFC55c0E7mLEzxTyYuq6AXJXtQwrqns+YWPc/gIoQAS0igpTCOGaeQwiSAGiV6YKAbJol8aTcQxrUwWQZy0RYlckMzFSZ1f7MLkzlTw0kheFtGj7BHCiyIhlMKQ4eM0YmhDDj2SELhNmBBGyWKY4EVJo6lEJsUrnX7CRCwNUfIWJXJxQhcmdVFyN/69xf4+aSQvi+hR9gihABLCc8J7BTQQQwCZ5TBMEE0lEQivJsYJY08a47ZJIpT9JErYokRu/HuJ3SaIuKpdnNwFCV5ayQMAih4hhAJISA7nS5AYppHDMEEMk8SgUEoaWUwijklEsoxEiVsWkTORujCxC5O7OMEzlTyKHiGEAkhIH+QQQKwg9iQxThDTiKJPToz2n0YebfD0009P+HfTCJgNoiTOROiyip1X8LxyFyV4AEDJI4RQAAmpwHkWJYhhkgjAWBSBzR+RF0acPPrEJLL6WGb8S58YyHasSIWtjxcldsDEyl2Y3EUIHiWPEEIBJKTO52KcKAbJolcYk0pjFpHMgl9CTeQrC0nFLUrmgoQuSupixI5yRwihABJCkp23JsIYJY5hEmlLJvuNV9rCxM1U4hIIHaWOEEIBJISU+3zvSaSpSGYlTERN5SsLPXGLkTeKHCGEAkgIISXsVyhmhBBCCCGEEEJIFP8f7hlAxdKegJMAAAAldEVYdGRhdGU6Y3JlYXRlADIwMjQtMDctMThUMDU6MDQ6MjcrMDA6MDB98AAvAAAAJXRFWHRkYXRlOm1vZGlmeQAyMDI0LTA3LTE4VDA1OjA0OjI3KzAwOjAwDK24kwAAAABJRU5ErkJggg==;" vertex="1" parent="1">
          <mxGeometry x="713.38" y="329.5" width="176.62" height="194" as="geometry" />
        </mxCell>
        <mxCell id="Z_9xBYdDylWqjb8Pn6Dy-4" value="" style="shape=image;verticalLabelPosition=bottom;labelBackgroundColor=default;verticalAlign=top;imageAspect=0;image=data:image/webp,UklGRgAUAABXRUJQVlA4IPQTAAAwcwCdASpoAUYBPjEYikMiIaEUniRUIAMEsbdyqzihAepBv8v3L2F/Ff2b9mP7R+1PXv8299uadsTyi/Jv1D/h/3H93f8389v6//hfZV/bv8p/o/cC/qn+I/qv5Y/3P64ehL/regn+Lfzn/Rf4X97/kp/xP/n/1XuG/u39i/2H9r+AD/J/2PrX/49/3vYZ/jX9s/8/rw/tf8Q/7g/sl7lP+H/+PZ/9Lvxz7df8r/c+qK9We4vM5iO/GfsT/N/rHo34V/HDUU/Hv6n/of+v+0P5T8gOAX6X/57jQ+tevK/fuhU/vfAz83X/akXrqFlzGlGqZVrPVLJSSqd95Hde7ff1QqbuVAamfjP+ufyoXChrEnpWEatBcOLqa+NqkiD85U7UOQ25OMqzOqdg3kOtrjBR8nR9CfUlDIZ63Zhurs28aLz+GeOdruW8a9sCd9yz5fKhcKG1xgmrfIiM6qNR6ehcA5YxLsifBb6gg64oIib3q/9c/lQt8t75lLrOK/+oD0HxPgeg+JvXymyeJU+To72aU9r6hb+yDlLyb0nLTKRjkOTM2MQiatrjBLWaIs+11C4ZXScH4nNjtDX5I5Oj52oMRYUsTJJTHy4AV7tEMoSeFwR4wNI6fOmBRoGIebEsKdCn8XVIJaFAnKSIU/ZPn+b5HAogWgQxRRkGa7NKufAo7L/k9c/lIGqtEu9rPiVEODLHLFY5UNMB83puYrV3qOv3otB0li/+07HDDuyGPTdtSz2vV8+MMPp+H5HBU1hWSI14/obMOXChqjZ7oJUYm6Mt2w4X3KQtfv/MbrjtICHhQTLHqSgm0ljBSl3HXwUvYIi1igfABj1oEm8lkj1rM3K0Rz81/rtQuFCQSSgAX1bluM7SMk+qMFkIXx/BPcWXk1RlhUL1vTe0sTY1oxz4h49go+S1A3lbofyZXabFb9uSVainAMvgu9gYR0OjP5/aezKtaDYvrqEUriVJ3XDgNt9P5u1macn4hBjo9cGBDCUWVXkKqg9r3MVUDY5D29DMhrhQ2uL+ZGzDl//0aTuwql0vlxFlTbx+pgVb826GWar/cNfoOfjP8uxvpo/65/KP3EV9py8EAC1iHeKHGpTbVvU3Qp+z/N3a5/Khb5QJ1Inx3XjHFrEAFY32AyCa8pYt+JvIrSfQWh9F99QOX5X/0sulKbD+ufyoXCilugIeI2uOxMAG03zbNDAXFM3dAx+p8iZ7T5Oj6f9c/lQwo3P5ULhQ0oAA/v+yx1KTBEeyveBfrwQPtO43HkUYziXZdpkrA4GN1FegpN1MJGvXKaEg5A6aVJnbGAZD8iY5XBXzaL1BPM6R6+Rzk/F/Au+hMCTez/qbfFl5u8CY2IGW27M4y//g8SF+9w//5oD3ZK2R3UYLcC9zc1hgBlfcnfpe0+PSqMsl57olG9TGrjVXNtNzxSl4u5HgL++K697j9/yE1oURNqP/pfstTeIBkoa6MNILj908jT/UOqdv/9cvMiPl8jfailXohtxx8K/DGVHFGlNnduxKEsvfAfCfENun2FCYT7Oh1727UVYTggib8skcT68t6CGnLA1uuUgGPx/uiQIg8WSoOyXVZAh31Ah5Mf7MfMVK+BwHaO69mBETLI8a/4Aq+OLrFgHGqvijQQVf2vmmOr6Q/EZoQAleFmIrUokkymidx9MPJUOq5hApOI/q8wUX/JByCsiRh/N9sBxE3bMfKYN+dY/Cnsx4OFf6e8PPmOJxmuJnSezDrZaSm/N7/32+A2OD8fv3Idf7759/Gxo9ubWLUm/pxARikM6fsM9nsD/05uVbPHMq2RMesZYAAL9zKee0yFqsYlDAm8YwdqUqZCvP+OtCqARcEwC4mgMlxYz+ImuB1qvxZ52sOggYgnD/P8vKJrVurFw7pKWavS39g1jhEXgWoH4E6H9p/N4rkw37pc8tfk0Q7wL/n/eE7f8XYbw6v1Wk6b1QQVqiEyzaiYklK3xONwHA3vcPsrlJ88YymzXcg05GmMbBzinkcCaxp5iiNkT19yzvIL1Yk+cr2RL26/JKVWdoRgXnhqyZk3hg/BD2g8hBLnuWLuV3iwfHHQUalDdBvE/h3mDTqv+lwjnnSq6IcbPP26d1P/e3N+bJ00Np3VmAwNbB/tRtPQK/UTkTgtSXQgwIuDHLKSHZ7ukkQipxoDWZEk2RACxBPezwHl5XY4U4AQgMz8bbcuVlVQMSEEoHKzHXogAlYi28ixBtCbv3SD6ClBJ6CAAOXfnaSAieSNzTQiQzFuXt0/rN5VHAH8nIKCgqY4smUv/HiIIioQDJ2f1IXpaGBZN4htH8weFnWDkPRjjsyI1wZgm8xpmATjtZC8DVESv1ycZ8oBYf/G3BIriY0uc79+nHJhOm3OrsjRaatlulNdlZ1knD/1gljWIzb516F2ep5TwcmX6QR0rwksn6Z6wnH30GsT5J0Ph/RhZmw87c2YMEH5a47oOrxdS8OCx7u14gPlZQTgvHoLMmCvzHcZ12sPPs42R2MHIJGVF3rrjSEVwuwBLWjEHCwp0QnjC9dRhVK9s+qJ/zcApQzkBVD8cmVGNhUtiJ9L2wZEkRjCRKNKbsu4bA/2cwO9GE8lK/BATgnxQw+Tnik0Y6VXtI84Pftc1yQR777FJndZo8CApvYJbQn0Q/kkLIHOVVsE6ur8fxpW55zlSV1QglW9LBu91SdcFHG1u+Eiu3P7JNGflGG9vY9qyjlKjPV6aik7WJ4+WeJGGl1HEsZUUqNWDAW6LQbEPP4yDDmonOobJrtJlJO8v3IbEEn9OdwrZ8S0iJZyPnxpO1I5RcFep3HizVb1TDa+22n9liKt1NECIuZPc27zQLlA0nJ0/Q2Y2+Ff68DFFvmLNMfjxYuEULP4NPeiyEPpt/nfidtbk2oP6w1twSFi/mav200lOe+Ab6aQqutWGYXzty8t9Y7hE7L1akjE3gWeeUtJzOy1IjlQSVfYu9F2iXYeKVHSG2bvX0St6PNuyhEuDRA3CpCpitFc3xZjqRB/KioDJajJCKL844zbrc9zU5onmMS8KpTsWdF96xrfdzQdOZIXkmlUVezy4eKou/lCt19ANgP01WQ/cqdwwoHcIyr+szGt9EuPytz+7D9zJHuO7LwaZHWqRuUfV/pyhYxCc/EQpXEv25o+STkQcvsL4DcCvfgTAupV1pKwz98Bj/A35ZKa3w136LzQiy9TOLjzTHto2ir1lHBYsrz5GoW579nqHbsIzJ/ZnzSE9vYYHr/CurMss2fH4pXEL8UQ/9UPxzjNheP4Q14RKVstH58kyeuMvQ/GOmY3CSRZpfurN5/dMnvnAq0bDHcjBBx+s6YyfbbZ+G/DcU42Zfj84txR7LJbNFWJ9OaDzOXINX1pq5Gq5/viffKcM+us/p6CqYtUWNC7jWczfpK1uels/3X+wGO8CQR1UVH3Bmvk8+Ix9N78t5c3je78XsMIUjEhZqSSIOloCu58WTS1nvwABx0b10y3gjHK7/A0sbZ9iiANLlIK+PlJDYOzdrduTqKnxeSA4vG7uYNemcSpE1V/boIBfRzZjyBwBuQB9Dsp9SzVfCbP+dHFBZ16kTCMnhVILSMXWXiAH2P8qQotoklaeZdIaixQ0vQEZfNKONfpnT9MYcYp22IEVurMP1TqxpK6/N4GZPeB+A2pL2YhMoqrGRnbwqanwSa2FLjClCycD0JvHtTi7v1AWNmq7Qzp/FRr2nvenRhgxkTYq0aYkphfHnFzY37RuYpE9Rj4Xm6mfxvfedG5YwBBloXNnOmQfvcCWkz5Ui6f0XPlByAKOBrrcwW4F7HdTLWIylS2aTBeMwgmQ8c74TbrIHuz9wndH+WNX6u9rHtNdfbaOV27raSNTw9WbC9nzT0G/ucBPM7MGdDRA8oFrkXoD1xRIjhO9esqsdka8RL8ANhSKZWOx34TdHR9CvaxOHNSIaGU6EvARLgp5hp4wWEJCGU+ETn3k8jyHNZM/I6rFAuUGzwPLOR56HOcoQw0fNAHjy+HtScMbeVrq7SPIjB/6BPpb/pUKnAOmbQHjAmeg5yp5BkegcBI4oxI2eVewcVpfBqKSMOW+c2pXPlsxS5iVxYCpB8241O85no7q8e+PULXnIL80IojjsTBjw30QOgNsaHHxv6lh9lK7HreXblxoGU/3Wbe/5/B0UUwR8rkvrH5330W7cz/nH4jEILtfZCDfJG380Add+9YG3SuR8r+gsckivjAy+2WKNqXJ53TaSfZ4E0MIsmc4tauGz+sqegS2esOVCfw8UWvBW6D+qLrpb72pp7F2vPfErqtp4rfHVHZcGjPHAJ6eEpB04qHqnmC4FiJeRB8a06Wxilo/eHYU3wWC+jdt6C0tS5pKlF1OJy2Qnbjxta3Ccg8YLGB35eeOHFsJHaXGGUhMQPv9j8o1TGOaMUSF5Iu1S45KQqJqKJTi4dHelVYwXJrvqWtcXdTdMHY12loGV0oFsH+N/U7qQ2FaXPbVabE/xJx9Cr5MdMfRltbvfJG0Vdyj8yX36tiXATn+KJOvsLmALV+yWRM8PZ+RouTcKMXtAwRfUqJx8497NyUEz2n5LiQTv4DZcbJOcb6Hnv5agv5ya7x+smzWfP11gKio8hsH4VJAND7/oJKClUukZJGC3SgTi5v1xv1rN2PTgwABiAVZ6YUHkkez5wEQ6tyrS4ko5S98JF48xzHM0i2/1WLVKXhBpoxv6pxtTnfFrMHuDEBz/8sL8+Ukp0oT3aOP+F/9zpJsuFh0j3K6vSPDx9KQ4wndClFFZlRnBHBDE1rLfFCrogkfa1b/2yt6bciYV7AgmUJXFm18+mmnv5RhNcub3DTSxyS0kK0mfcg3Fmf65Vqm84rVLZjybmPt4v6jWDp0wZdIU6nu3fXJNfSA2PVk2GgcQTJO40wZBGRoOpjNqwMQbJx7HKyvjWGv0j5UlC1oPvsXRBCB85p7G6cFbzteK5ByW9Y7YHPdotccGQMI6ZCVTJUiMLismn316ZeQdfeg/uvTZ4tI7GSUwhukFQSf+sy6hw9/DmHWUX47tKnpb8WAIREQncHvEydLw1KJc28jW0wM5Cp1pbruvbrcUM6hhtIFsRGj0pjgLiPerf6TpjIdn25KRW+TWVmIKFobLX0R0FdyRRgxAgllwWT+fQATRyx9X5wzGw5iE9ZrpuydRQfga/fpeAGx/AF07+HccL9O4ClL6RgiI+JwAur1bfuGhvy3whoIAWhgXFrW+IlRCdbn8M22a0j1wVy2uPWuz5a6hs8S+r3BOvNLkbJk/BWdfMBr39HCLzyQk8ocO2rLdXw5cbDoqfI3jnfEOO055GXxNRw6SlsV0XwnbWH7pwpWTYbbG24rHUIBQZin/yc19Suj4fC55qzbIvA+871biFcRLZZexZ1Tsj0VcRrKXymftoflnGqXC06Hsr12SCvj/Oq34Y//6kti5TV3LMgZEdcgIIGJn7q+9b8UX7OjnP6vh3PqIecbBv+aevpQsokWH4tdR166PHQBknDJG2XGIRsByT024F2rp3yf/hmqeo8omhcueplfwLaCvOxqNUWChxO+usuRwbBFW10icbO7/+okiYGgvwTUhuPVTqtzqBM1bXikP/pXDTSqAo91ahILF5b/qQw8TY95375yNNx6B/8HdSBMThY7sSXaGDw705cBqem84CTTB+BwPbhWkJUT2qr4RBMHBZ4BDiiJt1ZZMLnXr5qayuHqkHNHGqS2Fg6W2AAEEWElPdi5O1h/bB/tegYskDIzpcT+cRwiHjb8hZvjQYS3/zo3oeKz1Xx9GwMEjZVlg4WjHRy5UattnXn5xtgzYaXT2oe3WwQttp+3ldnf44WbbXVeYvjJlFnZWHCsLsSR8k+QfVe7lu05BKzgWIPZzLYPiw8vFVUkUNA41NCpQO0MAe5D+CXNY/VTpWa2kZpt6n3uq8O1U4SRckrlFScTyOld8fWb255vwvoyHQe4pskXL2mcRFGPhm7RlojJKl+Erouup5kiJg/bg1qIArI+lLzF5rJVUpfubsZZQ8tXi2cBWZ8BVPtEGi8h9g6PO5WzONrzrr8Q4tTqWQx1LonX2uJeOVq6GspHKxNsUxLRKz2XNf3eA6nf7F+La13QkOxI+cmze3XR2W9fWI2g8zosrdCSsABHVOpOe3KkzWTkqkjmKFTOn4thtc5JQtkNFe9g5eiNYNHBBuJTf6kjxizvtmiFPUhDw7KdaFrsPQjtRJS9jbrQsQjQaQVmen5p3gUz9oMrhiw0VwNAceAMJCZ1m75NOGTHq5WKoLw5YHjDifmiVus0fX1HdfveOVz+CSQevk8EB3Nt32ej9t3uO7FU5w3RhjLEpxd5HMgPyP348LlD9IDsto5NkoJ6sE0REktQNxIuZ0x85nzjOn3NHFyOF4rxAK8mLsgJ8C5TxSMtEK8sK20sgCh7fm3L2aHZRRgKsr5AB+QX0uOUkJ2UXaMxLebs8pEOgYgAEhS0nnlFP9hHbiMzjHtir1a9RXpJM2bLp0Ux2Xp0T+h8d/1TMHXnyH6XAu0E/1nwdrD027S6hXa56R4Ykl2UBuUOYOHNYaQPvvLY09Bdoq7Y82i0s/nW2HosVGl6qxD9DyrL8PJ9ENyh9zZlMItgGJQJfYM2ZDurRHUf19RcndI3hZrgulx33OwEEttpbfgNtc4Rn+Nv+GJ/N23FMeCQKpBHe8WBJnlYKZP30SDRclYzWWs/uF9sWgnt9R51zHh+WncKx/h657lKLU7kgEb+q7j7Wyh/Yt1uLygnddl3jYjv1xbQ0RGTBEaTnf9nM04DomGFbEj8nCiTbvcyQOUFqpCn7uAT9bD9AAAAAAAAAAA==;clipPath=inset(0.37% 23% 0% 13%);" vertex="1" parent="1">
          <mxGeometry x="370" y="329.5" width="160" height="167" as="geometry" />
        </mxCell>
        <mxCell id="Z_9xBYdDylWqjb8Pn6Dy-6" value="" style="shape=image;verticalLabelPosition=bottom;labelBackgroundColor=default;verticalAlign=top;aspect=fixed;imageAspect=0;image=data:image/jpeg,/9j/4AAQSkZJRgABAQAAAQABAAD/7QBsUGhvdG9zaG9wIDMuMAA4QklNBAQAAAAAAE8cAVoAAxslRxwCAAACAAAcAnQAO8KpIElTQ1N0aWNrZXJzIC0gaHR0cDovL3d3dy5yZWRidWJibGUuY29tL3Blb3BsZS9pc2NzdGlja2VyAP/bAEMABQMEBAQDBQQEBAUFBQYHDAgHBwcHDwsLCQwRDxISEQ8RERMWHBcTFBoVEREYIRgaHR0fHx8TFyIkIh4kHB4fHv/bAEMBBQUFBwYHDggIDh4UERQeHh4eHh4eHh4eHh4eHh4eHh4eHh4eHh4eHh4eHh4eHh4eHh4eHh4eHh4eHh4eHh4eHv/CABEIAlgCWAMBIgACEQEDEQH/xAAcAAEAAQUBAQAAAAAAAAAAAAAABAEDBQYHAgj/xAAZAQEAAwEBAAAAAAAAAAAAAAAAAQIDBAX/2gAMAwEAAhADEAAAAewAAAAAAAAAAAAAAAAAAAAAAAAAAAAAAAAAAAAAAAAAAAAAAAAAAAAAAAAAAAAAAAAAAAAAAAAAAAAAAAAAAAAAAAAAAAAAAAAAAAAAAAAAAAAAAAAAAAAAAAAAAAAAAAAAAFsuWo8gs0yFTHyLsUkIkk9AAAAAAAAAAAAAAAAAAAAAAAAAAAAAAAFCvmx5HqX7KVa+pncXznHPO7c5hvrsnwsgdEGRSITVm8AAAAAAAAAAAAAAAAAAAAAAAAAAAAHmKX496YWL6yi9jtW1BwZzAUwjzsti9asx07/70fYpx6LvHE5LftbTtvenHj5KjSx7jeCY8+gAAAAAAAAAAAAAAAAAAAAAAAAWC9G8zCLN9BTE6G5dr0aLHeTIx2Dw0azoI7ASBktg02rHecppWbnm67sHBNldvVvEDJO/He51hNawr5eAAAAAAAAAAAAAAAAAAAAAPJ6t2PRbkyKh41Jlsuka9ZeTW1jNYZZvXfCO4GgAAAC7aGwZLTZTn2vducypz71I4R0N6G6RJVXVjZV+CSkSUVAAAAAAAAAAAAAAAAAApbjlzzJvnj2x6uQwGq4F5k/H2tbcOc1fG+Y7gbgAAAAAAAMhjyNnuatk3Pt/S+LVm30U5F0t6E6FkTWFf8xSatXQAAAAAAAAAAAAAApGL8X3NI0tQrZ17SnDsmp+ca8rIYPAwI6b9gdgAAAAAAAAAAAF3KYYrsnvA5Kcel9E+dJ7f6DaRuztiWsj5Ws+4olKVAAAAAAAAAAAFh6I826CLpTn2jRsX4eR6jYTW4ZfCDvBYAAAAAAAAAAAAAACbNwvpTM5/VJM17tsfzNurp7JahZJ0469LhpvrV0AAAAAAAAAAiZDH5A8ap50x5V2zD1Rw5/VYiO8GwAAAAAAAAAAAAAAAAAC5bGQuYu8plOkcsrNvpu9qO3O3HTIcxYAAAAAAAAACJkMfkDTtM3PS3gaLjcjjo7gXAAAAAAAAAAAAAAAAAAAAAvSYshXuu36ht89uOmQ5i4AAAAAAAAAETIY/IGm6XuukvB0bHZHHR2guAAAAAAAAAAAAAAAAAAAABdvxpCO67jpu5T246ZDmLAAAAAAAAAARMhj8gabpO7aQ8HR8fkMfHaC4AAAAAAAAAAAAAAAAAAAAHq/YvHd9y0vdJ7MdMhzFgAAAAAAAAAImQx+QNN0bedGeFpOPyGPjsBcB78b4tpdPqrGNfmG5Y+jmfzz4+ruNrczDIAAAAAAAAAAAAAACt21cO8bppW6z2Y6ZDmLAAAAAAAAAARMhj8gaZou9aI8PS4E+BHWC4DfNC31fuuMyeMnq+Xvo/5x2WOb6O43r2GXxgYChUAABQVAAAKFVKgAoVUqAAV92/ae8btpG7z146ZDmLAAAAAAAAAARMhj8gaZoe+aE8TTYE+BHWN7aYno/Q/To1SVsFZuxmTxh8v9X5P9Hxz69of0Fxtpzbfte+kFNAym0WW2qc+7rRHyds8DrTHFZzeTfVLW31OTcv8AqnRFOEqbmw1zoHWZLfQ5+2Vm+n43oQ4FqGy9YjHTdz2421fXek1PmTE/UnzgwxQZK0Ld43nRt5nqx0yHMWAAAAAAAAAAiZDH5A0zQd90B4unwZ0GOr19P/PH0u6nPOh/My0Pd+eb4x7rjMnjJ6fl76P+cPo+MNl432TjbTRdi0rojHQY30TsK+Kz5O3zz0bnXRYx6Bz/AKBzZrx3pvLNyc/f4U2LPT8v/T3C/oCM3M+jfK6Zncfn/vTPd+TdZ461wffuTdZRb+dey/Oys/6J+aOvK9T5j07VJ2+eVKxxqPK3et60PfJ6sdMhzFgAAAAAAAAAImQx+QNM590DnzxdRgzoMdWZ+mPk/wCnnVkvmz6T1Ob/AD1vkPa4x6tjMnjJ6Pl76P8AnD6QjDZON9k4208dn0Hfk4rQcZzZT6Qz+lbrOvz10XnXRYx6BzbpPNmnF9y03cnP3+LKiz1cR7x8zfTEUtfLH1bzo4n3jnHWlNm4/wBg5I09dZ+f/oBGt/OP1jwpXROxaH3pGR0/cORTryqpHHTx7tr963zQt9npx0yHMWAAAAAAAAAAiZDH5A0vnvQuePG1KFNhR0tw080+qZHy5u7ftjlZbqmM5jgUaT9NfN31Mpe4x2fhK+Q7N8nbyp3fxzK406a5RjzA9F47srHvvNsTrrTT9y03LsPpqLyq06OY9i46YfWT562tv1px/eZts/I+ucbiOZd44PVz/WDhe3OjoznmsnR/njzZYAzpauWmnet+0Df56MdMhzFgAAAAAAAAAImQx+QNK530XnLx9VhTIcdALAAKOqLXOtE9Xj5j6PyWMahiAAAAABJrk/o5r8p1+io6eE/S3uY1cA7F83KeA5wAAAPNm9Yad66Bz7oM9OOmQ5iQAAAAAAAAAImQx+QNK5x0fm7yNXhzIcbgsAApUbfI0gvSooAAAAAABl/o35bq0+sHzFdafSuncKjIymMGIIAAAA8xpEZr3voXO+iT0Y6ZDmJAAAAAAAAAAiZDH5A0rm3SeavJ1iJLiRsCwAAAAAAAAAAAAAAAAAAAAHiLKiNe99E510WejHTIcxIAAAAAAAAAETIY/IGk806ZzJ5WuQ5kONQWAAAAAAAAAAAAAAAAAAAAAtxJMWdu99G5x0dvjpkOYkAAAAAAAAACJkMfkDSeY9P5e8vXomxYeJihqAAAAAAAAAAAAAAAAAAAALKUT15nfvXSOf8AQGuOmRJaQAAAAAAAAAIeRiUJOjb4Z8Ai9+5w4ec4rY7UZ66yOPb0CQAAAAAAAAAAAAAAABQr4s2Gly1N6/O3M+2blcXKQU+Zlu4AAAAAAAAAALN4Q5aMT2PmmI5h2kx+b7PaOXuPVoucjwxa7aaAAAAAAAAAAAAAAFuwtdj022dtU6T07Z2mOyKytei2LxYlewAAAAAAAAAAAAB5izBHmxoxkrdqSc55t9HwHP8AOsTo2huXFecnEi0cLAAAAAAAAAAFLSbljxdnWxlejdba6J0OpZ5i2k1rI9FKgAAAAAAAAAAAAAAApUWLUyhW7AoZDAZ30jg+r/T+lObiMbP4ljCSLEWoAAAAAAAeT1bt+GlfOf7VOvMO05o0LcJMqJdvlu6AAAAAAAAAAAAAAAAAAADz6EO7ftEpjZJ75r1Ar8wRvpbkrn59bkeIztK0AAAAFPFpb3b9dInXQOvdCyDW3cRFpUK3KI8qoAAAAAAAAAAAAAAAAAAAAAAApYkCHMpGJ6BNNb499D0U+UvPceQscWpSKelKqlLafdqmUnTFbX07oDXW9leV/VmLVPi/dqAAAAAAAAAAAAAAAAAAAAAAAAAAAeYswWJkWOZKOkHJOW/VuJZ/L9d90Fn5u7r2VbnHV5JqR4qb1q/dPPoAAAAAAAAAAAAAAAAAAAAAAAAAAAAAFKiPbmUK3cf6J2Ln+z0txSVCrKLF+oAAAAAAAAAAAAAAAAAAAAAAAAAAAAAAAAAefQj+JYj3vQAAAAAAAAAAAAAAAAAAAAAAAAAAAAAAAAAAAAAAAAAAAAAAAAAAAAAAAAAAAAAAAAAAAAAAAAAAAAAAAAAAAAAAAAAAAAAAAAAAAAAAAAAAAAAAAAAAAAAAAAAAAAAAAAAAAA//xAA0EAABBAIBAgQEBQMEAwAAAAACAAEDBAUGNBA1BxFAUBIgMTITITAzNhQWYBUjJIAiQUL/2gAIAQEAAQUC/wC8pGzL8ZfiummFMTP/AIKRMy+I5HCEWXk3RxF0cPkhk8nZ/P8AwF3RSebhD5pm8mRkIDDkqksvQgEk8ZgglZ/fzkZkIHIgAR638rBXVu5PZJUMrPXVO7BaHocQkv8AcjQGxe9kbCm+OR44hDrcuQVhvZSex0kMQEb8TyM7OwkQlQzZAoJopw6SQs6+MgdiZ/d3fyTmRIIes0scQX8yRIyIid1ZviCllOUlBPJC9e5HL0r2Ja54/NxyIXYmTszooXZxl/Nn90ORDEROLMLJ3ZmvZeOJWLEtg1Ztxwqxakm+avbkjUM8crKjkLFR8flq9rqYCTPGcaCRn9xORhTDJKo4xBul3IQVmu5Cey6mmjiGzfM/0Wd2eC67ITE2WPzNisqV6vbHpJEJp/jiQGxe2kTMviOR44WF+lmxFXC9lpZU7+aImFrOQZkZkZfpxyHG8FsS6AZRljs8QqCaKcOhws7sZA7Oz+0u6KTzcIfNM3kyMhAb2YZlLIcpq1djiU88kz/rwznGobASdKtqetJjc9FKhdiZOzOxQuKGRN7McjMmjM0ACPW9lIYFbtzWSVixHC1m7JL6SG0QoJBNlj8nZpvjcvWudTATZwONBIz+xkbCm+OVRxCHW3cgrDeyc1jpIYxjayLund3f0ou4vFaTOzssZnbFZUb1a4HQ4RJf+cbibF693Zk5kThC3n0mljiC9mCJETk7q1kABTSnKXqY5CBRTiXSKQ4jxmxOygminj6HCmMhTOz+sKVDERIWYWTv5Ney0casTyzmrNuKFWbcs/ro5iBBIJ9KdyxUkxewwTpnZ2RMxMURChk9SZsKYZJUEYh1u5CCsrl+ey6mmjiG1kDk9ijndkxM7LGZe1RfGZipeboYCacTjUZsXppS8miiZutixFXG7lZZU6ImFrWSZlIZGXsYu7IJvPoz+T4rYbFZUb1a7H0mjUZfEPpH/OdGQgN3LsylkOQlavRRKxYlnf2cTcUMjF0hmkhkxOzKGWOaNQelDkrZXfyVizFA1q9LN7YMjsmJn6aj2VD+/wCkDkrZemT53tsX1WodlQ8j0gclbN9Fkud7bF9VqHZEPI9IHJWzfRZLm+2x/Vad2VDyPSByVs30WS5vtofVad2RDyPSByVs/wBqyXN9tH6rTeyIeR6QOStn+1ZHm+2j9VpnZEPI9IHJWz/asjzfmATN/wACwngnZk0cjt+FMiEh9hH6rS+yIeR6QOStn+1ZHmfNonelle1t9ur9h8mXiBy/YG+q0vsiHkekDkraPsWQ5nzaJ3pZbtbfbq/YV4g8v2BumldkQ8j0gclbR9iyHM+bRO9LLdrb6Vc5k60H9x5hZC/avl7A3TSeyIeR6QOSto+xZDmdcRhL2RVTUqIM2u4dUcNQpWllu1t9uH1qncxv9oUFs+Lgxc0UZyyUNTuzNX1PGgm13Dsp9YxMjZvWp6UaxGEuZKOvpwKLVcUCbXcOpNaxBtf1BvhswS1p+lGlauyU9PlJodUxYJtcw6LWsO6l1HHEthwYYqGGOSaXG6iZjDreIjYtfxDtd1GqbZPHW8dL8ukdkQ8j0gclbT+2shzOmp4Zr8oswivNuuW7W326v2FeIPL1nv6IhFNYgd07ebZmu1XLaH2bp5t13PHhZxq1rCFk5K0ENaH5dovPkMxrWHjxtbozs/S9VhuVstRkx9/5NH7Ih5HpA5K2n9pX+WhFzLG1hp0VtedKiprVqYtGmmfLLLdrb7dX7CvEHl4myNPI39myVl5pppXZa6ckmFW3fyHQ+zLeZ54Mc8szvpOTsHbV8fio1ISsWKVeOrVWzbEVWWe7cnLTScsCt5tWq9zTajWcypTGOPM5i1kbFS5aqS4S+ORxy3+qxU/k0fsiHkekDkraf2lf5awINJmumckeXMrRO9LLdrb7dX7CvEHlrE6rYsDU17FV1FXgi67f/IdD7MvEDtq0v+QK5xNLj/EzynL4IJDeSVaR2FeIXJ8PR/JbXI8eA6eHpv8A0624WLX/AJNF7Ih5HpA5K2r9lX+WsEbR5rpsMBV82tE70st2tvt1fsK8QeXouPCadZLIVcfFPuMTPgL5ZLHrb/5DofZl4gdtWl/yBXOJoxeWcU4/HDIDxSrR+xLxC/e8PT6bPE82Cbp4fRO1NblJ+HgPk0XsiHkekDkrav2Ve5aEnEsXaG7QWw4WLKRzazl4y1LD36WSWW7W326x2FeIPL0Py/0Nb5WsveZidaUBhg1t/wDIdD7MvEDtq0v+QK5xMHa/o8szs7LYtb/rZv7ZzHxa1Qlx2MXiF9dPttVzKJmds1rdutYpYHJ2ZcbTjo0lv1xnL5NE7Ih5HpA5K2r9lXuV01nNPjJa08NiL5Mt2v8A+MCPwYZeID/87RcgEMydmdfhh12/+Q6H2ZeIHbVpf8gVziLUs6BxfL4hfctYzYX4fkzmWr4yvZmks2Oj/RaH2RDyPSByVtf7CvcrrTuWqZ1tuugh3GNPuMSl3GV1c2XJWYoInmmgD8OFb1Ix5pY7Z79YQ3GBPuNVFuQqXcLTrIW5b1vB7AWLp/3lIs7nSytdYe8+Ovf3lIpdvkki6Y7YclTENy/KfcZXHWbVi7i14gl/y0zuJY7ab1dotvoOx7djma9ttqQZpZZ5er/RaH2RDyPSByVtf7Cvcr9HTMMYyIyYAytn+syX61WCSzYtV7FU+lGrNdsY6sNOktynafOfpP8ARaF2RDyPSByVtfHV3lfoapVwZF03DNi8f6+vd8lijlGbAYmVBreIF6tWvWBZvIx42jIZSSfpF9FoPZEPI9IHJW2cdXeT+h/7xexX6Sy+y27o+gwsscGWr261gehkINldkoU2yd+xkLP6ZfRaB2RDyPSByVtnHV3k+sF3BwyOQBPlcm6lsWJf1i+1eH/ZEPI9IHJW2cZXOT7aX2rw/wCyIeR6QOStt4yucn20/tXh92RDyPSByVtvFVzke2yfavD3siHkekDkrbeIrnI9tl+1eHnZEPI9IHJW3cRXP3/bZftXh32RDyPSD+Vlbc3/AA1LEEilgIPbCNmTu79NCgmgwqb9/wBIf5SoxExyWAA1YglryKWuJIwIH9ncmZETv0xOIu5I8LrdKh1g+vpJB+JopetqtDZjyeAliRM4k7M7SV07O3sj/kiPpUqz25sJqUcajAIwTuzI5PxEDeTelMGJM8kajkE+uRxlW6OTw1qn0MRJSQuPsRGndCLkWE1SxYVCjWow9DmFl8JSIRZvUnF5oZCBCTE3TKYKtaV+hZpGjjEkYOPrnJmTu79MNgLuRfD4OljR6SSCCd5JEAMPrHbzRRuzjN5dZIwkDKa4JKxDLXkRxMnZ29U7+ScumOx9u/LhdWq1EzMzIiYWeUjQReXsBCzryON45mLrcp17ceV12eBEzi7szoo/UOXSGKSaTC6k7qtXhrRdDmTA5OzeXsZxsSYpIlHIJt0yeJqXhyuFt0ehMzohdvSOSd/PphdZuXVi8XTx0fSSUQX+5IhBh9nOJNKQISYujt5tlterWlkKFqiacU7eXoHfyTl0xOIu5I8LrtKh1MxBnM5EEbN7U7eaeNxcJus0Uc0eW1hWIZYJE7frOXSpVsW5cLqccajAIwTuzIpndwj/ADZvbSBnXkcajlEut+jWux5fW7FZEzs/6bl0ESMsLqs9hUaValF0kmZl8JSIRZvcTjYkxSRoJBPrlcLTvtlsJcoP+g7p36YfAXcg+IwlLHD0kkEF5ySIAYfdSiQykLiTEydmdsxrNayshQtUZPld+mOx9u/LhdXq1EzMzIiYUUpGgi8veHZnTg4uE3WxBFYjzGqKeKWCRefSGKSaTC6m7qvBDXi6HMmjcnZvL3sgYl/uRoJRLrkcdUvx5nWbVReT+eG1q3dWMxlTHx9DlEV5HIhBm9/ONnTFJGgMT6vjqL2uhmIM5nIgjZv8DKNDK4oZAJebJ5AZFM7oI/zZv8FdmdPEK/BFNEKZmb/vN//EACoRAAICAAQFBAIDAQAAAAAAAAECAAMEETEyEiEwM0AQEyBBIlEFUHBS/9oACAEDAQE/Af8AKXsVBm0f+QOf4iU4lLf6InKXY4Dkk/O4xcMMucehk0lOMZeTc5XYtgzXz7sWlfL7ll9lx5yvDfbQADT1ekNOFqzKsZ9PAQeY8u25Kh+Uuxr2cl5CV4dn1iVqmnzaj9RHeo8pViVbXyGYKMzLsf8AVcVHtOcrw6p0ioOsarLSV3MkruV/FuxyJyXmY9ll55yvC5c2gGXVZAYUKyvEEborBtPBuxKVay7Fvby+pXhSd0VAmnglIM1iX/8AU162MxbqxRZXS9nOV0Kni8MViukU5jPq43vmV7B45iberje8ZXsHkJt6uN7xleweQmnVxneMr2j1UZme1EXijV5DPwl06uM7xle0ete6GI3CY1gI8ERdOrjO8Ym0RVzMFYEyEMqGZjqAJWoM4RCgMReeRnAJkI9Y+oBnBUBOEThE4AxgUCcIMdMvQRdOrjO6Ym0SkSxshEJ4oZVrLNsTi0E9o+ibzH0iE5+lYljZCVHnH0lY/GWtlKm55RtPRYunVxndMTaJSY68QiKQ0Mq1lm2IOUdyDBpE3mPpE3eleksXOVqQY+2Vn8ZYucrT7jHIeixdOri+6Ym0QHKC0TjWGxZTLNsSzlkZxrPcWKwDZxnBEU5Ge4sVsjBYIGBj7YjcMDgwuI78XosXTq4vumJtHwVeKAZS1vroInEJ7JiJwy08svkkGnVxfdMTaPjxnoo/DPdENv6hOfySDTq4ruRNo8dNINOriu5E2+OmkHVxXclbjLLxgM4oyEHVetX1lmGK6RXIgYHwwn7gEy8CylXj1MkD/vwAucVcoB4j0A6QqUgPUAzgSBfHIB1jUfqcx0gkCwDLymUNrGqI+YWBYF85kBhQiZegGcCwL/RFIVgWAZf6h//EABYRAQEBAAAAAAAAAAAAAAAAAAGQUP/aAAgBAgEBPwGYJjEvf//EAEQQAAECAwMHCAcGBQQDAAAAAAECAwAQEQQSISIxQEFRUnITI1BhcXOBsRQgMkJikcEwNFOCg6EFJDNgkmN0orIVgJD/2gAIAQEABj8C/wDebDGPZP8AZFEDDbFTlGM0swirfyi6vA/2HdRiYq58ooJXlEAdcFtLmPXrniIycR/YNVYCMBMpRzi+qKuKw2apXVc4jYY5teO6c8+uMcR07hgNsbTtnzisd0Z4up5tGwSqo0EXcQNsVBrF5JIMBFqF4bwzxfaWFCdU5Jii+maIFYqvEzvOKCRBRZhdG8YvKJJldbyjFVqrLJOGyKHJVK+0spMBFpFxW9qiqTUSxirZ8IorA9K0GJirmbZFAJVMFDGWrbqi86smWeqtgjE0TsHrUOUmMk+EshVU7pzRdJ5NzYZ4iKpN4dJ7ojCdCby90RibqN0SqtVIut5Kfsag0ijuPXFUmsghznW+vPFWl47pzz2HbGOI6PogYbYqcTO86ukFLPNo/eMYqo0EXWfnF5RqftKpNIovJMryFFJ2iAi1i8N8RfaWFDqnVOSYosdF3UYmKufKKCV5RAEFFmFfiMXnFFRlROUqMs+GgYGo2RsOyV9lwpgItPNr26oqDUSoYq2fCKKwPRGVgIwEylHOLirisNmqWUcdkUGSnRKKxEVSZZCryN05oCa8m5umdDGTlDoXDARtO2fOKx2RdTzaNgleWqgi6zgNsVJqdGqDSKL+cVEgh7nm+vOIvMuA7RrE65jGOI29A0QIqo1M7zigkQUWbJG9F5RJMrrWUdsVWqulYGMcDILbUUqGsQG7aK/GIDjSwtJ1idUYGKLFNNoMTFXPlFAJVMFLGWrbqi86smVK1VsEYmidg07aIwlfYcKerUYDdp5pzbqMVBqJUIirfyiisDpW6IwE6E3l7ojKNE7olVaqRdbyE9BZUYSolV9vcVASFXHdxU8RGGUnSLysVTvOrAgpZ5tP7yqo0EXWMeuLyzU9CYRlSqIDdo55v9xF5hwK2jWJ3059GSJXlEAQUWYV+IxeWoqMqJy1Rlq8Oiw40soUNYgN28fqCA40sLScxEiOvRfCTA4vpLLVjsigyE9GYzRxGS9F8JMfm+knOkEcRkvRfCTH5vpJzpBHEZL0Xwkx+b6Sc6QTxGS9F8JMfm+knOkE8RkvRfCTH5vpJzpBPGZL0Xwkx+b6Sc6QHGZL0Xwkx4/STnr0QhSj1CPu7v8AjFSw6BwyqGlkdSY/ouf4xlJUntHQY4zJei+EmPH6Sc9dXdStXdK8pWTgjNFl4VdBjjMl6L4SY8ZOeurupWruleUrJwSsvCroMd4ZL0Xwkx4yc9dXdStXdK8pJYZfCW0CgF0R95H+AhKrW5fKM2FOgx3hkvRfCTHaZOepfQnk2fxFfSB6Q448rtoI+6D5x6RZmyhVKZ5WruleUmbS468FOJqaGP6z/wA4ZQwpar4JN6EttJK1qzAa4vWlxLA2ZzHOF13tVH3QfOMllTZ2pUYU/Zll9kZx7wlyrJQlutKqj+YtizwCkZSHHO1cfdB84+7XexRgqsNoNdxyFMvoKHE5wZ3LKypzadQgG12oI+FAjLDrnauPug/yMfdqdijGQt5H5oS56VfvmiUEYwlppBWtWZIgLt71z4ER92v9ajWPuaPCCbI6tlWw4iLlpboD7KxmPrfqH6SXovhJntMlz9KtA/l0HAb5gJSKAerau6V5SsnBKy8KosnF9JYqAigdQT2yoYtLCRRIXh2Qe8M881WlI55jEHaJcq7VNlScfi6oDTDaUIGoesoN5SGzybY2wFrANpWMtWzqngZKYfQFIVC7KvGmKTtHq/qH6SXovhJntMlyCE51GghqzIGCE0l6JZacuoVKt0RedtLqzxQptTzikcnWhVK1d0rylZOCVl4VQzalpKg2a0EENKFmR8OeLzzziz8Soya16osynSSu5jWVo7E+UHvDJosOrbvOUN00ipedrxQqwvuKcSU1ReziT6TrbV5Q3Z0Z1quw3Z2hRKBSRsdhpyo9tZ92LztreUeKGiokmpz9srPyFocaBQahJgLUKpZF/wAZKcWaJSKmFHlFIYrkIBgO2d9aVDrwMN2kChOChsMmrWBlNqunsPq/qH6SXovhJntMlysiDm5SdrWfxCPlJXdStXdK8pWTglZeFUg7bF8gg+4PagfywcO1eMc2yhPYJv8AYnyg94ZMd7JvgMnuA+UJO4lSpLXupJhbis6lEmTfEfOVk4TFrX1gStRGtNJ2pvUFgytNdQB/f1T3p8hJei+Eme0yXKyLP4k7UgjOu8OwyV3UrV3SvKVk4JWXhVDludTUNZLfbLlLU5drmGsxzFkcV1qNIFpU2GySRQGT/Ynyg94ZMd7JvgMnuA+UEbzavOS0bySIW0rOhRBknjMrIeoxa2+sGVqQnPcrO0PH3l0HhJ8b1E/v6p70+QkvRfCTPaZLkFpzpNRDVpQfbTj2yCr3Jvo9lcUDKHBtSqC/aWghFyntStXdK8pWTglZeFUfqmTVouLWzcpUCtDGCFHwhAWlSTeOBHXJ/sT5Qe8MmO9k3wGT3AfKGHz7IXRXYYqM0jarItLbx9pJzKinIt9t+BZ3ykrvE5MrIe2EpUaIeFzx1SIOYwpdjbLzBNQBnTAR6OplOta8KQ3ZmvZQPnJmwpObLX9PVPenyEl6L4SZ7TJcy27VVmWcfhO2A6w4lxB1j1bV3SvKVlT/AKYlZh8BhywuqpyhvN9uyWMewn5Tf7E+UHvDJjvZN8Bk9wHygwmwWxdHE4NqPvD1rJ4xhgYDD6gm1Jz/AB9fqlSzedPsN6zC33jVxZqfVV3x8hJei+Eme0yX6l6yvqb8oo+w271g0jKsTngYwsTnzEc1YkjiXCmuabQoUNBDbCM61BMIbHuikkoHuNyCHgm0IG3Axl2N0dhEYWV79oybCvxVHN2RtPaqFWp4JC1bI9HFmDuVWt6kfcE/5whlVnDV1V6t6shag3ylBSlY+4J/zhSPQQLwp7cwjlA82NS4y7Ca9So5mxhJ2qVCbTaSCtajmErKj4SZBSSQRmIgItCRaUjXmVHOMvoPZWMlt9R4YKbIwGfiViYLrzinFnOT6yu+PkJL0Xwkz2mS/sv/ACNqRd/CSfORWo0AFTD9p1LVh2fboYaFXF5ouWhlbZ6xMMWdJUo69QhqzJzITSS0g1DSQn7VXfHyEl6L4SZ4jJf2KXC9ytpHuuYU7Jq/h1kXUn+qsaurQLJx/SLriErHWIqbIgdkV9Gr2mLtnZQ2OoSU8v2syE7TCnHDVazVR+1V3x8hJei+EmeIyX9jXXASpXpDW6vP84LTA9GaOentHQbM86q62leJi8y+2sdRnVSgkdZgpbV6Q7uojl7QrhSMyftl98fISXovhJniMl6bVCik9RpGTbXh+aMbc9HOvur7VaA5358hJei+EmuKS+kHO/PkJL0Xwk1xSX0g5358kyXovhJrikrpB3/cH/qmS9F8JNcUldIO/wC4P/VMl6L4Sa4pK6Qd/wBwf+qZL0dviljn2xtHR6w82pF94qTXZQSXoqVSKVpCgdRguWQ3TuHNFx5BSrrlVOBjEdF0YbyNazmEBxY5d/eVq7JlWjXV4Gdx5sKEFyynlE7uuKKFDFDFUfKMehcJBqztKcUdkB3+InlFfhjNAQ2kJSMwEsYuozbdI3hGE+cRRe8M8FQHKNbwliIwxHQWErqQSTqgO24llvd94xyVmaSgec6JxMVWdKqMDFF4jbFRMra5lzqzGKPNmmpWqXX0EFBPJM76oq2i+7rcVnnjG6NOqg0ijgp1zKHEhSTqMFyxGh3DBbeQUK65YRjptyzNFW06hAdtdH3dnuiKAUEsTFECg2xU4noGqM2yKHAzuPthQguWXnUbNYiihQxjGGkYSDbSFLUdQEB3+IqoPw0/WA0w2ltA1CdG8TFVmvQu8Iwnlpuub6YKrvKNbydKDj/8uz15zF2ztCutRzmdM5jKNBs6IqMDFFio2xgZUMFyz8y7+xi6+2RsVqOjcw3RGtas0Baxyz28rVOpjJyR0ZeQaRRzAzKHUBaTqMF2wK/TMFt5CkKGo6EGrO0pxXVAd/iB5RX4YzQENpCUjUJYxRseMVViej8jNsjHAzuWhsK69YguWXnm9nvCKEUP211IJJ1CA7bjyLe77xjk7M0lAnROUYqs9J7wjAzqpPJu76YJUnlGt9P2gVd5JnfVHNovu61qzzxjdT0tUYGKOZtsYGVCKiC5ZeYd2e6YuWhop69R+wuWZoq2nUIDtq593/iIoBQSxMURgNsVOJ6Zqg0ii8DMtvNpWk6jBd/h6v01fSC28hSFDUfUDbSCtR1CA7/EVU/00/WA2w2lCRqE6N4mLyzXp3JNRsimYzuWhoHYrWILlm59r/kIu0NdkBx/mGevOYu2doA61HOZ0zmMrNs/sHHKTGBn6SbM3yu9SdTGTkj+xKpwMUcHjGCoziMVCKNjxiqsT/8ADD//xAAsEAEAAQIEBQQCAwEBAQAAAAABABEhEDFBUWFxobHwQFCBkSDBMNHx4WCA/9oACAEBAAE/If8A7lzdlC0CuBD/AIcdMof/AAoN3AAO/aQDIGAlFjlEu6O7KLQIALf+BALxaBBb2rsygUChgoG81SkUGTYcmJNCY3V8PWWlswa++stpdlEXh6wGhGNQHDVjmyunsOSVlBXilzkyvi32Bje0puInVZBrPvZV2WYu+hHUY1UO3MSurxS7zYsXH40fI0LlNIOpDQ1kjK0HxznDKHt+CKUL+dITUfdzF2K/KQxH4emKI51Z1Ai+IqWs1YAVWhK0PH0JUkWFWccsp9Qzk4BeDGTKI20zf1BpWyRwAoBIm+alKjeJAcvc1CDXPNCVcU2JRiDBAgBqynA+sjRjoaGAVGIap+QFF5c5yoL+7PDmXb8FHFHZ5ONBEzKg6ay2tmDX3ALOXivdlgL74vtjQbG2ZOFBbg1ZW+ZasVWq1f4KySNSUwqNkpGjhK0akrBdhWcmUqt1gYgdBO65BrPtoN3AAVJ8dxowbTVl9e5qiJUq6sakDVlcGrvjZbav8lYuKLzzSVEqNYdMckozbHKF/khl31WNcfYlUY4wyz7SAXi0CC3tXZlAoFDBQN5qy+k+L4jxp1WMq3KzIlf2dBkegfpxFA6DxWFZJ1NHmShsyt/+oJMmSYUkVJU0c0v0niRDl7KstpdjdXw9YDQjGxjZGxzlXPYcmFX8MM2Vt+GZvoy2U/6bS9hgfN9v/wDEG5l8+WNIMvaeqS25MPYirs7rsI6jGsh2nNlSTil3m4LAFvKmPE5x0pM19NViXCVrPwlVAkFGo0ZdDxHWlQI1bfBi39kjbHhoVZ9eZdlVJ4wX6axRFOqygDiM2N0rNWICq0JVKH1iVdl29UnX4pZcNk08SjLYbKnf5JkA4SuCVKMG68LSK/KQyz6tQzhVzzQl9aGyUYgwBEANWWdfWRUx6GBqopBPXFWp5DDLr7YV0TXuCWM5XitCQkyTCjEkvrU3S/S5kEcvUDZy8f2wrW3xAfDF4yNnyMKS2w1ZWqu5qxVarV9gFGo0lgvN5WSrgE3alvjab4KSj8b4ndaPV/cgnpsvzlA/pMeFQmrL4t3VErVasSkDNZWAq3xMltX2RWqpCssd5WpaICImSS6HJqv+08pxKmNDTGZvLh6WqmVC7goG81ZfAfF8RW46rhXW4JkSqbGgyPaMqbbThTthlY6Sk+laPcmc8sVIlSkZUsj06AAtG4wVjwAzlcfgmb7ZaLiE2cHXDKQCxX0+y4TqTt7dn8vw51HqcTrTt7dm8vwp1HqdTrzt7dn8sPH8MOo9TudWdvblTD5fhh1Hp91OB1B29uy8PC8MOo9PupwOsO3t2Th5fhh1Hp912F1h2/PgjKsz/ZxIEZq7YVMpkok/2cSpXMrXsZ4fhh1Hp912F1R2/Pq3fDye6dmAawfGcB9QhRP9j2OdfDyw6j0+6j9cOuO359W74eC3Ts4547c9hzYeR2MOo9Puu/XDrDt+fVu+Hgt0y5ctgVQnnn6g/DIw0V5erqb/AJZsPA7GHUen3meGHUHb8KKLabPJrF7Un9KCKV+bjt7rlaUw8FuwqPwhaGf5+G9q41pSkbqVDXUCL+mIpWdbHaCU+9yiYArmQWLO/GFypKPnbbU4Qd+AjHWIoIp97j0E9yQ1AeVwfmf9I+LGpqGR1Gb0Qqn7ZmgcY7QRmc/7IbSvlX7lSqfCrvAm3mxbsUH1C1WNBq55zYBErdxRSXyJp0avfnNOA+f8DPDy+GDqPT7xvDDqTti6q6ZfGhBgGoAWMEM0II5I4eC3Ts4547cnUe7ASpHFlZ+aBwBAqNmVoTJ2V55ffHhPvEWoFIX1T9/ELlY0tqRm9nCZYxRpgoZoQa5YLTOVpKMNWr9yqTR2DhgoZtJkg8nAdyUvpxIitHY9/Hw+GDqPT7wvDDrzthlXTnMGwCVNXV+8Exbor/8AaLX3Vcr7BqiVrh4LdOzjnjtyIQIs5tNMFS/7xWlZqMuvW0a4/wClCz2tgQoap0Ty++DkWq1CUylUFurlcO3VUNK7YEUqC6po/dwvd+obEcUwqmcnVOA4x4pcdPqZ3lKq5sAetMIN2XjTuzCqwBNglBfZGKbu7GIJWl3ASfEgzczDMmE8Nafj5/DB1Hp95Xhh1p2wzXBX4xXNWlrtYYdW74eC3Ts4547chVQBVaAZrG9XhcRx2lUAvH9YNQPgkCljDymyeX3w6b2cPJ7YeL3QVyv3FafvByswPgibVcubgq8LBC9E9z2uDR0eptDLBy8gfJhsqj6Qy/IJ1Hp94Thh1J2wy1Aj840gw3HuYdW74eC3Ts4547cgoGUEtvcD4TZnckjQN2EXZwSZOHlNk8vvh03s4eT2w8XuhNaA+mCnZ/YEOyhVycHXh93AfEYVNbs8DwqETleXFcAUaGm+AVG7L6QywcvwydR6feW4YdadsLHhOYQZCA8Go+8B1RqUszZ4RBokG/3En5mxa/GHgt07MNK2Hx25Limd36MALadQrOcWolwcqF12Tg8psnl98Om9nDye2Hi90BdRHOKQm1UVHAP3oNuDDSDg0lSTjoK4H5U3zRMAWxCiM6Uty1NY2KxpQ5aws8hXVauFdOqltp+2Llgq4GdR6fee4YdedsbnRiZ7SA4Gy1/HwW6a+UZLTAq7V+pC1GsLbd2YAUAnGA5fQgAUCmHlNk8vvh03s4eT2w8XulK0O73hLDVO2xz/ACduRRFINRNGHfOgXJs/EG4rTd/qX5tP6/MC9R6feC4YdUdvwrKeoN3MhJR26yntngs115yGopv/AMIsqiKuo8YfFThzYZigP0wUCtMeasKiIojUTMmT0RfVji9cR+5qP44zWzkEqPz+/qEYMENrFIkOKr6k8T/Uy6JlzAnyevRnPE/1EHVNempym/OuAJsQzw5xv1ziA847RqQJYArTCttuswaC1UUSarGj/pOU40jvFrpQoP3DSTqdCZwo3V/DM/DL1Hp95Lhh1B2/hUM4EdQW9768DlLI6BF/qzWP5wDIoVoLnFIu00vvKCOSOCb1ogs7rLt4qt3V+8PvJI5vf+PPweDvUen3kOGHWHb+EAd8DS+DWFi2BQLVtht4wtb+fz+KJFzStHas3rJZrwLOAo6WDXCy6vOpsneL/Hm/hf6j0+8Rww6o7fw6BUGSWSNUd1LDhFKAqVK/Jp6G6iLbKMKKWVHHixShNgm5A8WJqtLZA2P5M38F/Uep2OqO3reNBm7IbQr5d4bT7B/U6zvADIp/LnfhH6j0+69h1h29uzvwj9R6fdWw6g7e3ZmDrgd1Hp91vDs/blT8ETqPT7rPb3Adz8AnUen3Ue3uC7uCwc6j0qArqUMEXBt+uGWKbEvdOKe2ZBdjt2FVoXYqBFGlUdejh13pb+yHDP6EFRm+F6jltGhdoIysfopTFL2jOZwQwqlgdPIkMNKy4MFoVYK11avpbbKWmZO+L7jsXOUqhZ9WX+4+YVkSUkCTWPlEKCj7IgVWK2sjNKMQy5yj7miW894bX6AoGAFUBGqLig6fphLkd12YLdR2cUFDStiMUW0cuZgLSVy9igFrojdYWW1AFVmq4/JaBNW0L8zi4/Bwd9KA0D1CDA+wEs6yVu1MEEolSWRrqPsJTmaC6+cL5lumblt/XcYZnmDZdQ6Dy3gQNCwr8NsRbquxFddmDWPWALyqopXXj6QRKjXC1hxCpN8Or2+GHRmgjeIva7R2gp6oM0dysYZ6/s8xlcg72XP3CQgyDCpCCV7ihC+wMAPXi3IVoruT6p3Fnp06nJlULn+a8SsCyJchFBWMXv4enbZ4Za5zK5tXM3/oa/ymQBAaYNirL9LjaS7shix7GFlLR/bLgX2xdO3Bf/sS4CKtOZphms4oekIyvEzQu0LspOV1Nrgf3KBzjXzYqfQJRfgEKoHsyDAftCfHIQKpJgCAI5jLJGvYlRPdC/yYE5WYmb0AQzgIFq6I/wBwUU9K3IY1gy1h6rL7mw9pEXl4BL9DjaQRKjUwz4lBWG2hz/pZmcWCM2f5VDObWDEjoMucpf55k+brLaHAKBgBVARdWcUzW8SAZe2l3IZtXclk5NxX7Ey8hleyd/BeI3BmJeN4n8WxFrnCFmwFVlexLh8CFSvNC7zfwRa76UBoHuJ2Usj+2Fa22L/agUfnebHUC3yaYP5gRHAs74c+RrCyOgq/DbES6rsRTnwCDWPdEHOFXLNSU8V2JUhJg7MmYlmVHiXs6GkS7Yz8hwrioTZwEbwbcxlgp3onQ1hIQZBpgFUgljWQPsDAp7uZcl3ZBy+NpC5UwzKzDWMXozrd0zwLDSVldIsfHVAassPMxr/KZaRhpgoFVoS/Q42kvAIYt72VclF+QR/6Li7U0sW+aXbHexY4msT1jSy8vGa9Ra4EsbHVfNi/9Emr02oXY9/uuTHKfuQ7pYkmj/pTKvHGsGWsPVZfc3/wSDnL9bkS/DkmQE/3ozSoif2UzW8SAZf+FzQiNMIekyQ/+5v/2gAMAwEAAgADAAAAEAAAAAAAAAAAAAAAAAAAAAAAAAAAAAAAAAAAAAAAAAAAAAAAAAAAAAAAAAAAAAAAAAAAAAAAAAAAAAAAAAAAAAAAAAAAAAAAAAAAAAAAAAAAAAAAAAAAAAAAAAAAAAAAAAABDHKBAAAAAAAAAAAAAAAAAAAAAAAAAAAAAAABGFOLPDHCAAAAAAAAAAAAAAAAAAAAAAAAAAAAADGdJM9WfWBCAAAAAAAAAAAAAAAAAAAAAAAABAHMHRgAQRyFbOLAAAAAAAAAAAAAAAAAAAAABFLOKWcwQQQQQN+ddNCAAAAAAAAAAAAAAAAAAFJGcTcgQQQQQQQQcp3cHNCAAAAAAAAAAAAAAAPHPNSwAQQQQQQQQQQQcnKaLKAAAAAAAAAAAAEPMOG8gQQQQQQQQQQQQQQUU/OfaCAAAAAAAAAAHKAIwQQQQQQQQQQQQQQQQQQUNzLSAAAAAAAAAAPACwQQQQQQQQQQQQQQQQQQQQQT9aAAAAAAAAAAPIIwQQQQQQQQQQQQQQQQQQQQQQ/KAAAAAAAAAAPIawQQQQQQQQQQQQQQQQQQQQQcnKAAAAAAAAAAPMYwQRP39wQQQQQQQQQQQQQQQf1KAAAAAAAAAAPPKwQX/cogRQQQTQQQRSQRSQQS3KAAAAAAAAAAPGAhvyPTyryn4DhyiP2aD6hwgdtaAAAAAAAAAAPDKhv1ffq+N1Q7heX5h61zhuCT/aAAAAAAAAAAPGQurGvfq10lA/1KVrh/l12rId9aAAAAAAAAAAPCakG9+o72o3j9lZ3c9Ptcs4AWnaAAAAAAAAAAPMCgQQXdfwQQQQQQTzjrwQQQQY1KAAAAAAAAAAPNIwQQUcIQQQQQQQU87oAQQQQXvKAAAAAAAAAAPIKwQQQQQQQQQQQQQQQQQQQQQf8AygAAAAAAAAADzAMEEEEEEEEEEEEEEEEEEEEEF1ygAAAAAAAAADTysEEEEEEEEEEEEEEEEEEEEEbx2AAAAAAAAAADj2X8YEEEEEEEEEEEEEEEEEE9QSCgAAAAAAAAABBzylg4AEEEEEEEEEEEEEEvgzyBAAAAAAAAAAAAACAyTzUMkEEEEEEEEEEvChnDCAAAAAAAAAAAAAAABABSzmUYEEEEEEEFIyzQSAAAAAAAAAAAAAAAAAAAAARwyVMsEEEF+mTwgAAAAAAAAAAAAAAAAAAAAAAADBDDgAYktFV3ygAAAAAAAAAAAAAAAAAAAAAAAAAAACiQnBVyAgAAAAAAAAAAAAAAAAAAAAAAAAAAAAABDDizBDAAAAAAAAAAAAAAAAAAAAAAAAAAAAAAAAAAAAAAAAAAAAAAAAAAAAAAAAAAAAAAAAAAAAAAAAAAAAAAAAAAAAAAAAAAAAAAAAAAAAAAAAAAAAAAAAAAAAAAAAAAAAAAAAAAAAAAAAAAAAAAAAAAAAAAAAAAAAAAAAAAAAAAAAD/xAApEQACAQIGAgICAgMAAAAAAAAAAREhMTBAQVGhsRBhIIFQwXDRcZHh/9oACAEDAQE/EP4pkRCNhvev9FATh7P8EhJdifqvfT/o3NdWL1ZZUKkaGuSWE5/e2xfsiDU2Q99IthIXmvKjHLKntE/YLZJWbkDf2TH7ArFCFsJ8mk1DFOpqBBRaXxmJMwi+r7f6Rqd7ZWHV4SmEG1VFPutiwuu2Vmf0BUKXtoK1PoQkLFuJUCj1LkXy2RR1y9lcd6Ni/e5W6FyLoWMih2JcqjFun+wmklY1BuNdbT9DHZuytpS98o1I9g/EBiur0jirrLpUsYqcfSOKusu1UsYqcfSOIsxZxev0jhLzRhqlclNSXZkUW8VeHo4S82Cxi2NjmlklvFXg6OMhkSFVhK0LGIZI4tIWtsSdBFYS3BJ0PUMKbh7wi9VEnQ9YmMWRZkO4Rfq3i0t4vS6OMig2MpDiSyxl8uEiFXGxKF4DQ5G1HYWk2NpDG0spciQZQhlQWX8WFnF6XRxEUGikITJRYy+XBSUgiQ7dXgXS0Ow6kvY1aDg2i8TB8GhyciZ8WFjF63RxEPeUO3PYQHUS7HhhSB7Bo1HBh9SYpLY4LjXNDeo1hF4a3o1YT1G0K3i0sYq8HRwF8JkSLWEIdGAmU9ghBa+RYWsXodHAXwsU4nBhRHi2QxpfysLWLf8Ao4C/C0tf0WP8ZdRZipX9DCassxoQ+BlmKghSr1rkorqWnJXHsRqEJFkKo6Pcay7bmkE07Y7wiw3cnElfpYyhkt8RtgpG4JJWyySEIqmGQxOcBJuxvDnYTmiSgqKqiPk13NJCFfPVXUvI9vhoUjfEkrfgVuqIHVD2Is/CR/Fn/8QAHxEAAwADAQEAAwEAAAAAAAAAAAEREEBQIEEhMHAx/9oACAECAQE/EP6heJfF5F3b+u7N4l0ryLx1xlxlpwWktRaS0YTCIJEJiEJiEIQhMrQWFhDxMfT55IYsLK0F4QxFEfT5n/GEMWFlaNKUQxMpfFF+ClHilyt1EEP0t6l9rjLjLrTUmpORP2ziTenqcKf3n//EACwQAQACAAQFBAIDAQEBAQAAAAEAESExQVEQYXGBsUCRofBQwSAw0fFg4YD/2gAIAQEAAT8Q/wD3IoZwLBi6eaWS22B1zM2upC7B/wDCrEipiAE4rIgB3dyHQjNtbhXBq8ZkX6brUxS5k9GWRD/4FMoKljL6EoG3YJghYA5BwP8ArYgEtx6j98XzUESzE4dYt1It56uAmJdOCOcAWN/nUBazFzZDFYuo+O8fqdRt1eCgKtBrARhwzn9MrjfEun7H+wQ2NJkxdw8Mh/TOFAK/oDXtxJQ6eEkPU19rqS8DcEcvzTlCLfMB4lkq/PFeK56ms7GneMOPhkH6ZRFVbWBnmqzlsPVkHqaED4whLGIgO6ZJlyIA9hk/EEHF28TqZnBBKQR0ZZviXZk9pbabHN3hAD+XTIFRG9ZOg7xgoY7DAAoAOXAcuWrn0NZaJkoY+jI+Yik7tliMwZq0EpqHBed+4wVshcDocLieoLtABhdX2GXZecKB3G3YTJl0BoMVuZn8ofS7th78Hb1mJKwAt6XaYQVhQqA2h/JiWtQVVwRAhz5Y92GSPQOBI2tSglUTwXn/ALj004jXQMiLExK8G8ukbr0mo77/AMTBslyXccHRlTG/AEWG77sQoctu0BY5jjD5IIljZwRbQaxICo1DJ/sxcpzHBgCx/HqBjGF4toBdO5pi7QMG63m8QAV4m3u6RE92KqnPVixgA0zdAlTVsNl10iBCNqtr/QfyhJSS4TICxOprCqvqoIERGxNIwA8Mk/TO4DaJrDzON0rbwWWijsWXWWAIY/jFiRUxACcVkQ4jtB0OKY1u22wSmSMEuH107RqrWpau7AQ5alErNyk8DoTMBwl/2AHGoZPUlcTJ3v8AIFADkjGs3aAdyXrDQpH4HtUBy9liuu3BBKQR0Z0g0MXWZ0LRoZegfxKZQVLGX0JQNuwTBCwByDgf9bpgJTBloYOjXqzN2Za9tiKi1olrwsLMTmxQ1voux6AFuDFO20AbmTxFgIFbBv4xl8eoHN5wELLRYnBQNCkSXjgxuz6Mrq1mCC2h/CgFrMWrcAM4d5auInUbdXgoCqAawlYMM9836jVItvrsftlx4NRqoPoNhfgc30aUKRMklRfvuTvrKi9xqdosbDZi1Dl/iVRuYiLc2sMSzhjt7Jgkc3iNCB2acxzIhLH8E5Ql5o5FWfSWyr88V4qGEW++1p1izaYYQPphlFu5r0IVXLjMpLF0NI3aLRa+mEiOqqFSs5AeSAFrJGClA2I4kwJWjQOWrvDYmWruM3FgB6X7x3loh5hFNuHrlSBEWPadB3hpxtg5O0ACgA5cNlNivkbyzFcE8LkaeY9o7tlebFZgLVcCVcHh9WMS6TC4dBp6qwoNVkynq2VwekvC7i5WtsO5L3MEYRzLPtDAVYY4AgCOCMx7Z5qS59ZGh7y9A+rMtVCEXBEHFOg3mGTPQ4Fha1KAlIxYOs66xoDyF7AaEWHj00tvntGp2YJR339dWN8Z0mVPW8yLC17DdYbZDKgOoNxuv7QSgWixODlj0Yrd1G8Su72sENtD6hxeLaYhW3UxTACalivEGgmC2jzaRgt+Jru378Fx+sz2DWU1RhjwuukZITNXP8ASQjJJWE7TMlW45RYtwnEGvNq6QgLGAI82XZxrRKZDBIvRD2TB7jt6bciwDnM0UXjl2cXoCs2+mZsrUnBLg9dIrcjarawmuWmglBuSngdDWZvGkv8ACW/qURcpkwFiEcki42tFIyupqGEuS/Bhh8Fo11jE68bjg2yyEIDt6UCbCh0OB/1sYCbWShg6NY3sbbUUIKceFuJzYxc30XY/EP52pZQil56LHwRaaIC1uQte15LgQisZICLJKYTPkB39I5Mfz8BUrwODWC/eLGgMGrfbTvEHl18DmxVbW38VlP8A6ZksF3LUizoMfk4UTAynpHJnm8DiwWNbFao9v49Fn1e5w+C8ekcmebw+ZwPstv49Fn2e5w+C8ekcmebw+TBZ9Vt/HYIFiXhz4Lx6RyZ5vDNc4LPstv45hDXBi8ZPgvHpHJnm8QFn1238eljGpy4D4Lx6RyZ5vGBZ95t/HxZ9JtwfBePSOTPN4YJ5Z9Jt/mrAy1lW9Gk+/wD6gAhsQDdayneHM1iDohPpv6g5biCt6X+ByYs+s24PgvHpHJnm8fln123+kZ0hK8iLC2mjdn/NQiANAr8C5EWdJl8cPwXj0jkzzeGanWfYbf6lk3kT4Xy/g5OXF44fgvHpHJnm8V1n1G3+Vm57ymA8cmIk5JLXoGjYtLeBaqzFgUvAF5H8LNz3gjkj/Kzc94I5J/RZue8s3P4qGaHech7/AMsiLxw/BePSOTPN4fc7Ss+w2cVAVaCCtppUD7nVKcmw4x5FcJSxt0vusdH0jq5K8UyopoQvvTpccisp9Q/UQq6gkgVXVmJFn7aBAGMNOFs6DEg7mcr0rKQfml+WJWrIROy1DaO1Xp2APeIBLHEYpv8ABWymhjGDdpD3S5XWRqG+wkpR+aX5YgYZPT5hNgXQTsHE7xIq0DTQOo78WauAVc5cCWBjKg949oEULNsuyCUo5xDCMIdVouTrLDna0px9EcwDIJidvAP+c4A4NtXQX9QUhMUz7sfE90vuMzs6Z6DiTswkhCexeh5P8ZYlN6AcL4Lx6RyZ5vDM/SpWfSbOKG9HwMx31t24aOFeAwANDghXVGfDA3xTeRPhfLxktHGuEJTbNMqH2lQ0r7wxLIXAaDqMK8W+WBhyBri84ZzR+NBEsbOGuHJQU+5UGAMksitZWIeaaDVN4Kd6NBz5vPh8sjAFoTceABUAFqxA88bS0W92DlCMOeW2xv0GWGfAmyG61PgnHgl4aBi9E0TMYyJtszl7mjxM4vHr4Lx6RyZ5vD7baVn3mzgLlnG6VOXoTDfes9+FT5RANk1qtIzy7fhy6Ijg4DNgaXPim8ifC+XjJpyfDaoAvmxiwcFgc3k9I8GLsV7sAkQ4qyHSqgjuBN7Iu8boOFKKsOvGeBzxvZsSaRY1N2v8x5NGrQu7Fpb24BUUB5wtLrsaFewF7QHiUM0zeq29+FHPUAtMC1pi7WTExZiA6Bogy8a1N5eByzW11AccJc9qzEu03uXwCS++QLX4ixdB8itU5hvD/esdDVYIwYwkDtOhfAFxWRik59B/AsdrhXwXj0jkzzeH220rPrNnAixBHu4LRcx3QBkyHsH8Vk3kT4Xy8ZIC7hrRgAarADmCnwjpzh4dYpY7wMHMjxhAFABoH8zTyL6HdxOHaBV6YB+XD5Dykf1HBvxmqvABhk/lw0DlfLMOy9rkB/fBEeOh0dvMAAMq4IUuK+BZfClgvJSSdl3Dg5MXip+C8ekcmebw+j2lZ9xs4O2Dp7ODlUVFdLU0T3r+KybyJ8L5eMkPSbMEX1woOrwWrCEVGgYsOCMhD2u5a32QggNvT+Zp5F9Du4nH/BtG4364ZR5eqH7jW3IMRT9UwlevK8L7eTEwrU5IPJwWkcGb/wAogRknA5pzZAI13TgMg5oqngYKBsVwzIvET8F49I5M83h9DtCz7DZwZS1WyXD+IBpYdoJwFKiCxmV6+EIRGhZzUhi7jgeTeSeKbyIpcyH5eOnTff74ItwSAmQGViY8uU5ace/BEUu06lU04/zNPIvod3E4CZEOQhr0Ue0AUUDJHJ4FOYqIplYMjC9Yq0bV81V38Q/pQSgrC04HuqfgmN3nWgtdu7XBOqBLEcyKUUkYrd1kNEuKx4AGoJmXIIkSgmcw814F+os7EHra7cc+LCGaBwfgvHpHJnm8C2beGLn1GziFedCRghqOpBSkTR0dnk4/yTLTbP8AcMqm8fPArPGo6/4QSLqsiV1ksdHgzetBZErG8v8AKVJDYK/maeRfQ7uJygBYm+6EB1RBZNcj8n8sx6uuxA6iWpDESD+XVgMt1dTMf4oQmciKmg1XzFrs6Q2HIMOOZF44vgvHpHJnm8MH3sIWfabP4P2Vz7quDDs4BQvOqS4rsM3ykOY5yX7iHQJD8EJKzNBIlnZiXQm5AvYtgfB8OSuHYYGqfoiC7lqQyR0Ye3QSE2pd94V31U/IhTF+aILfKf11yuEaKPxFaoFRAFdglkqOViuqpn/YwT1AtwBKqjfhg3WUtKu6Z/2MHdninEF+6BXUvcrEusxGxGkdxg0ILdFoHH4lAUZimp7hHakwsB2GMw6oyawBthwMBxfOqP1wMM5IvcSFWijDXNxPhBrq4e6EVIVg2HqwaDEw+bgwHvHKFducjY5fxy8YXwXj0jkzzeCr72ELPrNn9IFqiL53Kw0pBywsDPHhkeHGAq+xHI4gO3+Qvf8AvTFuvgNL0wGKNVZR8w4jvD76Y3HAtwg/3WrUZIAjM273Xcs9+Amw1HArV2af2xm/QOF8F49I5M83gSzbwQs+k2f0N1hiylHwbmDh1W9IAAABQEcC2NnLEG5DNa7GGsAAFAUf3/MQPGVITXeNVvNbfZqDjVcwGbmgEnq5vBr5s6RgHIzWLR3DEr8v9fwIvFx8F49I5M83g6+hhCz7jZ/SFIKWpRyTEhbqo9hL9jGwUhSdR0unvAC6vFtVtXd39AMe6woxWhzSarsWfbP44qTjMw92BPIR1+0w6XA9XrY25vu6/wBnx4sV8CfgvHpHJnm8PqNiLPoNnrOUOm2Sz5ELDmQ/oMvtnIouaZ0Sew1CaIcj+34MXiL+C8ekcmebwz33oiz6jZ+O+PF46/gvHpHJnm8Pv9iLPsNn474fAKegcL4Lx6RyZ5vC92n6SLDSbq+D8ci1q1F4gPgvHpHJnm8eFniePx2T0fuLxSfBePSOTPN4+LPC8fjvEjERdB4PwXj0mku3V/MeCTA9oZXCw1dszP8A7E3kRefxl4frEuF3LSAAqYAFrElshRsR0X2uBbuTx6WpBaPvwEBVEA5jKS3tJ7j/AIjnF0Fm46kxCOJMDHJzdpZNsdH8QRit2Jel8giw9Q4F7jV5GMq1YtvnHA65wAKMITpQFrEaVtF29KC6tGZmMAuQ/wB4pyeTiO6zGU9G1lPL6Y8+8DI7JGC1mJM/6jRjNpZifhKYglhgt9YlVW2PgrB7TdZBzZTIKxM7PwyletBwbAcHZ1mrL5BtNqcoLJkembgXvEdu7OJ0jS4c8JOKJUaMdRucmIKxheR7x1yi1HYF0dSX13KzIlNP4BQLWiWmI30idpYHxCpDkAZy0JUDl8zT1xhQCGZW+YvEEnKrIPNgW0GIcAlAR6gCkuNWoZYDD6ocmZ1hg6e/BABMESxlDbJzFyMupGSm0PsxhfLOLLmnKaxpxtAy9dht8gmeqNiLF5NFQHLn1GEwtzBJvyORxKYzljLKmOzOL1mGC94AZereAGJOTeTKxORTNCQg6jwJgFKQghz2sZ5aXRwih/xeXzNzmSoRBNmXtftGWEL1R1quUvyBYDZgKKe64HTOYQzBdiHNzYJQKBQHTggIt2JKphqPSJWqZpbCKD17UJuLENniHaJoVamfTikCGKU++YMqPdrKXI/THlHO/bhNkcojAJeJTdnERpET0yBaAmee6OlVsUYdNN2JfthWV8hwOhcK1NGj/wC8EIgBirBaDKdD/YdYGRoSiAfgkEpji6O5ALibk5O8DJmt5nEYtVGBeZo5RSs3FqPe8OcWHYMdyWqdQ9JbmJHrXaBAFGgDFYjRw/v5OtIMQgrCd3/HHOh8seYwy5YGHOEREMPwolJcfsQySmNDQw1DrOgYngWFqBYnSDIsEYnzNOp7RiutA7IeGmLL9gWod/QHYuOxMDyNoswKgCS9f0uC8YUN3x9WAAAAGQcMNvYMV7TnkToTExuLiwAUfiWgBuW1C3Rk9SBguUan+QkJMkeAJ4qjP+TWyk+Dy/U+8dOFUb23OZKJSWQ832iI0lf2AWqitmE3i3ix2MhkrarIOsp1tIPRzugrvAKHTwdDg7Os1ZUDDWl2itisbUBoB+NRhNxdcXtyIaPu4XtxCP1RFrf6ExcmRKHmZDmY8omraWA7I5QgxJTlj/TlCMMTvHVq4x/rQjYDOYAfYmPPQ+7ygrAqwffMeKaeLVGR1YG2gxDgEoAPyCCUxBYHRi4NOGOQmAF1LBOJuasOR5Mh8842U3HmnuL3OcWUf581dpmrhtFiMEccKe8vY5yg8imR5Mh0x58S2M5Yyx7aRwzE5srAXADL8mZQuMuuKIAOXLHuTpCJ4Fq+hkNkc5jKgjZfJzMOUVH3hFLeCw3wRyeAFrGcMBFmIn8FT3+jLgVArLy1ObhyglJodA2A4IecTLK6MVm9I1apniMAUH5dEAxe5MzRmHVk4MUQCCOInAqDUCOps8yXfYyxBy8I+8U6dOof3BGIxwGu8RzbhWPLUWWwYeJHLR6HvCC9QI6u7zeDIQZqwMFynQ/2LVK3TkdCUYB+bQhNwuGHPE9oYa9L9uOFD4VjRBj2cJcm6R2kaNz2jFFmCxbVnHg1Q79GV7vtDqBQ3cLE6FHFwV637xTePWYB3lDIhh+dQSkhdCjJMyY7Q9kvRKZrBOIl6wWvdmdC+fHDb2DFe0c3idCB2LM1zYAFB/4E2gMra9/BBxqtLPqSuEqXS0z/AJCUQqXVxUhNnDsRWxWNqA0A/wDCgUDH1qPKY+T7xm6rzhFAf/ub/9k=;clipPath=inset(7.33% 11% 8% 11.33%);" vertex="1" parent="1">
          <mxGeometry x="890" y="319" width="174.29" height="190" as="geometry" />
        </mxCell>
        <mxCell id="Z_9xBYdDylWqjb8Pn6Dy-1" value="" style="dashed=0;outlineConnect=0;html=1;align=center;labelPosition=center;verticalLabelPosition=bottom;verticalAlign=top;shape=mxgraph.weblogos.html5" vertex="1" parent="1">
          <mxGeometry x="200" y="336" width="150" height="154" as="geometry" />
        </mxCell>
        <mxCell id="Z_9xBYdDylWqjb8Pn6Dy-7" value="" style="shape=image;verticalLabelPosition=bottom;labelBackgroundColor=default;verticalAlign=top;aspect=fixed;imageAspect=0;image=data:image/png,iVBORw0KGgoAAAANSUhEUgAAASwAAACoCAMAAABt9SM9AAAA0lBMVEX////qyjH/3iQAAAD/3ADoxhD478z9+/L/99rqyzH/3Rnpxxrh4eH/3Q/pySn/5nD/7Z//++z/765lZWT79uTIyMjv13X689r47cP5+fnT09Po6OjBwcFbW1vv7++1tbXj4+M3Nzfx0S3v2X2jo6OWlpb26bn52Cjy4Zzw3Ij/65KTk5PMzMwvLy5xcXGsrKtQUFCGhobx3pHt1GXs0Vb/6YYVFRVCQkEgIB/rzkn/8rz05q3/41r/7qX/9c3/5nT/4D8mJiZubm3/4k7/6ozu1WpkFQZXAAALzklEQVR4nO2dbUPaOhTH6yhTKODFogiUByc4J4jgnPg0N7l33/8r3Z48NSktTVNoacb/xYSSBvLjnJOcnNIZxl577SWq1Xccp9/L+mOo6m40JGqpd9IeL7vd5bg/iGrYK4Da6u+UrS4KVMrf9+SR9VHoru8Fw6oEvtZfzBYXqp8hHd0mhjUv8FpvNess6w5eUvwMKamQFNZQYBViNVQt191H407gawhWgliQggaDTq+fBBZmdOpazWT8GAVrnYa7DwvUZrAqp/3R1Lanowl+Ydhmn/504vRdJC1nOLdtezlq8+dSW2nb5HDvbjmb2UPU55gcG8zdBu5k6LiPW6Tj3sAZ4pcd1JE7W8K77LAG6HMO3EcLz58AFwoxfdQGQRnzXveIgCLnWfo6bE1poyk+szusDC8gInXdJx9uiw7qgTSyaT+k4xSHHl/eHOWF+0IBDGDBPvuYGNAF1wIwIhdeOIL7VLg2PWJ7Bexktvvvha+JyxJTJPpIHUAsMVjw94l+aPf5CP4iN4Gjt2SQH09eC4ridjyhvXXIkSfcKwerFwILvhjuWTYQZMVgtVGUb/XROAdkTK4rYU8duSBwC+I1PUMY5HyAXrugJ7WcmWt9E69BRYS1aLfbAxSrFv7gt8NisIQjE/qKQUIVP192qM1xLNzo47rjKW8dnQp+PjttVzouCQHWjHUEzVGc2/3ZUIA1cOYzPHIISWPiJBC8bknrQX8+e6Te4z7lA90tGfTI6xzBmpMnq7Ba9M1HuYM14lKXO4M4h42ngCFqe/fktcATpXHa5U+aUZsjWoEF0D1Y+M0nBFZKA06gFg0XLd6lsHVgJ+lTL2zxZkRhQXSaE4YzHLI4nw6H1UWHHgmsYT5g4anJ9YAlGpfTxmt6BAv5Yd+mdoBsaN5vk+N8Lx28BMNrtbiwKrlId0B48WwQM4IJachgoVE9UjI92hJHJvfQxOsGN8Wv3HmHo2DRb+qOWu9ua04CyIB+bmw3OEaxVSg8qbBHNoH1dMvMC1mdjV32iR7sYFhj8lSAZaMG8MhdOuDznFQGrKRWpVJpOzg3mVNY8MLcsw6ah8DCCbdA/rggsGD0U8c1iM6ShjH0F2VAp1OX+CmzUsM3GwKsyS39XhzGbzfVL3iiC/jC1J7hlQFxJfI6mt/wDNDt2lPqmeJuFrIasvJaLnG3k1BYTzadLlreaQt7ups7qdyC0ovmTATWnFEwiPcxOf7trEcUoPnvgKw+AmExIU/2Dk2MXZT3+UismAXA6vBP6L7E4yM5q80tu1hkqrDdi48AWLeGD5bjvVYgMHdQrQV41Hjo2X1/NpujLYTWYMKm/8rd9IPN6ZP5Em93dSZD3KLSH027M3vMB+fKyHXlJ7Sh1YGSCH0Hx30M3HFuOJrP+Tc3Bndzuzs29hLFMvS9orWHFUN7WDG0hxVDXLqzV6Q6vV5n9xPBvfbaa8fV5NVoNoJU9+uwfhiprAe2DVlFy6fitpX1kNX1UDpIV7WHrIesrj+1tGH9yXrI6rpMHda3rIesrvs0YPGuXrvOesjqerVSgMXLes16yOq6UoSlPC9Y51kPWV2fU7esz1kPWV3NtGEVG1kPWV31Ytqwcry2P1SGVUKKHbxyvIA3DFVYpU/xRJcoVtYDTqKa6rwWExZ5m9Jz1gNOoueUYJGzat+zHnASfVddwivCusx6wEmkmhzGjVkU1n3WA04iMTksBT7cAKyv5LQ8ZzvqyaEqrKusB5xEysmhIqwcZzvxk0PqnaqwmlkPOIlUk8OYsL6Q04r1rAecRA3FJbwqrBynhtLJYY0Xg1WOlh9W1uNNJilYte9nnBAtYPV2HClCi4W6rIebTFKLUnESKxJYZnS0bpgCrFKOC2EgqeRQgHXIYB1F9v5CYFELzXEhDCSVHCrDuqmKsHJcCANJJYfKsGjMorByXAgDseRwnTsqw/KvSXOdGhrGtcyqVBmW6YOV40IYSCo5XIVVkoJ15IeV69TQMM63aVl0MmRr0hwXwkBSyaEqLDoZ6pHtSCaHqm5IJ0NNsh255FDVsmgerUUhDFSUWMKvwCrJwSIhS49CGGiLsyGdDPUohIFkkkMZNzw6WdGPsg9WrgthIJnkUMay/jGrflFWehTCQGebglUN3SfVJdsxjG9KsFbdUAZWrgthoOsUYeU82+HLrCXf383DynUhDBSYHPp4JYSlRyEMJFNmTRjgdcl25JLDhJalTbYjlRwmtCya7RykPLQtaPuWRWDl+RdhVBb+1rcIi/SS90IYSCI53BCsnBfCQA/Rq9INwcp5IQwUkhzy9pYMlj6poVRyuCFYOS+EgSSSw2RLBwYrus6485K4BjeZZelSCANJVA43BCvnhTCQRHK4IVgpD2wbakYv4ZPFLBoTaykPbBsKSg4jt2jiwNKmEAbajGXdmCvyXcmW+0IYyBezArIfmZh1uHqDn59VAVbuC2Gg6N/uKpbvT0RYuS+EgaKTQ8WKNA5jOmU7MnfvUbSsGxFW7gthoJXkcMUtFS0Ll+/1KYSBopNDRcv6VebXpPkvhIGik0NFWMcCrPwXwkDR1+AquuGbCGubY0hN0cmhomX91hBW9DW4qrD4bOdAg0KYIXP3HkVYZWFNqkEhDLQtWKYA62ybQ0hPCrBCA3ydOyjC0qAQBopMDmVg1d9Pbo5/m+YPr6EIS4NCGCjy1q5r3ZBSMtFFpNUb1rBu6pcaSiSHwbCqLy+MErvWtvqTNWyIsDQohIHgB5qlddc7BMP6VOUpUVgnrOGRCEuL1FDi1q4hsIJkvrCG76awJtWgEAaKTA7jwHpnDX2wNCiEgSKTwziwvCnyRYSV/ri2ouDkkAthwUuHYFiet+FdZX2ukcRiySHcStOqoZsmCtE+DizP23C9QqtCmCEmh9b59dlBsWhZtbWwwt3Qa4i34EkXehTCDLHMikNL4/z18rlohcMKtyyv4Y0AS4tCGGgFFhYL/DEsq+o1xFvwFJYWhTBQKRgWXF9TimlZv72GaAtet2xHuAbXDyumZZX/9RoeC7C0KISBuB9oJoX15jV8E2Bpku0Id++RhBXmhuVfXkO0Ba9XIQx0vznL8raz8I0K9CqEgbjkMCEsbjvLqAqw0hrL1nW1IVhV8xO3a4VSw5p2sD7HhhUQs1xSN8JGM4KlVyEM1AyB5aY96E6b0ZZVNsv/+eoXeAuedKtLIcwQfqApukvj6v7BKlrF9bDKZvXH6sqgzmC5+bkuhTBDSA4DYkv9/L650pgjZf56Xz2JbsFTy9KkEAZaC8snPmaFkjLoFjyFpUkhDOT9vx+SsHDBwjx+CW+HdpX1Sw355DAGLK7qFaRzAZYmhTCQlxzGgBVxrcOLAEuDX4RRXcaFJXExG9qC160QBkLJYWmzsH4KsDQphIHIrV1Lm3TDGwHWpj7pDshLDjdnWf9VcWqIDFaHX4RReT/QrD1cR2zTycJCW/C6FcJAXHJYqlnFh+s1W3Wyboh2lelXoEshDNQQb8BZc4H9eQ0BJgPr6ORXWajtaFMIMwJ/oOnyss5eA2b8CFiH7/+8mWbVdyN4bQphoODLSl1gtcsr34bwmphVf/nx2wP19QtbvemU7ay7tasL7ODbObdMCr1P6bGbVrOL275+4TvRpxAGel65GIQTxPznezpJrlqW6HmwuvJfHadPIQwUeWtXBAytKkRYouchkwr63bA2hTCQzK1dyaoCb9jDrsOL6HlAKqQbfQphoOi799Dbq9VweEP7WVX+8ttAk6Kwsh7fRiVza1dBvoKFGM81hxV1De6K0UiaFFXW49uozotWvP9SOtCkgnuASJf1+Dar1vm3UtGSd0ZZkwJSQXlA7tV4/S5rYCVqUutaowRAo833FX2+P4hjYOtNat3mhSaqX51ZMSOYT6UamJRGO8nrdXT97DMwaXhoqa+/SYk6vLqsxfVId41vnV39NSYlqnn9IM/rrzQpn6TWFH+1SYmKWFMgk9Ko5Jxcn+/9IZ+aVHFvUgHCawrRpA7utdrX26yabE2BKkBa7VNtQ2hNsTcpeTV1zI332itM/wOvKguzDC7hawAAAABJRU5ErkJggg==;clipPath=inset(0% 22.33% 0% 22.67%);" vertex="1" parent="1">
          <mxGeometry x="540" y="328.5" width="165" height="168" as="geometry" />
        </mxCell>
        <mxCell id="Z_9xBYdDylWqjb8Pn6Dy-9" value="" style="shape=image;verticalLabelPosition=bottom;labelBackgroundColor=default;verticalAlign=top;aspect=fixed;imageAspect=0;image=data:image/jpeg,/9j/4AAQSkZJRgABAQAAAQABAAD/2wCEAAkGBxASERUPEhAVEBAQEhYQFhUVFQ8VFRUQFRUWFxYXFRYYHSggGBolGxUVIjEhJSkrMDAuFx8zODMsNygtLisBCgoKDg0OGhAQGi0lHyIvLS0tLy8tLS0vLS0tLS0tLy0tLS0tLS0tLS8tLS0tLS0tLS0tLS0tLS0tLS0tLS0tK//AABEIAOEA4QMBIgACEQEDEQH/xAAbAAEAAQUBAAAAAAAAAAAAAAAABwEDBAUGAv/EAEUQAAIBAgEIBQgHBwIHAAAAAAECAAMRBAUGEiExQVFhEyJxgZEHMkJSYnKhsRQjM5KywdEWVHOCosLwU9IVJENjk+Hi/8QAGQEBAAMBAQAAAAAAAAAAAAAAAAEEBQMC/8QAKhEAAgICAgIBAwQCAwAAAAAAAAECAwQREjEhIkETUXEUMkJhNIEjJDP/2gAMAwEAAhEDEQA/AJxiIgCIiAIiIAiIgCUi8s4nFU6Y0qjqi8WIA+MEN6L0TmcbnrhU1JpVT7IsPEzSYrPuufs6SIOLEsfDVO0cayXSOEsquPySDEiytnZjW/62h7qoPneY7Zfxh24h+4gfITssKfycXnQ+zJbiRGuXsWNmIqeN/nL9LOnGg/bluTKhHyEPCn8NBZ0PsyVYkdYfPnEjz0p1OzSX9ZusHnzh21VEekeOph8Nc5SxrI/B1jlVS+Tq5WYmByjRrC9Oor9hFx2jaJlXnDWiwmn0ViIgkREQBERAEREAREQBERAEREASkrKEwCl5i5RylRoLp1XCDdxJ4AbzOfzizuSkTSoWqVRqLegh/uM4LF4qpVY1Kjl3O88OA4DlLVOLKfl+EU7suMPEfLOoytnvUa60F6NfXaxbuGwfGctiMQ9RtJ3Z24sST3cO6W4mlXTCH7UZll05/uYiInU5iIiAIiIAiIgFablTpKSrDYQSCO8a50eSc8sRSstT69Odg4HvDUe+c3E5zqjNeyOkLZQfqyW8kZboYgfVv1htQ6mHd+YmxvIUpuVIZSVZdYIJBB5HdOzzfzz2U8T2CqB+MD5iZ12I4+Y+UaNOYpeJeDuZWeKbggEEEHWCNhE9ymXhERAEREAREQBERAESkEwCjEDWdQE4DOjOs1L0cOdGnsaoDYtyXgOe+M884+kJw1Jvq1NqjD0iNqjkN/GclNDGxv5SM3Kyv4QERE0TOEREAREQBERAEREAREQBERAEREA32becr4YhGu9AnWu9OafpJJwuJSooqIwZGFwRstIYm7zYy+2FfRYk0HPWG3RPrKPmN8o5OMpe0ey9jZLi+MuiUhKy3SqBgGUhlYXBGsEHYRPczDVKxEQBERAEoZWIB5M5XPbLppL9Hpt9ZUHWI2pTP5nZ4zoMqY5aFJqz7EF7bydwHaZEeMxL1ajVXN3c3PLkOQ2S1i085bfSKeXdwjxXbLMRE1zIEREAREQBERAEREAREQBERAEREAREQBERAOtzGy7oMMJUPUc/Vn1XPodh3c9W8TvxIT+B23G0EbxJSzTyx9JoAsfrafUce0NjdhGuZeXTxfNGph38lwZuxKxEpF8REQBKGJaxddaaNUbUqKXPYBeCG9HCeUDKelUXDKerTs7++fNHcNffOSl3FVzUdqjec7Fz37u7UJam5TXwgkYN1nObYiInU5iIiAIiIAieqdNm1KrOeCqzH4S59Dq/6NT/AMdX9J55JdsniyzE91KLrrZGQe0rqPEieJKaY0xERJIEREAREQBERAEREATb5p5T+j4lSTanVtSfhrPVY9hO3gTNRKML6p4sgpxcWe65uEkybhKzUZrZQ6fC06h88DQf30OiflNtMJrT0b0ZbWysSkSD0JzWfuL0MNoDbWYJ/KNZ+U6WR/5RcRetTpX1IhYjmxsPkZ2x48rEV8qXGpnJRETbMQREQBERAE2ebmSvpNcUybIo03I26I3DtM1k6/ycD62r7ij4mcb5ONbaO1EVKxJnYH6PhaV+pRpIOQH/ALPxmp/bXA/6jdug1prPKcx6Oit9RqMSOJC6pwEo046sjyky9fkOuXGKJrw2Jo4inpoVq02uOI5gg/KR/nnkRcO61KYtSqki25H22HI8OUZi5Zo4fpRWqaCvostwxBYXB2DsmXnvl3C4jDqlGqHYVVa2i46oVgTrA4iK4zqu0uhZOFtW32clEtI+6XZpmWIiJIEREAREQBERAEREA7HycYyz1qBPnAVl7RZX/sneSKM0sRoYyidzk0jz01NviBJXEx8uPGz8mzhy5V/gRESsWRItz0q6WMqeyFTwW/8AdJSaRJnK18XWP/ct4ACXMJe+ylnP00a2IiaplCIiAImfgcjYmsunSol0uRe6AXG3aRK4zIeKpIalSiURdpuhtc23Emc/qw3rZ7+nPW9GvnX+Tj7Wr7i/OciqkmwFzwAuZ13k4+1q+4v4jOWU/wDjZ1xf/VF/yn+ZQ99/wzgJ33lP8yh77/hmozIyPRrVWNYgmjZhROotfWGYHao4TlRNQp2ztfBzu0jJzOzV6TRxNdbU9qUztfgzD1eW/s27HPDNXpL4mgv1g1ugt1xxX2vnOsXF0+k6EMOkVdMqNoUmwJ4RXxdNGRHYK1UkKDq0iNZA565Td83PkXFj1qHEhP8Azv4S4j7p2XlAyPRS2JUhKjtosnrnewG4jeZy+AyRiK4LUqTVFU6JIKixte2sjcZp13RlHkZllLjLiWYmdXyFi6aF6lBlRBctdDYdxmDOsZKXTOMouPaEQBu46v8AOE24zYxv7ufv0f8AdIlOMf3MmMJS6RqImTj8n1qBC1aZplhcXKm45EEiYxkqSktohpp6YibWnm1jWAYYdrMAR1qQNjyLXExcoZMr0LdNT6PTvo3ZDe23zSeM8q2Dekz065pbaMSIidDwXcHV0KlN/Vqo39QkziQk3yIPxEmqgbqDyHymbnLymaeA/DRdiImeaB5fZIkzjH/NVv4h+IElttkirO2nbF1Pa0W/pA/KXcJ+7KOcvRGoiImqZQnqlSZ2CKLs5Cr7xNhPM6jMHJvSVjXYdWgLDnUYfkPmJyunwg2dKoc5qJ3OS8EtCilFdiLa/E7z43lzF4datNqba0qKVO/URNdnXlHoMLUceew6NPfbUPDWe6YOYOUelwopk3egejPErtQ+Gq/EGY/GTjz/ALNnlFS+n/Rpsy0o0cTUw9YWxKMUps2wr7PtEa+YnX4PJFKlVetTGiaoAZR5pIN7gbjOP8o2TdF0xai2lam5G5xrRu3dfks2OZ2dQrWw9Y2rAWVt1QAfi+c7WRlOP1F/s41yjCf05L8G/wApZJpV3pNUGkKLFgvoliLDSG+3Ccrn7iKFOpTemdHGqQdJNRCe3xvuH5TaZ25zrhh0VOzYhh2hAfSbnwEjOpUZmLsxZmNyx1kk7zPeNTKXs+jxlXRXrHs7DydVWfE13ZizvTDEnaTpGZnlN8yh77eNhMHyafb1f4S/iMzvKb5lD32/CJMl/wBhER/xmcTisXVrMC7tUYAIt9erYB/m2S1m9k0YfDpR3gXbnUbW3xnAZi5M6bEhyOpQHSHm/oD5nuHGSBl/KAw+HqVt6rZebnUo8SJGVLclXEnFjpOyRm1EV1KnrKwIPMHUZD2UsGaFZ6Deg1geKnWp8CJ3Xk9ykalBqLG70W2naUe5B8dId0wvKPk24TFKNa/VP7p809xuP5uUjHbqt4snIiralNHFzusyMv6QGFqt1lH1bH0lHok8R8pwKNLqMQQwJDKQQRtBGsES/dUrI6M+m11y2iVM5cjjE0SmyovWpng/DsOycdmbkI1apqVVslBtEqQddYbjyG+dbmrlr6TSu2qrTsr6tRO5h28OM3NgLm1t5/WZatnWnWarqha1YY2UsoU6FNqtQ2VR3k7gOZkS5XylUxFU1n36lXcqbgJnZ05dbFVdRIo0yQim4udhcjj27JpJdxqOC5PspZN/N8V0XFaepantTLhSD7PD5yasL5o7B8pDNFNJ0X1qiDxYSaaeyZ2c/KRp4C8NnqIiUDQBkcZ/ULV1f10t90//AFJHnH5/4W9IVAPs3B/lbV+ksY0uNiK2VHlUzgoiJsmKPjJYzbyd9Hw6Uz59tJ/fbWf07pweZuTemxIJF0o2qt71+oPEX/lkkY/FLSpvVbzaalj3CZuZZtqCNLBr0nNmBl/INPFhA7uopksApUAki1zcHYL+JlrIWbVPCOz06lRtNdEhipGo3B1DaNfiZHj5z40kn6Q63JNho2F9w1bpT9pcd+8v/T+kj9LbrW/BP6qrlvXklLLWTxiKD0T6a6jwYeafG0j3NPNtcSaoqPUpPQZR1NEEN1r3uDrBWSBkLKAxGHp1h6a6+TjUw8QZqK1RcHji7dWhjlAJ2BcQnHgGB8bzhXOUU4I72QjJxmznM7820wyCsKtSq9SpZi+gdZBNyQBr1TlZNOU8n08RSNGoNJG8QdxB3Gcq3k9p7sQ9uaodXOWKMqKjqZWvxZOW4dGB5NPt6v8ACX8Rmd5Tvs6Pvv8AhE6HIWQ6WEUrTuzNrZ2tpNbZs1ADhOeypUXHY6lh161HDXqVCNhNxdRx2Ad54Tnz5W810jrw408H2zcZm5L6DDLcWqVfrW7TsHcLTKy7kZMUi03d0VW07Joi5tYXuDxMz69ZUQuxsqKWPYBcyKsRnRjGZnFd0VmJCi1lW+oeFp4rrnbJyR7sshVFRZ3mRM16WFqGqlSoSVKEMVIINjuHECbXKOEWtSei3m1FKnv3yKv2jxv7y/8AT+kknNnKX0jDJVJ69tF/fXUfHb3ybqrIe0nsii2ufpFaImxFBqbtSbzkYoe0apk5JwVSvVWig1tv3Ku9jyE6XP7I7dOlampY17UyBvqjzT3jV/LOmzXyEuFpWNmqvYu3P1RyEtSykq012ypHF3a0+kZuScnU8PSFJBqG0nazbyec94PH0q2l0bh+jc02tuYTR57Zc6Cn0SH66qCB7KbC3buE4fNzK7YWsH1mm3VqLxXiOY2+IlWGPKyLmW55Ea5KCN7nzm9oE4ukvUY3qKPRY+mOR3+M48Sa0ZKiAizo634gqw+VpGGdeQThal1F6FQ9U+qd6H8uXZLGLfv0kV8qhL3j0aOIlZfKJs826Wni6K8H6Q9iAt+UlymNUjjyfYXSr1KttVNBTHvOdI/BR96SSJk5kt2fg1sOPGv8iJWJV2WxNblvCCpSZD6aley+w+NvCbKW6yXElPT2Q1taIWdCpKkWZSVI5g2PxlJvc8cB0dbpAOrV/GBr8RY+M0U3K584pmDbDhJxPSVXW+g7IT6pIv22luri6rAq1R2B2gsxHgZ6nl0v2z04o8qTRYiVtEAvUsVVUWWo6C97KzAX7pStiajizuzgawGYkX75bieeKJ5Po2ODy7i6Q0add1UbAbMAOWkDaZH7VY794P3aX+2aaJ5+lB/CPatmvk2WLy/i6q6L13KnUQLLcc9EC8waNZ01oxQ7OqSNXdPEpPShFLSR4c5N7bMh8bVIKtVdgdRBZiCOY3yxESUkuiG2+xLtHE1E1JUZATeyswF+6WohrYT10ZBx1bUelclTcdZtR4jXqMuf8VxP7xV++/6zDiRwj9j1zl9z3WrM50nYux1XYknxM8xE9aPOzJo5QrIAq1qiqNgDsAOwXnmvjarjReq7gG9mZiL8bHtliVkcV3onk9a2JQm2vcJWZmR8D09dKPo303/hqRcd5sO+ROSjFsQjzlo77MbAGlh1JFnqXqt2trA7l0R3Tp5YwlOyzImJKXJ7N6MeKSERE8noShlYgGgzmyYK1Jk2Hap4ONh7N3fIxZSCQRZlJUjgRtEmivTuLSPc8skFScQo5VAOG5+7YeXZLuJdxfF/JRzKeS5LtHMRETUMo8ut+2WiJfnllvI0SmWogiJBIiIggSsRAEREAREQBKxEARErJBSViJAKEgC51Aa532Y2SDTp9K4tUrWYg+ig8xfiT2tOZzYyScRV02H1NJtfB6g1heYGonuHGSnhaWiJnZd2/RGlh0692X1ErAiUTQEREAREQCkwsfhQw2X/AEmdKEQCJcv5IOHe6j6ljq9hvVPLge6aySzlTJ6upBUMrCxB2ESNstZIfDm4u1Emwbensv8Ak3+HTxsna4yMvKxXH2j0a+IiXigeWWW5enllvIBalYtEgkREQBERAErAiAIiVkgRESAJk5Nye+IqdEmoDW7+ovL2juHfGTcBUxD6FPUB57kdVBw5ty8ZJGQcjJSQIgso1knazb2Y7zKuRkKC1HsuY2NzfKXRk5FyalJFRV0VUWA/Xiec2wEItp6mU/Jq6EREEiIiAIiIAiIgHkia7H4AMDqBBFiDrBHObOUIggi/LObT0yXoDSXaaW8e4d/unu4TQK1+0aiN4PAjdJkxWDDTmctZuU6vWIKvuddTd+5u+Xactx8SKV2GpeYnBxM7H5HxFG5K9Kg9NAbge0m0d1xNerg7DeaELIz6ZmzrlD9yDC8ty9PJWezwW4gxIJErEQBESogCJRiBrJsOcysDk6vW+zpnR9d7qndvbuE8ynGPbPUYSn4ijFZgBcmwm2yRkCrXszXpUT3O49keiOZ7uM3+Rs1qaEO/11Qa7sLKp9lN3abmddhcEBrO2ULsvfiBoU4evMzDyTkpKahFUIi7APmeJ5zdIgEAWnqUdl9IREQSIiIAiIgCIiAIiIAiIgFLTy9MGe4gGtxGTwdYmhynm7Sqa3pjS9Zbq33lnYTyyAyVJrohxT7IyxWajj7OtflUH9y/oZra2RsUu2jpc0ZW+Go/CSxUwindMapk0GWIZdiK0sOuRElag66mp1EPNH/SY+kOY7Qw/KS6cmncZbbJp7Z1/Wv7HJ4MfuRNpj/AZcSmzeajt2I/6SVBkw8JcXJx3kx+tf2CwV8sjKlkfFNsoMvvlU+ZvNjhs1arfaVVQcEBY/eawHgZIVPJgmTTwajdOUsuxnWOHWu/JyWTs16KEEU9NvWqdY9wOodwnRYfJ28zZLTA3T3K7k5dllRUfCLVKiF2S7ESCRERAEREAREQBERAEREAREQBERAEREAREQChiIkfIKRKRAKiIiSColYiQBERJAiIgCIiAIiIAiIgCIiAf//Z;" vertex="1" parent="1">
          <mxGeometry x="1250" y="325" width="185" height="185" as="geometry" />
        </mxCell>
      </root>
    </mxGraphModel>
  </diagram>
</mxfile>
